{
.appVersion = "998";
copyright = "Copyright 2017 Google Inc. All Rights Reserved.";
customParameters = (
{
name = glyphOrder;
value = (
.notdef,
NULL,
CR,
space,
"koKai-lao",
"khoKhai-lao",
"khoKhuay-lao",
"ngoNgu-lao",
"coCok-lao",
"soSang-lao",
"nyoNyung-lao",
"doDek-lao",
"toTa-lao",
"thoThong-lao",
"thoThung-lao",
"noNok-lao",
"boBae-lao",
"poPa-lao",
"phoPhueng-lao",
"foFon-lao",
"phoPhu-lao",
"foFai-lao",
"moMa-lao",
"yoYa-lao",
"roRot-lao",
"loLing-lao",
"woWi-lao",
"soSeua-lao",
"hoHaan-lao",
"oO-lao",
"hoHeuan-lao",
"khmuGo-lao",
"khmuNyo-lao",
"aVowel-lao",
"aaVowel-lao",
"amVowel-lao",
"nyoVowel-lao",
"eVowel-lao",
"aeVowel-lao",
"oVowel-lao",
"ayMaiMuanVowel-lao",
"aiMaiMayVowel-lao",
"amVowel-lao.narrow",
"hoNo-lao",
"hoMo-lao",
"zero-lao",
"one-lao",
"two-lao",
"three-lao",
"four-lao",
"five-lao",
"six-lao",
"seven-lao",
"eight-lao",
"nine-lao",
"koLa-lao",
"ellipsis-lao",
kip,
"maiKanVowel-lao",
"iVowel-lao",
"iiVowel-lao",
"euVowel-lao",
"euuVowel-lao",
"maiKonVowel-lao",
"uVowel-lao",
"uuVowel-lao",
"loVowel-lao",
"maiEk-lao",
"maiTho-lao",
"maiTi-lao",
"maiCatawa-lao",
"karan-lao",
"niggahita-lao",
"niggahita_maiEk-lao",
"niggahita_maiTho-lao",
"niggahita_maiTi-lao",
"niggahita_maiCatawa-lao",
"maiEk-lao.small",
"maiTho-lao.small",
"maiTi-lao.small",
"maiCatawa-lao.small",
"karan-lao.small",
"maiKanVowel-lao.narrow",
"iVowel-lao.narrow",
"iiVowel-lao.narrow",
"euVowel-lao.narrow",
"euuVowel-lao.narrow",
"maiKonVowel-lao.narrow",
"uVowel-lao.narrow",
"uuVowel-lao.narrow",
"loVowel-lao.narrow",
"maiEk-lao.narrow",
"maiTho-lao.narrow",
"maiTi-lao.narrow",
"maiCatawa-lao.narrow",
"karan-lao.narrow",
"niggahita_maiEk-lao.right",
"niggahita_maiTho-lao.right",
"niggahita_maiTi-lao.right",
"niggahita_maiCatawa-lao.right",
"uVowel-lao.small",
"uuVowel-lao.small",
"maiKanVowel-lao.center",
"maiKonVowel-lao.center",
"niggahita-lao.narrow",
"niggahita-lao.right",
"loVowel-lao.small",
"maiEk-lao.smallright",
"maiTho-lao.smallright",
"maiTi-lao.smallright",

glyphs = (
{
glyphname = .notdef;
lastChange = "2017-06-02 15:50:30 +0000";
layers = (
{
layerId = "169B4CCF-67AF-4042-AA6F-C8E438F95C30";
paths = (
{
closed = 1;
nodes = (
"450 0 LINE",
"450 714 LINE",
"50 714 LINE",
"50 0 LINE"
);
},
{
closed = 1;
nodes = (
"98 666 LINE",
"402 666 LINE",
"402 48 LINE",
"98 48 LINE"
);
}
);
width = 500;
},
{
layerId = "A12FF52C-901E-4F1C-B651-FD65F325A5D0";
paths = (
{
closed = 1;
nodes = (
"450 0 LINE",
"450 714 LINE",
"50 714 LINE",
"50 0 LINE"
);
},
{
closed = 1;
nodes = (
"98 666 LINE",
"402 666 LINE",
"402 48 LINE",
"98 48 LINE"
);
}
);
width = 500;
},
{
layerId = "528596C4-5B9B-4A0D-91B5-66A38EFFCD2C";
paths = (
{
closed = 1;
nodes = (
"450 0 LINE",
"450 714 LINE",
"50 714 LINE",
"50 0 LINE"
);
},
{
closed = 1;
nodes = (
"98 666 LINE",
"402 666 LINE",
"402 48 LINE",
"98 48 LINE"
);
}
);
width = 500;
},
{
layerId = "15894915-CD0E-4C5A-A33F-EBC469CF719E";
paths = (
{
closed = 1;
nodes = (
"450 0 LINE",
"450 714 LINE",
"50 714 LINE",
"50 0 LINE"
);
},
{
closed = 1;
nodes = (
"98 666 LINE",
"402 666 LINE",
"402 48 LINE",
"98 48 LINE"
);
}
);
width = 500;
},
{
layerId = "004437BA-C458-42A1-B8EC-F9F2993A06FB";
paths = (
{
closed = 1;
nodes = (
"450 0 LINE",
"450 714 LINE",
"50 714 LINE",
"50 0 LINE"
);
},
{
closed = 1;
nodes = (
"98 666 LINE",
"402 666 LINE",
"402 48 LINE",
"98 48 LINE"
);
}
);
width = 500;
},
{
layerId = "5B84B61E-AB9F-4F38-98DA-7F1AA4E54ED0";
paths = (
{
closed = 1;
nodes = (
"450 0 LINE",
"450 714 LINE",
"50 714 LINE",
"50 0 LINE"
);
},
{
closed = 1;
nodes = (
"98 666 LINE",
"402 666 LINE",
"402 48 LINE",
"98 48 LINE"
);
}
);
width = 500;
}
);
note = .notdef;
},
{
glyphname = "koKai-lao";
lastChange = "2017-06-02 15:50:30 +0000";
layers = (
{
anchors = (
{
name = bottom;
position = "{495, 0}";
},
{
name = top;
position = "{342, 536}";
},
{
name = top2;
position = "{495, 536}";
}
);
layerId = "169B4CCF-67AF-4042-AA6F-C8E438F95C30";
paths = (
{
closed = 1;
nodes = (
"188 -10 OFFCURVE",
"217 28 OFFCURVE",
"217 77 CURVE SMOOTH",
"217 461 LINE",
"263 502 OFFCURVE",
"313 527 OFFCURVE",
"368 527 CURVE SMOOTH",
"424 527 OFFCURVE",
"467 501 OFFCURVE",
"467 435 CURVE SMOOTH",
"467 -4 LINE",
"475 -4 LINE",
"495 21 LINE",
"495 431 LINE SMOOTH",
"495 520 OFFCURVE",
"437 552 OFFCURVE",
"371 552 CURVE SMOOTH",
"309 552 OFFCURVE",
"254 524 OFFCURVE",
"212 487 CURVE",
"208 528 OFFCURVE",
"180 552 OFFCURVE",
"134 552 CURVE SMOOTH",
"85 552 OFFCURVE",
"55 523 OFFCURVE",
"55 478 CURVE SMOOTH",
"55 431 OFFCURVE",
"87 404 OFFCURVE",
"130 404 CURVE SMOOTH",
"154 404 OFFCURVE",
"174 412 OFFCURVE",
"186 425 CURVE",
"189 424 LINE",
"189 119 LINE",
"186 118 LINE",
"174 131 OFFCURVE",
"154 138 OFFCURVE",
"131 138 CURVE SMOOTH",
"87 138 OFFCURVE",
"55 111 OFFCURVE",
"55 64 CURVE SMOOTH",
"55 19 OFFCURVE",
"85 -10 OFFCURVE",
"133 -10 CURVE SMOOTH"
);
},
{
closed = 1;
nodes = (
"102 12 OFFCURVE",
"81 31 OFFCURVE",
"81 64 CURVE SMOOTH",
"81 97 OFFCURVE",
"101 116 OFFCURVE",
"134 116 CURVE SMOOTH",
"168 116 OFFCURVE",
"188 97 OFFCURVE",
"188 64 CURVE SMOOTH",
"188 31 OFFCURVE",
"168 12 OFFCURVE",
"135 12 CURVE SMOOTH"
);
},
{
closed = 1;
nodes = (
"100 426 OFFCURVE",
"81 445 OFFCURVE",
"81 478 CURVE SMOOTH",
"81 511 OFFCURVE",
"101 530 OFFCURVE",
"134 530 CURVE SMOOTH",
"167 530 OFFCURVE",
"186 511 OFFCURVE",
"186 478 CURVE SMOOTH",
"186 445 OFFCURVE",
"167 426 OFFCURVE",
"133 426 CURVE SMOOTH"
);
}
);
width = 570;
},
{
anchors = (
{
name = bottom;
position = "{568, 0}";
},
{
name = top;
position = "{339, 536}";
},
{
name = top2;
position = "{569, 536}";
}
);
layerId = "A12FF52C-901E-4F1C-B651-FD65F325A5D0";
paths = (
{
closed = 1;
nodes = (
"206 -10 OFFCURVE",
"250 26 OFFCURVE",
"250 94 CURVE SMOOTH",
"250 447 LINE",
"296 489 OFFCURVE",
"339 511 OFFCURVE",
"390 511 CURVE SMOOTH",
"462 511 OFFCURVE",
"476 466 OFFCURVE",
"476 394 CURVE SMOOTH",
"476 -6 LINE",
"514 -6 LINE",
"568 52 LINE",
"568 403 LINE SMOOTH",
"568 499 OFFCURVE",
"521 560 OFFCURVE",
"413 560 CURVE SMOOTH",
"337 560 OFFCURVE",
"288 530 OFFCURVE",
"244 495 CURVE",
"230 538 OFFCURVE",
"193 560 OFFCURVE",
"143 560 CURVE SMOOTH",
"82 560 OFFCURVE",
"45 526 OFFCURVE",
"45 468 CURVE SMOOTH",
"45 408 OFFCURVE",
"84 376 OFFCURVE",
"138 376 CURVE SMOOTH",
"152 376 OFFCURVE",
"166 378 OFFCURVE",
"172 382 CURVE",
"158 391 LINE",
"158 158 LINE",
"172 171 LINE",
"163 173 OFFCURVE",
"149 175 OFFCURVE",
"136 175 CURVE SMOOTH",
"85 175 OFFCURVE",
"45 142 OFFCURVE",
"45 82 CURVE SMOOTH",
"45 24 OFFCURVE",
"82 -10 OFFCURVE",
"143 -10 CURVE SMOOTH"
);
},
{
closed = 1;
nodes = (
"109 29 OFFCURVE",
"93 47 OFFCURVE",
"93 81 CURVE SMOOTH",
"93 115 OFFCURVE",
"109 133 OFFCURVE",
"141 133 CURVE SMOOTH",
"173 133 OFFCURVE",
"189 115 OFFCURVE",
"189 81 CURVE SMOOTH",
"189 47 OFFCURVE",
"173 29 OFFCURVE",
"141 29 CURVE SMOOTH"
);
},
{
closed = 1;
nodes = (
"109 418 OFFCURVE",
"93 435 OFFCURVE",
"93 469 CURVE SMOOTH",
"93 503 OFFCURVE",
"109 521 OFFCURVE",
"141 521 CURVE SMOOTH",
"173 521 OFFCURVE",
"189 503 OFFCURVE",
"189 469 CURVE SMOOTH",
"189 435 OFFCURVE",
"173 418 OFFCURVE",
"141 418 CURVE SMOOTH"
);
}
);
width = 633;
},
{
anchors = (
{
name = bottom;
position = "{657, 0}";
},
{
name = top;
position = "{382, 536}";
},
{
name = top2;
position = "{647, 536}";
}
);
layerId = "528596C4-5B9B-4A0D-91B5-66A38EFFCD2C";
paths = (
{
closed = 1;
nodes = (
"269 -12 OFFCURVE",
"318 37 OFFCURVE",
"318 125 CURVE SMOOTH",
"318 450 LINE",
"342 479 OFFCURVE",
"375 500 OFFCURVE",
"410 500 CURVE SMOOTH",
"441 500 OFFCURVE",
"468 484 OFFCURVE",
"468 443 CURVE SMOOTH",
"468 -6 LINE",
"595 -6 LINE",
"657 66 LINE",
"657 383 LINE SMOOTH",
"657 501 OFFCURVE",
"561 562 OFFCURVE",
"456 562 CURVE SMOOTH",
"387 562 OFFCURVE",
"330 536 OFFCURVE",
"302 500 CURVE",
"280 541 OFFCURVE",
"237 562 OFFCURVE",
"177 562 CURVE SMOOTH",
"98 562 OFFCURVE",
"52 525 OFFCURVE",
"52 457 CURVE SMOOTH",
"52 391 OFFCURVE",
"96 365 OFFCURVE",
"134 365 CURVE SMOOTH",
"137 365 OFFCURVE",
"140 365 OFFCURVE",
"143 365 CURVE",
"129 386 LINE",
"129 166 LINE",
"143 185 LINE",
"141 185 OFFCURVE",
"139 185 OFFCURVE",
"136 185 CURVE SMOOTH",
"98 185 OFFCURVE",
"52 160 OFFCURVE",
"52 93 CURVE SMOOTH",
"52 25 OFFCURVE",
"98 -12 OFFCURVE",
"177 -12 CURVE SMOOTH"
);
},
{
closed = 1;
nodes = (
"122 42 OFFCURVE",
"107 60 OFFCURVE",
"107 91 CURVE SMOOTH",
"107 122 OFFCURVE",
"122 140 OFFCURVE",
"155 140 CURVE SMOOTH",
"188 140 OFFCURVE",
"203 122 OFFCURVE",
"203 91 CURVE SMOOTH",
"203 60 OFFCURVE",
"188 42 OFFCURVE",
"155 42 CURVE SMOOTH"
);
},
{
closed = 1;
nodes = (
"122 410 OFFCURVE",
"107 428 OFFCURVE",
"107 459 CURVE SMOOTH",
"107 490 OFFCURVE",
"122 508 OFFCURVE",
"155 508 CURVE SMOOTH",
"188 508 OFFCURVE",
"203 490 OFFCURVE",
"203 459 CURVE SMOOTH",
"203 428 OFFCURVE",
"188 410 OFFCURVE",
"155 410 CURVE SMOOTH"
);
}
);
width = 723;
},
{
anchors = (
{
name = bottom;
position = "{384, 0}";
},
{
name = top;
position = "{260, 536}";
},
{
name = top2;
position = "{394, 536}";
}
);
layerId = "15894915-CD0E-4C5A-A33F-EBC469CF719E";
paths = (
{
closed = 1;
nodes = (
"145 -10 OFFCURVE",
"169 28 OFFCURVE",
"169 77 CURVE SMOOTH",
"169 461 LINE",
"207 505 OFFCURVE",
"247 527 OFFCURVE",
"289 527 CURVE SMOOTH",
"335 527 OFFCURVE",
"366 501 OFFCURVE",
"366 435 CURVE SMOOTH",
"366 -4 LINE",
"375 -4 LINE",
"394 21 LINE",
"394 431 LINE SMOOTH",
"394 520 OFFCURVE",
"350 552 OFFCURVE",
"294 552 CURVE SMOOTH",
"242 552 OFFCURVE",
"197 524 OFFCURVE",
"165 487 CURVE",
"161 528 OFFCURVE",
"138 552 OFFCURVE",
"103 552 CURVE SMOOTH",
"65 552 OFFCURVE",
"41 523 OFFCURVE",
"41 478 CURVE SMOOTH",
"41 431 OFFCURVE",
"66 404 OFFCURVE",
"99 404 CURVE SMOOTH",
"117 404 OFFCURVE",
"132 412 OFFCURVE",
"140 425 CURVE",
"141 424 LINE",
"141 119 LINE",
"140 118 LINE",
"131 131 OFFCURVE",
"117 138 OFFCURVE",
"100 138 CURVE SMOOTH",
"66 138 OFFCURVE",
"41 111 OFFCURVE",
"41 64 CURVE SMOOTH",
"41 19 OFFCURVE",
"65 -10 OFFCURVE",
"102 -10 CURVE SMOOTH"
);
},
{
closed = 1;
nodes = (
"79 12 OFFCURVE",
"63 31 OFFCURVE",
"63 64 CURVE SMOOTH",
"63 97 OFFCURVE",
"78 116 OFFCURVE",
"103 116 CURVE SMOOTH",
"128 116 OFFCURVE",
"143 97 OFFCURVE",
"143 64 CURVE SMOOTH",
"143 31 OFFCURVE",
"128 12 OFFCURVE",
"103 12 CURVE SMOOTH"
);
},
{
closed = 1;
nodes = (
"77 426 OFFCURVE",
"63 445 OFFCURVE",
"63 478 CURVE SMOOTH",
"63 511 OFFCURVE",
"78 530 OFFCURVE",
"103 530 CURVE SMOOTH",
"128 530 OFFCURVE",
"142 511 OFFCURVE",
"142 478 CURVE SMOOTH",
"142 445 OFFCURVE",
"128 426 OFFCURVE",
"102 426 CURVE SMOOTH"
);
}
);
width = 450;
},
{
anchors = (
{
name = bottom;
position = "{452, 0}";
},
{
name = top;
position = "{268, 536}";
},
{
name = top2;
position = "{450, 536}";
}
);
layerId = "004437BA-C458-42A1-B8EC-F9F2993A06FB";
paths = (
{
closed = 1;
nodes = (
"171 -10 OFFCURVE",
"206 26 OFFCURVE",
"206 94 CURVE SMOOTH",
"206 447 LINE",
"233 485 OFFCURVE",
"264 511 OFFCURVE",
"300 511 CURVE SMOOTH",
"347 511 OFFCURVE",
"360 467 OFFCURVE",
"360 394 CURVE SMOOTH",
"360 -6 LINE",
"409 -6 LINE",
"452 52 LINE",
"452 403 LINE SMOOTH",
"452 499 OFFCURVE",
"405 560 OFFCURVE",
"324 560 CURVE SMOOTH",
"268 560 OFFCURVE",
"229 530 OFFCURVE",
"199 495 CURVE",
"186 538 OFFCURVE",
"157 560 OFFCURVE",
"117 560 CURVE SMOOTH",
"66 560 OFFCURVE",
"36 526 OFFCURVE",
"36 468 CURVE SMOOTH",
"36 409 OFFCURVE",
"67 376 OFFCURVE",
"103 376 CURVE SMOOTH",
"112 376 OFFCURVE",
"120 378 OFFCURVE",
"124 382 CURVE",
"114 391 LINE",
"114 158 LINE",
"124 171 LINE",
"119 173 OFFCURVE",
"111 175 OFFCURVE",
"103 175 CURVE SMOOTH",
"68 175 OFFCURVE",
"36 142 OFFCURVE",
"36 82 CURVE SMOOTH",
"36 24 OFFCURVE",
"66 -10 OFFCURVE",
"118 -10 CURVE SMOOTH"
);
},
{
closed = 1;
nodes = (
"86 29 OFFCURVE",
"74 47 OFFCURVE",
"74 81 CURVE SMOOTH",
"74 115 OFFCURVE",
"86 133 OFFCURVE",
"111 133 CURVE SMOOTH",
"135 133 OFFCURVE",
"147 115 OFFCURVE",
"147 81 CURVE SMOOTH",
"147 47 OFFCURVE",
"135 29 OFFCURVE",
"111 29 CURVE SMOOTH"
);
},
{
closed = 1;
nodes = (
"86 418 OFFCURVE",
"74 435 OFFCURVE",
"74 469 CURVE SMOOTH",
"74 503 OFFCURVE",
"86 521 OFFCURVE",
"111 521 CURVE SMOOTH",
"135 521 OFFCURVE",
"147 503 OFFCURVE",
"147 469 CURVE SMOOTH",
"147 435 OFFCURVE",
"135 418 OFFCURVE",
"111 418 CURVE SMOOTH"
);
}
);
width = 502;
},
{
anchors = (
{
name = bottom;
position = "{541, 0}";
},
{
name = top;
position = "{314, 536}";
},
{
name = top2;
position = "{532, 536}";
}
);
layerId = "5B84B61E-AB9F-4F38-98DA-7F1AA4E54ED0";
paths = (
{
closed = 1;
nodes = (
"225 -12 OFFCURVE",
"263 37 OFFCURVE",
"263 122 CURVE SMOOTH",
"263 450 LINE",
"280 482 OFFCURVE",
"307 501 OFFCURVE",
"333 501 CURVE SMOOTH",
"363 501 OFFCURVE",
"379 476 OFFCURVE",
"379 437 CURVE SMOOTH",
"379 -6 LINE",
"490 -6 LINE",
"541 65 LINE",
"541 414 LINE SMOOTH",
"541 520 OFFCURVE",
"475 562 OFFCURVE",
"382 562 CURVE SMOOTH",
"312 562 OFFCURVE",
"275 538 OFFCURVE",
"251 500 CURVE",
"233 540 OFFCURVE",
"198 562 OFFCURVE",
"147 562 CURVE SMOOTH",
"81 562 OFFCURVE",
"43 525 OFFCURVE",
"43 458 CURVE SMOOTH",
"43 393 OFFCURVE",
"79 366 OFFCURVE",
"108 366 CURVE SMOOTH",
"110 366 OFFCURVE",
"111 366 OFFCURVE",
"113 367 CURVE",
"101 387 LINE",
"101 165 LINE",
"113 184 LINE",
"112 184 OFFCURVE",
"112 184 OFFCURVE",
"110 184 CURVE SMOOTH",
"81 184 OFFCURVE",
"43 158 OFFCURVE",
"43 92 CURVE SMOOTH",
"43 25 OFFCURVE",
"81 -12 OFFCURVE",
"148 -12 CURVE SMOOTH"
);
},
{
closed = 1;
nodes = (
"100 41 OFFCURVE",
"88 59 OFFCURVE",
"88 90 CURVE SMOOTH",
"88 121 OFFCURVE",
"100 139 OFFCURVE",
"127 139 CURVE SMOOTH",
"154 139 OFFCURVE",
"166 121 OFFCURVE",
"166 90 CURVE SMOOTH",
"166 59 OFFCURVE",
"154 41 OFFCURVE",
"127 41 CURVE SMOOTH"
);
},
{
closed = 1;
nodes = (
"100 411 OFFCURVE",
"88 429 OFFCURVE",
"88 460 CURVE SMOOTH",
"88 491 OFFCURVE",
"100 509 OFFCURVE",
"127 509 CURVE SMOOTH",
"154 509 OFFCURVE",
"166 491 OFFCURVE",
"166 460 CURVE SMOOTH",
"166 429 OFFCURVE",
"154 411 OFFCURVE",
"127 411 CURVE SMOOTH"
);
}
);
width = 594;
}
);
note = uni0E81;
unicode = 0E81;
},
{
glyphname = "khoKhai-lao";
lastChange = "2017-06-02 15:50:30 +0000";
layers = (
{
anchors = (
{
name = bottom;
position = "{428, 0}";
},
{
name = top;
position = "{271, 536}";
},
{
name = top2;
position = "{428, 536}";
}
);
layerId = "169B4CCF-67AF-4042-AA6F-C8E438F95C30";
paths = (
{
closed = 1;
nodes = (
"244 -10 OFFCURVE",
"308 62 OFFCURVE",
"371 62 CURVE SMOOTH",
"408 62 OFFCURVE",
"423 38 OFFCURVE",
"423 -10 CURVE",
"439 -10 OFFCURVE",
"448 -1 OFFCURVE",
"448 20 CURVE SMOOTH",
"448 58 OFFCURVE",
"419 87 OFFCURVE",
"373 87 CURVE SMOOTH",
"300 87 OFFCURVE",
"234 15 OFFCURVE",
"155 15 CURVE SMOOTH",
"114 15 OFFCURVE",
"86 34 OFFCURVE",
"86 76 CURVE SMOOTH",
"86 144 OFFCURVE",
"160 174 OFFCURVE",
"255 216 CURVE SMOOTH",
"364 264 OFFCURVE",
"446 302 OFFCURVE",
"446 404 CURVE SMOOTH",
"446 496 OFFCURVE",
"379 552 OFFCURVE",
"261 552 CURVE SMOOTH",
"131 552 OFFCURVE",
"57 483 OFFCURVE",
"57 403 CURVE SMOOTH",
"57 397 LINE SMOOTH",
"57 336 OFFCURVE",
"93 300 OFFCURVE",
"148 300 CURVE SMOOTH",
"199 300 OFFCURVE",
"228 331 OFFCURVE",
"228 375 CURVE SMOOTH",
"228 420 OFFCURVE",
"198 451 OFFCURVE",
"150 451 CURVE SMOOTH",
"124 451 OFFCURVE",
"103 442 OFFCURVE",
"89 425 CURVE",
"86 426 LINE",
"100 480 OFFCURVE",
"154 527 OFFCURVE",
"257 527 CURVE SMOOTH",
"354 527 OFFCURVE",
"415 486 OFFCURVE",
"415 402 CURVE SMOOTH",
"415 319 OFFCURVE",
"354 288 OFFCURVE",
"248 242 CURVE SMOOTH",
"152 200 OFFCURVE",
"55 162 OFFCURVE",
"55 76 CURVE SMOOTH",
"55 22 OFFCURVE",
"94 -10 OFFCURVE",
"154 -10 CURVE SMOOTH"
);
},
{
closed = 1;
nodes = (
"113 324 OFFCURVE",
"93 342 OFFCURVE",
"93 376 CURVE SMOOTH",
"93 409 OFFCURVE",
"113 428 OFFCURVE",
"147 428 CURVE SMOOTH",
"180 428 OFFCURVE",
"200 409 OFFCURVE",
"200 376 CURVE SMOOTH",
"200 343 OFFCURVE",
"179 324 OFFCURVE",
"146 324 CURVE SMOOTH"
);
}
);
width = 503;
},
{
anchors = (
{
name = bottom;
position = "{495, 0}";
},
{
name = top;
position = "{302, 536}";
},
{
name = top2;
position = "{496, 536}";
}
);
layerId = "A12FF52C-901E-4F1C-B651-FD65F325A5D0";
paths = (
{
closed = 1;
nodes = (
"265 -10 OFFCURVE",
"329 63 OFFCURVE",
"384 63 CURVE SMOOTH",
"415 63 OFFCURVE",
"423 38 OFFCURVE",
"423 -10 CURVE",
"471 -9 OFFCURVE",
"514 -1 OFFCURVE",
"514 52 CURVE SMOOTH",
"514 108 OFFCURVE",
"466 140 OFFCURVE",
"412 140 CURVE SMOOTH",
"315 140 OFFCURVE",
"257 39 OFFCURVE",
"187 39 CURVE SMOOTH",
"157 39 OFFCURVE",
"142 58 OFFCURVE",
"142 88 CURVE SMOOTH",
"142 156 OFFCURVE",
"220 183 OFFCURVE",
"305 211 CURVE SMOOTH",
"406 244 OFFCURVE",
"515 281 OFFCURVE",
"515 394 CURVE SMOOTH",
"515 497 OFFCURVE",
"424 560 OFFCURVE",
"278 560 CURVE SMOOTH",
"144 560 OFFCURVE",
"50 507 OFFCURVE",
"50 410 CURVE SMOOTH",
"50 390 LINE SMOOTH",
"50 321 OFFCURVE",
"92 291 OFFCURVE",
"150 291 CURVE SMOOTH",
"214 291 OFFCURVE",
"247 328 OFFCURVE",
"247 384 CURVE SMOOTH",
"247 440 OFFCURVE",
"214 476 OFFCURVE",
"152 476 CURVE SMOOTH",
"137 476 OFFCURVE",
"132 474 OFFCURVE",
"124 472 CURVE",
"131 469 LINE",
"131 486 OFFCURVE",
"197 511 OFFCURVE",
"272 511 CURVE SMOOTH",
"361 511 OFFCURVE",
"423 475 OFFCURVE",
"423 399 CURVE SMOOTH",
"423 319 OFFCURVE",
"354 284 OFFCURVE",
"276 257 CURVE SMOOTH",
"173 222 OFFCURVE",
"50 196 OFFCURVE",
"50 89 CURVE SMOOTH",
"50 20 OFFCURVE",
"100 -10 OFFCURVE",
"165 -10 CURVE SMOOTH"
);
},
{
closed = 1;
nodes = (
"116 333 OFFCURVE",
"101 353 OFFCURVE",
"101 384 CURVE SMOOTH",
"101 415 OFFCURVE",
"116 435 OFFCURVE",
"150 435 CURVE SMOOTH",
"184 435 OFFCURVE",
"199 415 OFFCURVE",
"199 383 CURVE SMOOTH",
"199 352 OFFCURVE",
"185 333 OFFCURVE",
"151 333 CURVE SMOOTH"
);
}
);
width = 560;
},
{
anchors = (
{
name = bottom;
position = "{574, 0}";
},
{
name = top;
position = "{324, 536}";
},
{
name = top2;
position = "{564, 536}";
}
);
layerId = "528596C4-5B9B-4A0D-91B5-66A38EFFCD2C";
paths = (
{
closed = 1;
nodes = (
"292 -12 OFFCURVE",
"368 59 OFFCURVE",
"428 59 CURVE SMOOTH",
"471 59 OFFCURVE",
"472 23 OFFCURVE",
"472 -12 CURVE",
"567 -12 OFFCURVE",
"598 50 OFFCURVE",
"598 101 CURVE SMOOTH",
"598 156 OFFCURVE",
"561 198 OFFCURVE",
"489 198 CURVE SMOOTH",
"361 198 OFFCURVE",
"320 65 OFFCURVE",
"250 65 CURVE SMOOTH",
"226 65 OFFCURVE",
"204 80 OFFCURVE",
"204 112 CURVE SMOOTH",
"204 157 OFFCURVE",
"248 179 OFFCURVE",
"307 196 CURVE SMOOTH",
"418 228 OFFCURVE",
"579 250 OFFCURVE",
"579 396 CURVE SMOOTH",
"579 493 OFFCURVE",
"507 562 OFFCURVE",
"304 562 CURVE SMOOTH",
"154 562 OFFCURVE",
"45 524 OFFCURVE",
"45 417 CURVE SMOOTH",
"45 407 LINE SMOOTH",
"45 319 OFFCURVE",
"106 291 OFFCURVE",
"167 291 CURVE SMOOTH",
"239 291 OFFCURVE",
"287 330 OFFCURVE",
"287 393 CURVE SMOOTH",
"287 445 OFFCURVE",
"253 488 OFFCURVE",
"206 488 CURVE SMOOTH",
"196 488 OFFCURVE",
"190 486 OFFCURVE",
"182 483 CURVE",
"189 478 LINE",
"203 500 OFFCURVE",
"261 508 OFFCURVE",
"291 508 CURVE SMOOTH",
"366 508 OFFCURVE",
"392 458 OFFCURVE",
"392 416 CURVE SMOOTH",
"392 356 OFFCURVE",
"338 324 OFFCURVE",
"273 298 CURVE SMOOTH",
"168 256 OFFCURVE",
"31 226 OFFCURVE",
"31 113 CURVE SMOOTH",
"31 48 OFFCURVE",
"76 -12 OFFCURVE",
"179 -12 CURVE SMOOTH"
);
},
{
closed = 1;
nodes = (
"151 345 OFFCURVE",
"136 363 OFFCURVE",
"136 394 CURVE SMOOTH",
"136 425 OFFCURVE",
"151 443 OFFCURVE",
"184 443 CURVE SMOOTH",
"217 443 OFFCURVE",
"232 425 OFFCURVE",
"232 394 CURVE SMOOTH",
"232 363 OFFCURVE",
"217 345 OFFCURVE",
"184 345 CURVE SMOOTH"
);
}
);
width = 640;
},
{
anchors = (
{
name = bottom;
position = "{332, 0}";
},
{
name = top;
position = "{209, 536}";
},
{
name = top2;
position = "{332, 536}";
}
);
layerId = "15894915-CD0E-4C5A-A33F-EBC469CF719E";
paths = (
{
closed = 1;
nodes = (
"187 -10 OFFCURVE",
"236 62 OFFCURVE",
"283 62 CURVE SMOOTH",
"311 62 OFFCURVE",
"321 38 OFFCURVE",
"321 -10 CURVE",
"338 -10 OFFCURVE",
"347 -1 OFFCURVE",
"347 21 CURVE SMOOTH",
"347 58 OFFCURVE",
"323 87 OFFCURVE",
"287 87 CURVE SMOOTH",
"230 87 OFFCURVE",
"180 15 OFFCURVE",
"121 15 CURVE SMOOTH",
"91 15 OFFCURVE",
"71 34 OFFCURVE",
"71 75 CURVE SMOOTH",
"71 144 OFFCURVE",
"127 174 OFFCURVE",
"199 216 CURVE SMOOTH",
"285 266 OFFCURVE",
"346 305 OFFCURVE",
"346 403 CURVE SMOOTH",
"346 496 OFFCURVE",
"292 552 OFFCURVE",
"201 552 CURVE SMOOTH",
"100 552 OFFCURVE",
"42 483 OFFCURVE",
"42 403 CURVE SMOOTH",
"42 397 LINE SMOOTH",
"42 336 OFFCURVE",
"70 300 OFFCURVE",
"113 300 CURVE SMOOTH",
"153 300 OFFCURVE",
"175 331 OFFCURVE",
"175 375 CURVE SMOOTH",
"175 420 OFFCURVE",
"152 451 OFFCURVE",
"115 451 CURVE SMOOTH",
"95 451 OFFCURVE",
"81 442 OFFCURVE",
"71 425 CURVE",
"70 426 LINE",
"79 480 OFFCURVE",
"121 527 OFFCURVE",
"198 527 CURVE SMOOTH",
"270 527 OFFCURVE",
"316 486 OFFCURVE",
"316 403 CURVE SMOOTH",
"316 317 OFFCURVE",
"267 288 OFFCURVE",
"191 242 CURVE SMOOTH",
"118 198 OFFCURVE",
"41 162 OFFCURVE",
"41 76 CURVE SMOOTH",
"41 22 OFFCURVE",
"72 -10 OFFCURVE",
"118 -10 CURVE SMOOTH"
);
},
{
closed = 1;
nodes = (
"86 324 OFFCURVE",
"71 342 OFFCURVE",
"71 376 CURVE SMOOTH",
"71 409 OFFCURVE",
"86 428 OFFCURVE",
"112 428 CURVE SMOOTH",
"137 428 OFFCURVE",
"152 409 OFFCURVE",
"152 376 CURVE SMOOTH",
"152 343 OFFCURVE",
"136 324 OFFCURVE",
"111 324 CURVE SMOOTH"
);
}
);
width = 388;
},
{
anchors = (
{
name = bottom;
position = "{395, 0}";
},
{
name = top;
position = "{235, 536}";
},
{
name = top2;
position = "{393, 536}";
}
);
layerId = "004437BA-C458-42A1-B8EC-F9F2993A06FB";
paths = (
{
closed = 1;
nodes = (
"211 -10 OFFCURVE",
"258 63 OFFCURVE",
"302 63 CURVE SMOOTH",
"328 63 OFFCURVE",
"333 38 OFFCURVE",
"333 -10 CURVE",
"380 -9 OFFCURVE",
"410 -1 OFFCURVE",
"410 52 CURVE SMOOTH",
"410 108 OFFCURVE",
"376 140 OFFCURVE",
"331 140 CURVE SMOOTH",
"250 140 OFFCURVE",
"210 39 OFFCURVE",
"157 39 CURVE SMOOTH",
"135 39 OFFCURVE",
"122 57 OFFCURVE",
"122 90 CURVE SMOOTH",
"122 157 OFFCURVE",
"177 184 OFFCURVE",
"233 210 CURVE SMOOTH",
"311 246 OFFCURVE",
"406 278 OFFCURVE",
"406 396 CURVE SMOOTH",
"406 495 OFFCURVE",
"341 560 OFFCURVE",
"220 560 CURVE SMOOTH",
"111 560 OFFCURVE",
"37 507 OFFCURVE",
"37 410 CURVE SMOOTH",
"37 390 LINE SMOOTH",
"37 321 OFFCURVE",
"73 291 OFFCURVE",
"118 291 CURVE SMOOTH",
"169 291 OFFCURVE",
"197 328 OFFCURVE",
"197 385 CURVE SMOOTH",
"197 440 OFFCURVE",
"171 476 OFFCURVE",
"127 476 CURVE SMOOTH",
"117 476 OFFCURVE",
"114 474 OFFCURVE",
"108 472 CURVE",
"113 469 LINE",
"116 486 OFFCURVE",
"163 511 OFFCURVE",
"214 511 CURVE SMOOTH",
"276 511 OFFCURVE",
"315 473 OFFCURVE",
"315 400 CURVE SMOOTH",
"315 319 OFFCURVE",
"266 284 OFFCURVE",
"209 257 CURVE SMOOTH",
"129 219 OFFCURVE",
"34 196 OFFCURVE",
"34 89 CURVE SMOOTH",
"34 20 OFFCURVE",
"73 -10 OFFCURVE",
"127 -10 CURVE SMOOTH"
);
},
{
closed = 1;
nodes = (
"96 333 OFFCURVE",
"85 353 OFFCURVE",
"85 384 CURVE SMOOTH",
"85 415 OFFCURVE",
"96 435 OFFCURVE",
"122 435 CURVE SMOOTH",
"148 435 OFFCURVE",
"159 415 OFFCURVE",
"159 383 CURVE SMOOTH",
"159 352 OFFCURVE",
"148 333 OFFCURVE",
"123 333 CURVE SMOOTH"
);
}
);
width = 444;
},
{
anchors = (
{
name = bottom;
position = "{473, 0}";
},
{
name = top;
position = "{264, 536}";
},
{
name = top2;
position = "{463, 536}";
}
);
layerId = "5B84B61E-AB9F-4F38-98DA-7F1AA4E54ED0";
paths = (
{
closed = 1;
nodes = (
"236 -12 OFFCURVE",
"301 59 OFFCURVE",
"351 59 CURVE SMOOTH",
"387 59 OFFCURVE",
"387 24 OFFCURVE",
"387 -12 CURVE",
"469 -12 OFFCURVE",
"493 45 OFFCURVE",
"493 96 CURVE SMOOTH",
"493 152 OFFCURVE",
"464 192 OFFCURVE",
"404 192 CURVE SMOOTH",
"297 192 OFFCURVE",
"264 62 OFFCURVE",
"208 62 CURVE SMOOTH",
"189 62 OFFCURVE",
"172 78 OFFCURVE",
"172 110 CURVE SMOOTH",
"172 162 OFFCURVE",
"215 183 OFFCURVE",
"271 203 CURVE SMOOTH",
"359 235 OFFCURVE",
"475 260 OFFCURVE",
"475 397 CURVE SMOOTH",
"475 491 OFFCURVE",
"420 562 OFFCURVE",
"251 562 CURVE SMOOTH",
"125 562 OFFCURVE",
"36 522 OFFCURVE",
"36 416 CURVE SMOOTH",
"36 405 LINE SMOOTH",
"36 319 OFFCURVE",
"87 291 OFFCURVE",
"137 291 CURVE SMOOTH",
"196 291 OFFCURVE",
"236 329 OFFCURVE",
"236 395 CURVE SMOOTH",
"236 444 OFFCURVE",
"214 487 OFFCURVE",
"165 487 CURVE SMOOTH",
"154 487 OFFCURVE",
"147 485 OFFCURVE",
"143 482 CURVE",
"149 480 LINE",
"171 501 OFFCURVE",
"198 508 OFFCURVE",
"222 508 CURVE SMOOTH",
"271 508 OFFCURVE",
"314 477 OFFCURVE",
"314 414 CURVE SMOOTH",
"314 353 OFFCURVE",
"274 321 OFFCURVE",
"228 297 CURVE SMOOTH",
"141 252 OFFCURVE",
"23 225 OFFCURVE",
"23 110 CURVE SMOOTH",
"23 47 OFFCURVE",
"58 -12 OFFCURVE",
"143 -12 CURVE SMOOTH"
);
},
{
closed = 1;
nodes = (
"126 344 OFFCURVE",
"114 362 OFFCURVE",
"114 393 CURVE SMOOTH",
"114 424 OFFCURVE",
"126 442 OFFCURVE",
"152 442 CURVE SMOOTH",
"179 442 OFFCURVE",
"191 424 OFFCURVE",
"191 393 CURVE SMOOTH",
"191 362 OFFCURVE",
"179 344 OFFCURVE",
"152 344 CURVE SMOOTH"
);
}
);
width = 526;
}
);
note = uni0E82;
unicode = 0E82;
},
{
glyphname = "khoKhuay-lao";
lastChange = "2017-06-02 15:50:30 +0000";
layers = (
{
anchors = (
{
name = bottom;
position = "{442, 0}";
},
{
name = top;
position = "{266, 536}";
},
{
name = top2;
position = "{442, 536}";
}
);
layerId = "169B4CCF-67AF-4042-AA6F-C8E438F95C30";
paths = (
{
closed = 1;
nodes = (
"197 -10 OFFCURVE",
"226 21 OFFCURVE",
"226 65 CURVE SMOOTH",
"226 110 OFFCURVE",
"196 141 OFFCURVE",
"148 141 CURVE SMOOTH",
"122 141 OFFCURVE",
"101 132 OFFCURVE",
"87 115 CURVE",
"84 116 LINE",
"88 172 OFFCURVE",
"141 260 OFFCURVE",
"221 260 CURVE SMOOTH",
"263 260 LINE",
"263 283 LINE",
"221 283 LINE SMOOTH",
"131 283 OFFCURVE",
"87 321 OFFCURVE",
"87 397 CURVE SMOOTH",
"87 473 OFFCURVE",
"131 527 OFFCURVE",
"251 527 CURVE SMOOTH",
"362 527 OFFCURVE",
"414 480 OFFCURVE",
"414 371 CURVE SMOOTH",
"414 -6 LINE",
"422 -6 LINE",
"442 19 LINE",
"442 366 LINE SMOOTH",
"442 503 OFFCURVE",
"373 552 OFFCURVE",
"252 552 CURVE SMOOTH",
"134 552 OFFCURVE",
"56 505 OFFCURVE",
"56 400 CURVE SMOOTH",
"56 317 OFFCURVE",
"105 277 OFFCURVE",
"157 270 CURVE",
"157 267 LINE",
"95 244 OFFCURVE",
"55 167 OFFCURVE",
"55 93 CURVE SMOOTH",
"55 87 LINE SMOOTH",
"55 26 OFFCURVE",
"91 -10 OFFCURVE",
"146 -10 CURVE SMOOTH"
);
},
{
closed = 1;
nodes = (
"111 14 OFFCURVE",
"91 32 OFFCURVE",
"91 66 CURVE SMOOTH",
"91 99 OFFCURVE",
"111 118 OFFCURVE",
"145 118 CURVE SMOOTH",
"178 118 OFFCURVE",
"198 99 OFFCURVE",
"198 66 CURVE SMOOTH",
"198 33 OFFCURVE",
"177 14 OFFCURVE",
"144 14 CURVE SMOOTH"
);
}
);
width = 517;
},
{
anchors = (
{
name = bottom;
position = "{498, 0}";
},
{
name = top;
position = "{291, 536}";
},
{
name = top2;
position = "{498, 536}";
}
);
layerId = "A12FF52C-901E-4F1C-B651-FD65F325A5D0";
paths = (
{
closed = 1;
nodes = (
"209 -10 OFFCURVE",
"246 25 OFFCURVE",
"246 82 CURVE SMOOTH",
"246 139 OFFCURVE",
"209 175 OFFCURVE",
"160 175 CURVE SMOOTH",
"146 175 OFFCURVE",
"138 172 OFFCURVE",
"131 168 CURVE",
"139 158 LINE",
"132 188 OFFCURVE",
"157 254 OFFCURVE",
"223 254 CURVE SMOOTH",
"246 254 LINE",
"246 303 LINE",
"223 303 LINE SMOOTH",
"171 303 OFFCURVE",
"137 328 OFFCURVE",
"137 396 CURVE SMOOTH",
"137 479 OFFCURVE",
"188 511 OFFCURVE",
"268 511 CURVE SMOOTH",
"363 511 OFFCURVE",
"406 466 OFFCURVE",
"406 366 CURVE SMOOTH",
"406 -6 LINE",
"444 -6 LINE",
"498 52 LINE",
"498 384 LINE SMOOTH",
"498 501 OFFCURVE",
"416 560 OFFCURVE",
"270 560 CURVE SMOOTH",
"127 560 OFFCURVE",
"45 504 OFFCURVE",
"45 400 CURVE SMOOTH",
"45 333 OFFCURVE",
"80 301 OFFCURVE",
"133 279 CURVE",
"133 276 LINE",
"88 252 OFFCURVE",
"45 222 OFFCURVE",
"45 133 CURVE SMOOTH",
"45 94 LINE SMOOTH",
"45 26 OFFCURVE",
"85 -10 OFFCURVE",
"148 -10 CURVE SMOOTH"
);
},
{
closed = 1;
nodes = (
"120 31 OFFCURVE",
"102 48 OFFCURVE",
"102 82 CURVE SMOOTH",
"102 116 OFFCURVE",
"119 133 OFFCURVE",
"150 133 CURVE SMOOTH",
"182 133 OFFCURVE",
"199 115 OFFCURVE",
"199 81 CURVE SMOOTH",
"199 47 OFFCURVE",
"183 31 OFFCURVE",
"152 31 CURVE SMOOTH"
);
}
);
width = 563;
},
{
anchors = (
{
name = bottom;
position = "{585, 0}";
},
{
name = top;
position = "{340, 536}";
},
{
name = top2;
position = "{575, 536}";
}
);
layerId = "528596C4-5B9B-4A0D-91B5-66A38EFFCD2C";
paths = (
{
closed = 1;
nodes = (
"288 -12 OFFCURVE",
"333 21 OFFCURVE",
"333 86 CURVE SMOOTH",
"333 151 OFFCURVE",
"288 177 OFFCURVE",
"227 177 CURVE SMOOTH",
"221 177 OFFCURVE",
"214 177 OFFCURVE",
"208 177 CURVE",
"228 164 LINE",
"229 197 OFFCURVE",
"237 240 OFFCURVE",
"316 240 CURVE SMOOTH",
"341 240 LINE",
"341 301 LINE",
"298 301 LINE SMOOTH",
"257 301 OFFCURVE",
"234 327 OFFCURVE",
"234 400 CURVE SMOOTH",
"234 486 OFFCURVE",
"266 508 OFFCURVE",
"315 508 CURVE SMOOTH",
"365 508 OFFCURVE",
"396 485 OFFCURVE",
"396 408 CURVE SMOOTH",
"396 -6 LINE",
"523 -6 LINE",
"585 66 LINE",
"585 374 LINE SMOOTH",
"585 510 OFFCURVE",
"512 562 OFFCURVE",
"320 562 CURVE SMOOTH",
"137 562 OFFCURVE",
"44 515 OFFCURVE",
"44 402 CURVE SMOOTH",
"44 335 OFFCURVE",
"76 290 OFFCURVE",
"152 270 CURVE",
"152 266 LINE",
"81 249 OFFCURVE",
"41 189 OFFCURVE",
"41 130 CURVE SMOOTH",
"41 122 LINE SMOOTH",
"41 40 OFFCURVE",
"107 -12 OFFCURVE",
"208 -12 CURVE SMOOTH"
);
},
{
closed = 1;
nodes = (
"197 35 OFFCURVE",
"182 53 OFFCURVE",
"182 84 CURVE SMOOTH",
"182 115 OFFCURVE",
"197 133 OFFCURVE",
"230 133 CURVE SMOOTH",
"263 133 OFFCURVE",
"278 115 OFFCURVE",
"278 84 CURVE SMOOTH",
"278 53 OFFCURVE",
"263 35 OFFCURVE",
"230 35 CURVE SMOOTH"
);
}
);
width = 651;
},
{
anchors = (
{
name = bottom;
position = "{342, 0}";
},
{
name = top;
position = "{205, 536}";
},
{
name = top2;
position = "{342, 536}";
}
);
layerId = "15894915-CD0E-4C5A-A33F-EBC469CF719E";
paths = (
{
closed = 1;
nodes = (
"151 -10 OFFCURVE",
"174 21 OFFCURVE",
"174 65 CURVE SMOOTH",
"174 110 OFFCURVE",
"151 141 OFFCURVE",
"114 141 CURVE SMOOTH",
"95 141 OFFCURVE",
"81 132 OFFCURVE",
"71 115 CURVE",
"70 116 LINE",
"72 172 OFFCURVE",
"109 260 OFFCURVE",
"168 260 CURVE SMOOTH",
"198 260 LINE",
"198 283 LINE",
"168 283 LINE SMOOTH",
"104 283 OFFCURVE",
"72 321 OFFCURVE",
"72 397 CURVE SMOOTH",
"72 474 OFFCURVE",
"105 527 OFFCURVE",
"193 527 CURVE SMOOTH",
"275 527 OFFCURVE",
"314 480 OFFCURVE",
"314 371 CURVE SMOOTH",
"314 -6 LINE",
"323 -6 LINE",
"342 19 LINE",
"342 366 LINE SMOOTH",
"342 504 OFFCURVE",
"288 552 OFFCURVE",
"194 552 CURVE SMOOTH",
"102 552 OFFCURVE",
"42 506 OFFCURVE",
"42 400 CURVE SMOOTH",
"42 321 OFFCURVE",
"75 278 OFFCURVE",
"117 270 CURVE",
"117 267 LINE",
"72 244 OFFCURVE",
"41 167 OFFCURVE",
"41 93 CURVE SMOOTH",
"41 87 LINE SMOOTH",
"41 26 OFFCURVE",
"69 -10 OFFCURVE",
"111 -10 CURVE SMOOTH"
);
},
{
closed = 1;
nodes = (
"86 14 OFFCURVE",
"71 32 OFFCURVE",
"71 66 CURVE SMOOTH",
"71 99 OFFCURVE",
"85 118 OFFCURVE",
"111 118 CURVE SMOOTH",
"136 118 OFFCURVE",
"151 99 OFFCURVE",
"151 66 CURVE SMOOTH",
"151 32 OFFCURVE",
"135 14 OFFCURVE",
"111 14 CURVE SMOOTH"
);
}
);
width = 398;
},
{
anchors = (
{
name = bottom;
position = "{398, 0}";
},
{
name = top;
position = "{232, 536}";
},
{
name = top2;
position = "{396, 536}";
}
);
layerId = "004437BA-C458-42A1-B8EC-F9F2993A06FB";
paths = (
{
closed = 1;
nodes = (
"178 -10 OFFCURVE",
"206 25 OFFCURVE",
"206 81 CURVE SMOOTH",
"206 139 OFFCURVE",
"177 175 OFFCURVE",
"138 175 CURVE SMOOTH",
"127 175 OFFCURVE",
"122 172 OFFCURVE",
"117 168 CURVE",
"126 158 LINE",
"122 188 OFFCURVE",
"137 254 OFFCURVE",
"190 254 CURVE SMOOTH",
"208 254 LINE",
"208 303 LINE",
"186 303 LINE SMOOTH",
"149 303 OFFCURVE",
"126 329 OFFCURVE",
"126 396 CURVE SMOOTH",
"126 478 OFFCURVE",
"160 511 OFFCURVE",
"214 511 CURVE SMOOTH",
"276 511 OFFCURVE",
"306 466 OFFCURVE",
"306 367 CURVE SMOOTH",
"306 -6 LINE",
"355 -6 LINE",
"398 52 LINE",
"398 385 LINE SMOOTH",
"398 501 OFFCURVE",
"338 560 OFFCURVE",
"217 560 CURVE SMOOTH",
"100 560 OFFCURVE",
"34 505 OFFCURVE",
"34 400 CURVE SMOOTH",
"34 334 OFFCURVE",
"60 301 OFFCURVE",
"105 279 CURVE",
"105 276 LINE",
"65 252 OFFCURVE",
"33 222 OFFCURVE",
"33 133 CURVE SMOOTH",
"33 94 LINE SMOOTH",
"33 26 OFFCURVE",
"70 -10 OFFCURVE",
"124 -10 CURVE SMOOTH"
);
},
{
closed = 1;
nodes = (
"108 31 OFFCURVE",
"95 48 OFFCURVE",
"95 82 CURVE SMOOTH",
"95 116 OFFCURVE",
"108 133 OFFCURVE",
"132 133 CURVE SMOOTH",
"156 133 OFFCURVE",
"169 115 OFFCURVE",
"169 81 CURVE SMOOTH",
"169 47 OFFCURVE",
"157 31 OFFCURVE",
"133 31 CURVE SMOOTH"
);
}
);
width = 448;
},
{
anchors = (
{
name = bottom;
position = "{483, 0}";
},
{
name = top;
position = "{281, 536}";
},
{
name = top2;
position = "{474, 536}";
}
);
layerId = "5B84B61E-AB9F-4F38-98DA-7F1AA4E54ED0";
paths = (
{
closed = 1;
nodes = (
"242 -12 OFFCURVE",
"279 21 OFFCURVE",
"279 85 CURVE SMOOTH",
"279 150 OFFCURVE",
"241 177 OFFCURVE",
"193 177 CURVE SMOOTH",
"184 177 OFFCURVE",
"182 176 OFFCURVE",
"177 176 CURVE",
"194 164 LINE",
"194 196 OFFCURVE",
"201 241 OFFCURVE",
"266 241 CURVE SMOOTH",
"286 241 LINE",
"286 301 LINE",
"249 301 LINE SMOOTH",
"217 301 OFFCURVE",
"198 327 OFFCURVE",
"198 400 CURVE SMOOTH",
"198 485 OFFCURVE",
"224 508 OFFCURVE",
"260 508 CURVE SMOOTH",
"296 508 OFFCURVE",
"321 484 OFFCURVE",
"321 409 CURVE SMOOTH",
"321 -6 LINE",
"432 -6 LINE",
"483 65 LINE",
"483 389 LINE SMOOTH",
"483 513 OFFCURVE",
"421 562 OFFCURVE",
"265 562 CURVE SMOOTH",
"111 562 OFFCURVE",
"36 514 OFFCURVE",
"36 401 CURVE SMOOTH",
"36 332 OFFCURVE",
"64 290 OFFCURVE",
"125 271 CURVE",
"125 267 LINE",
"65 249 OFFCURVE",
"33 192 OFFCURVE",
"33 130 CURVE SMOOTH",
"33 119 LINE SMOOTH",
"33 39 OFFCURVE",
"89 -12 OFFCURVE",
"174 -12 CURVE SMOOTH"
);
},
{
closed = 1;
nodes = (
"168 35 OFFCURVE",
"156 52 OFFCURVE",
"156 84 CURVE SMOOTH",
"156 115 OFFCURVE",
"168 133 OFFCURVE",
"195 133 CURVE SMOOTH",
"222 133 OFFCURVE",
"234 115 OFFCURVE",
"234 84 CURVE SMOOTH",
"234 53 OFFCURVE",
"222 35 OFFCURVE",
"195 35 CURVE SMOOTH"
);
}
);
width = 536;
}
);
note = uni0E84;
unicode = 0E84;
},
{
glyphname = "ngoNgu-lao";
lastChange = "2017-06-02 15:50:30 +0000";
layers = (
{
anchors = (
{
name = bottom;
position = "{384, -171}";
},
{
name = top;
position = "{250, 536}";
},
{
name = top2;
position = "{394, 536}";
}
);
layerId = "169B4CCF-67AF-4042-AA6F-C8E438F95C30";
paths = (
{
closed = 1;
nodes = (
"333 -171 OFFCURVE",
"394 -114 OFFCURVE",
"394 -5 CURVE SMOOTH",
"394 379 LINE SMOOTH",
"394 488 OFFCURVE",
"337 552 OFFCURVE",
"227 552 CURVE SMOOTH",
"124 552 OFFCURVE",
"56 495 OFFCURVE",
"56 399 CURVE SMOOTH",
"56 388 LINE SMOOTH",
"56 335 OFFCURVE",
"89 307 OFFCURVE",
"136 307 CURVE SMOOTH",
"189 307 OFFCURVE",
"213 343 OFFCURVE",
"213 385 CURVE SMOOTH",
"213 431 OFFCURVE",
"183 458 OFFCURVE",
"138 458 CURVE SMOOTH",
"123 458 OFFCURVE",
"106 455 OFFCURVE",
"92 447 CURVE",
"91 448 LINE",
"110 497 OFFCURVE",
"160 527 OFFCURVE",
"227 527 CURVE SMOOTH",
"317 527 OFFCURVE",
"366 473 OFFCURVE",
"366 381 CURVE SMOOTH",
"366 -3 LINE SMOOTH",
"366 -98 OFFCURVE",
"318 -146 OFFCURVE",
"218 -146 CURVE SMOOTH",
"127 -146 OFFCURVE",
"83 -107 OFFCURVE",
"83 -27 CURVE",
"61 -24 OFFCURVE",
"55 -33 OFFCURVE",
"55 -55 CURVE SMOOTH",
"55 -113 OFFCURVE",
"99 -171 OFFCURVE",
"217 -171 CURVE SMOOTH"
);
},
{
closed = 1;
nodes = (
"99 330 OFFCURVE",
"83 355 OFFCURVE",
"83 387 CURVE SMOOTH",
"83 419 OFFCURVE",
"99 436 OFFCURVE",
"134 436 CURVE SMOOTH",
"168 436 OFFCURVE",
"186 420 OFFCURVE",
"186 385 CURVE SMOOTH",
"186 354 OFFCURVE",
"172 330 OFFCURVE",
"136 330 CURVE SMOOTH"
);
}
);
width = 469;
},
{
anchors = (
{
name = bottom;
position = "{434, -170}";
},
{
name = top;
position = "{244, 536}";
},
{
name = top2;
position = "{445, 536}";
}
);
layerId = "A12FF52C-901E-4F1C-B651-FD65F325A5D0";
paths = (
{
closed = 1;
nodes = (
"360 -170 OFFCURVE",
"444 -110 OFFCURVE",
"444 5 CURVE SMOOTH",
"444 376 LINE SMOOTH",
"444 492 OFFCURVE",
"366 560 OFFCURVE",
"226 560 CURVE SMOOTH",
"96 560 OFFCURVE",
"30 502 OFFCURVE",
"30 409 CURVE SMOOTH",
"30 390 LINE SMOOTH",
"30 321 OFFCURVE",
"72 291 OFFCURVE",
"130 291 CURVE SMOOTH",
"194 291 OFFCURVE",
"227 328 OFFCURVE",
"227 384 CURVE SMOOTH",
"227 440 OFFCURVE",
"193 476 OFFCURVE",
"144 476 CURVE SMOOTH",
"132 476 OFFCURVE",
"120 474 OFFCURVE",
"114 471 CURVE",
"113 472 LINE",
"133 497 OFFCURVE",
"172 511 OFFCURVE",
"222 511 CURVE SMOOTH",
"313 511 OFFCURVE",
"352 466 OFFCURVE",
"352 367 CURVE SMOOTH",
"352 23 LINE SMOOTH",
"352 -75 OFFCURVE",
"309 -121 OFFCURVE",
"222 -121 CURVE SMOOTH",
"142 -121 OFFCURVE",
"110 -82 OFFCURVE",
"110 0 CURVE",
"53 0 OFFCURVE",
"30 -14 OFFCURVE",
"30 -52 CURVE SMOOTH",
"30 -120 OFFCURVE",
"104 -170 OFFCURVE",
"226 -170 CURVE SMOOTH"
);
},
{
closed = 1;
nodes = (
"96 333 OFFCURVE",
"81 353 OFFCURVE",
"81 384 CURVE SMOOTH",
"81 415 OFFCURVE",
"96 435 OFFCURVE",
"130 435 CURVE SMOOTH",
"164 435 OFFCURVE",
"179 415 OFFCURVE",
"179 383 CURVE SMOOTH",
"179 352 OFFCURVE",
"165 333 OFFCURVE",
"131 333 CURVE SMOOTH"
);
}
);
width = 509;
},
{
anchors = (
{
name = bottom;
position = "{536, -206}";
},
{
name = top;
position = "{306, 536}";
},
{
name = top2;
position = "{536, 536}";
}
);
layerId = "528596C4-5B9B-4A0D-91B5-66A38EFFCD2C";
paths = (
{
closed = 1;
nodes = (
"409 -206 OFFCURVE",
"546 -157 OFFCURVE",
"546 -31 CURVE SMOOTH",
"546 410 LINE SMOOTH",
"546 487 OFFCURVE",
"474 562 OFFCURVE",
"278 562 CURVE SMOOTH",
"116 562 OFFCURVE",
"42 511 OFFCURVE",
"42 401 CURVE SMOOTH",
"42 391 LINE SMOOTH",
"42 303 OFFCURVE",
"96 275 OFFCURVE",
"157 275 CURVE SMOOTH",
"231 275 OFFCURVE",
"261 317 OFFCURVE",
"261 374 CURVE SMOOTH",
"261 444 OFFCURVE",
"217 473 OFFCURVE",
"172 473 CURVE SMOOTH",
"164 473 OFFCURVE",
"152 472 OFFCURVE",
"143 467 CURVE",
"141 470 LINE",
"161 497 OFFCURVE",
"202 508 OFFCURVE",
"244 508 CURVE SMOOTH",
"333 508 OFFCURVE",
"357 457 OFFCURVE",
"357 414 CURVE SMOOTH",
"357 -18 LINE SMOOTH",
"357 -124 OFFCURVE",
"299 -141 OFFCURVE",
"257 -141 CURVE SMOOTH",
"191 -141 OFFCURVE",
"156 -99 OFFCURVE",
"156 -2 CURVE",
"67 -2 OFFCURVE",
"26 -32 OFFCURVE",
"26 -84 CURVE SMOOTH",
"26 -178 OFFCURVE",
"158 -206 OFFCURVE",
"266 -206 CURVE SMOOTH"
);
},
{
closed = 1;
nodes = (
"123 329 OFFCURVE",
"108 347 OFFCURVE",
"108 378 CURVE SMOOTH",
"108 409 OFFCURVE",
"123 427 OFFCURVE",
"156 427 CURVE SMOOTH",
"189 427 OFFCURVE",
"204 409 OFFCURVE",
"204 378 CURVE SMOOTH",
"204 347 OFFCURVE",
"189 329 OFFCURVE",
"156 329 CURVE SMOOTH"
);
}
);
width = 612;
},
{
anchors = (
{
name = bottom;
position = "{298, -171}";
},
{
name = top;
position = "{190, 536}";
},
{
name = top2;
position = "{305, 536}";
}
);
layerId = "15894915-CD0E-4C5A-A33F-EBC469CF719E";
paths = (
{
closed = 1;
nodes = (
"256 -171 OFFCURVE",
"305 -114 OFFCURVE",
"305 -5 CURVE SMOOTH",
"305 379 LINE SMOOTH",
"305 489 OFFCURVE",
"264 552 OFFCURVE",
"174 552 CURVE SMOOTH",
"70 552 OFFCURVE",
"39 467 OFFCURVE",
"39 402 CURVE SMOOTH",
"39 390 LINE SMOOTH",
"39 336 OFFCURVE",
"66 307 OFFCURVE",
"103 307 CURVE SMOOTH",
"145 307 OFFCURVE",
"165 344 OFFCURVE",
"165 386 CURVE SMOOTH",
"165 433 OFFCURVE",
"141 462 OFFCURVE",
"107 462 CURVE SMOOTH",
"95 462 OFFCURVE",
"82 458 OFFCURVE",
"74 454 CURVE",
"73 455 LINE",
"84 501 OFFCURVE",
"118 527 OFFCURVE",
"170 527 CURVE SMOOTH",
"242 527 OFFCURVE",
"277 479 OFFCURVE",
"277 381 CURVE SMOOTH",
"277 -3 LINE SMOOTH",
"277 -98 OFFCURVE",
"241 -146 OFFCURVE",
"167 -146 CURVE SMOOTH",
"99 -146 OFFCURVE",
"66 -107 OFFCURVE",
"66 -27 CURVE",
"46 -24 OFFCURVE",
"40 -33 OFFCURVE",
"40 -56 CURVE SMOOTH",
"40 -113 OFFCURVE",
"76 -171 OFFCURVE",
"167 -171 CURVE SMOOTH"
);
},
{
closed = 1;
nodes = (
"75 331 OFFCURVE",
"63 356 OFFCURVE",
"63 389 CURVE SMOOTH",
"63 422 OFFCURVE",
"75 439 OFFCURVE",
"103 439 CURVE SMOOTH",
"130 439 OFFCURVE",
"142 422 OFFCURVE",
"142 387 CURVE SMOOTH",
"142 355 OFFCURVE",
"132 331 OFFCURVE",
"104 331 CURVE SMOOTH"
);
}
);
width = 361;
},
{
anchors = (
{
name = bottom;
position = "{353, -170}";
},
{
name = top;
position = "{200, 536}";
},
{
name = top2;
position = "{359, 536}";
}
);
layerId = "004437BA-C458-42A1-B8EC-F9F2993A06FB";
paths = (
{
closed = 1;
nodes = (
"284 -170 OFFCURVE",
"361 -110 OFFCURVE",
"361 5 CURVE SMOOTH",
"361 376 LINE SMOOTH",
"361 492 OFFCURVE",
"292 560 OFFCURVE",
"183 560 CURVE SMOOTH",
"82 560 OFFCURVE",
"25 502 OFFCURVE",
"25 409 CURVE SMOOTH",
"25 390 LINE SMOOTH",
"25 321 OFFCURVE",
"59 291 OFFCURVE",
"106 291 CURVE SMOOTH",
"158 291 OFFCURVE",
"184 328 OFFCURVE",
"184 385 CURVE SMOOTH",
"184 440 OFFCURVE",
"160 476 OFFCURVE",
"117 476 CURVE SMOOTH",
"109 476 OFFCURVE",
"103 475 OFFCURVE",
"97 474 CURVE",
"96 475 LINE",
"107 494 OFFCURVE",
"132 511 OFFCURVE",
"175 511 CURVE SMOOTH",
"242 511 OFFCURVE",
"269 468 OFFCURVE",
"269 367 CURVE SMOOTH",
"269 23 LINE SMOOTH",
"269 -73 OFFCURVE",
"235 -121 OFFCURVE",
"174 -121 CURVE SMOOTH",
"119 -121 OFFCURVE",
"94 -81 OFFCURVE",
"94 0 CURVE",
"43 0 OFFCURVE",
"22 -14 OFFCURVE",
"22 -52 CURVE SMOOTH",
"22 -120 OFFCURVE",
"91 -170 OFFCURVE",
"183 -170 CURVE SMOOTH"
);
},
{
closed = 1;
nodes = (
"80 333 OFFCURVE",
"69 353 OFFCURVE",
"69 384 CURVE SMOOTH",
"69 415 OFFCURVE",
"80 435 OFFCURVE",
"106 435 CURVE SMOOTH",
"132 435 OFFCURVE",
"143 415 OFFCURVE",
"143 383 CURVE SMOOTH",
"143 352 OFFCURVE",
"132 333 OFFCURVE",
"106 333 CURVE SMOOTH"
);
}
);
width = 411;
},
{
anchors = (
{
name = bottom;
position = "{445, -202}";
},
{
name = top;
position = "{255, 536}";
},
{
name = top2;
position = "{444, 536}";
}
);
layerId = "5B84B61E-AB9F-4F38-98DA-7F1AA4E54ED0";
paths = (
{
closed = 1;
nodes = (
"336 -202 OFFCURVE",
"453 -152 OFFCURVE",
"453 -27 CURVE SMOOTH",
"453 396 LINE SMOOTH",
"453 500 OFFCURVE",
"368 562 OFFCURVE",
"242 562 CURVE SMOOTH",
"113 562 OFFCURVE",
"35 497 OFFCURVE",
"35 405 CURVE SMOOTH",
"35 386 LINE SMOOTH",
"35 304 OFFCURVE",
"75 269 OFFCURVE",
"133 269 CURVE SMOOTH",
"198 269 OFFCURVE",
"231 312 OFFCURVE",
"231 381 CURVE SMOOTH",
"231 439 OFFCURVE",
"208 483 OFFCURVE",
"159 483 CURVE SMOOTH",
"157 483 OFFCURVE",
"154 483 OFFCURVE",
"152 483 CURVE",
"151 484 LINE",
"166 500 OFFCURVE",
"192 508 OFFCURVE",
"214 508 CURVE SMOOTH",
"270 508 OFFCURVE",
"291 459 OFFCURVE",
"291 403 CURVE SMOOTH",
"291 -14 LINE SMOOTH",
"291 -119 OFFCURVE",
"242 -139 OFFCURVE",
"209 -139 CURVE SMOOTH",
"161 -139 OFFCURVE",
"132 -96 OFFCURVE",
"132 -2 CURVE",
"56 -2 OFFCURVE",
"21 -30 OFFCURVE",
"21 -81 CURVE SMOOTH",
"21 -172 OFFCURVE",
"133 -202 OFFCURVE",
"222 -202 CURVE SMOOTH"
);
},
{
closed = 1;
nodes = (
"107 331 OFFCURVE",
"96 349 OFFCURVE",
"96 380 CURVE SMOOTH",
"96 411 OFFCURVE",
"107 429 OFFCURVE",
"134 429 CURVE SMOOTH",
"161 429 OFFCURVE",
"173 411 OFFCURVE",
"173 380 CURVE SMOOTH",
"173 349 OFFCURVE",
"160 331 OFFCURVE",
"134 331 CURVE SMOOTH"
);
}
);
width = 506;
}
);
note = uni0E87;
unicode = 0E87;
},
{
glyphname = "coCok-lao";
lastChange = "2017-06-02 15:50:30 +0000";
layers = (
{
anchors = (
{
name = bottom;
position = "{397, 0}";
},
{
name = top;
position = "{223, 536}";
},
{
name = top2;
position = "{397, 536}";
}
);
layerId = "169B4CCF-67AF-4042-AA6F-C8E438F95C30";
paths = (
{
closed = 1;
nodes = (
"377 -4 LINE",
"397 21 LINE",
"397 391 LINE SMOOTH",
"397 500 OFFCURVE",
"329 552 OFFCURVE",
"211 552 CURVE SMOOTH",
"85 552 OFFCURVE",
"35 493 OFFCURVE",
"35 434 CURVE SMOOTH",
"35 414 OFFCURVE",
"41 408 OFFCURVE",
"64 408 CURVE",
"64 490 OFFCURVE",
"122 527 OFFCURVE",
"211 527 CURVE SMOOTH",
"309 527 OFFCURVE",
"369 482 OFFCURVE",
"369 389 CURVE SMOOTH",
"369 225 LINE",
"366 224 LINE",
"340 278 OFFCURVE",
"288 336 OFFCURVE",
"196 336 CURVE SMOOTH",
"189 336 LINE SMOOTH",
"142 336 OFFCURVE",
"111 309 OFFCURVE",
"111 262 CURVE SMOOTH",
"111 215 OFFCURVE",
"141 188 OFFCURVE",
"189 188 CURVE SMOOTH",
"238 188 OFFCURVE",
"268 215 OFFCURVE",
"268 263 CURVE SMOOTH",
"268 278 OFFCURVE",
"265 291 OFFCURVE",
"258 303 CURVE",
"323 274 OFFCURVE",
"369 193 OFFCURVE",
"369 118 CURVE SMOOTH",
"369 -4 LINE"
);
},
{
closed = 1;
nodes = (
"156 210 OFFCURVE",
"137 227 OFFCURVE",
"137 262 CURVE SMOOTH",
"137 297 OFFCURVE",
"156 314 OFFCURVE",
"189 314 CURVE SMOOTH",
"223 314 OFFCURVE",
"242 297 OFFCURVE",
"242 262 CURVE SMOOTH",
"242 227 OFFCURVE",
"223 210 OFFCURVE",
"189 210 CURVE SMOOTH"
);
}
);
width = 472;
},
{
anchors = (
{
name = bottom;
position = "{479, 0}";
},
{
name = top;
position = "{270, 536}";
},
{
name = top2;
position = "{480, 536}";
}
);
layerId = "A12FF52C-901E-4F1C-B651-FD65F325A5D0";
paths = (
{
closed = 1;
nodes = (
"426 -6 LINE",
"480 52 LINE",
"480 380 LINE SMOOTH",
"480 502 OFFCURVE",
"391 560 OFFCURVE",
"246 560 CURVE SMOOTH",
"116 560 OFFCURVE",
"25 514 OFFCURVE",
"25 440 CURVE SMOOTH",
"25 403 OFFCURVE",
"48 388 OFFCURVE",
"105 388 CURVE",
"105 478 OFFCURVE",
"147 511 OFFCURVE",
"241 511 CURVE SMOOTH",
"340 511 OFFCURVE",
"388 475 OFFCURVE",
"388 383 CURVE SMOOTH",
"388 234 LINE",
"385 233 LINE",
"358 287 OFFCURVE",
"295 336 OFFCURVE",
"215 336 CURVE SMOOTH",
"205 336 LINE SMOOTH",
"145 336 OFFCURVE",
"112 300 OFFCURVE",
"112 246 CURVE SMOOTH",
"112 188 OFFCURVE",
"149 155 OFFCURVE",
"209 155 CURVE SMOOTH",
"266 155 OFFCURVE",
"304 185 OFFCURVE",
"304 239 CURVE SMOOTH",
"304 243 OFFCURVE",
"304 252 OFFCURVE",
"303 256 CURVE",
"364 208 OFFCURVE",
"388 131 OFFCURVE",
"388 59 CURVE SMOOTH",
"388 -6 LINE"
);
},
{
closed = 1;
nodes = (
"176 194 OFFCURVE",
"160 211 OFFCURVE",
"160 246 CURVE SMOOTH",
"160 280 OFFCURVE",
"176 297 OFFCURVE",
"208 297 CURVE SMOOTH",
"240 297 OFFCURVE",
"256 280 OFFCURVE",
"256 246 CURVE SMOOTH",
"256 211 OFFCURVE",
"240 194 OFFCURVE",
"208 194 CURVE SMOOTH"
);
}
);
width = 545;
},
{
anchors = (
{
name = bottom;
position = "{542, 0}";
},
{
name = top;
position = "{291, 536}";
},
{
name = top2;
position = "{532, 536}";
}
);
layerId = "528596C4-5B9B-4A0D-91B5-66A38EFFCD2C";
paths = (
{
closed = 1;
nodes = (
"480 -6 LINE",
"542 66 LINE",
"542 401 LINE SMOOTH",
"542 532 OFFCURVE",
"413 562 OFFCURVE",
"271 562 CURVE SMOOTH",
"117 562 OFFCURVE",
"19 527 OFFCURVE",
"19 451 CURVE SMOOTH",
"19 405 OFFCURVE",
"55 383 OFFCURVE",
"145 383 CURVE",
"145 467 OFFCURVE",
"180 506 OFFCURVE",
"248 506 CURVE SMOOTH",
"319 506 OFFCURVE",
"354 464 OFFCURVE",
"354 400 CURVE SMOOTH",
"354 262 LINE",
"362 267 LINE",
"325 320 OFFCURVE",
"270 352 OFFCURVE",
"208 352 CURVE SMOOTH",
"197 352 LINE SMOOTH",
"132 352 OFFCURVE",
"92 307 OFFCURVE",
"92 241 CURVE SMOOTH",
"92 170 OFFCURVE",
"139 129 OFFCURVE",
"203 129 CURVE SMOOTH",
"271 129 OFFCURVE",
"314 174 OFFCURVE",
"321 226 CURVE",
"316 226 OFFCURVE",
"311 226 OFFCURVE",
"307 226 CURVE",
"326 196 OFFCURVE",
"354 123 OFFCURVE",
"354 74 CURVE SMOOTH",
"354 -6 LINE"
);
},
{
closed = 1;
nodes = (
"172 190 OFFCURVE",
"157 208 OFFCURVE",
"157 239 CURVE SMOOTH",
"157 270 OFFCURVE",
"172 288 OFFCURVE",
"205 288 CURVE SMOOTH",
"238 288 OFFCURVE",
"253 270 OFFCURVE",
"253 239 CURVE SMOOTH",
"253 208 OFFCURVE",
"238 190 OFFCURVE",
"205 190 CURVE SMOOTH"
);
}
);
width = 608;
},
{
anchors = (
{
name = bottom;
position = "{311, 0}";
},
{
name = top;
position = "{175, 536}";
},
{
name = top2;
position = "{311, 536}";
}
);
layerId = "15894915-CD0E-4C5A-A33F-EBC469CF719E";
paths = (
{
closed = 1;
nodes = (
"292 -4 LINE",
"311 21 LINE",
"311 391 LINE SMOOTH",
"311 500 OFFCURVE",
"256 552 OFFCURVE",
"165 552 CURVE SMOOTH",
"68 552 OFFCURVE",
"26 493 OFFCURVE",
"26 436 CURVE SMOOTH",
"26 414 OFFCURVE",
"32 408 OFFCURVE",
"53 408 CURVE",
"53 490 OFFCURVE",
"96 527 OFFCURVE",
"164 527 CURVE SMOOTH",
"239 527 OFFCURVE",
"283 482 OFFCURVE",
"283 389 CURVE SMOOTH",
"283 225 LINE",
"281 224 LINE",
"261 278 OFFCURVE",
"220 336 OFFCURVE",
"151 336 CURVE SMOOTH",
"146 336 LINE SMOOTH",
"109 336 OFFCURVE",
"85 309 OFFCURVE",
"85 262 CURVE SMOOTH",
"85 215 OFFCURVE",
"108 188 OFFCURVE",
"146 188 CURVE SMOOTH",
"184 188 OFFCURVE",
"208 215 OFFCURVE",
"208 264 CURVE SMOOTH",
"208 278 OFFCURVE",
"206 291 OFFCURVE",
"201 303 CURVE",
"250 274 OFFCURVE",
"283 193 OFFCURVE",
"283 118 CURVE SMOOTH",
"283 -4 LINE"
);
},
{
closed = 1;
nodes = (
"121 210 OFFCURVE",
"107 227 OFFCURVE",
"107 262 CURVE SMOOTH",
"107 297 OFFCURVE",
"121 314 OFFCURVE",
"146 314 CURVE SMOOTH",
"172 314 OFFCURVE",
"186 297 OFFCURVE",
"186 262 CURVE SMOOTH",
"186 227 OFFCURVE",
"172 210 OFFCURVE",
"146 210 CURVE SMOOTH"
);
}
);
width = 367;
},
{
anchors = (
{
name = bottom;
position = "{379, 0}";
},
{
name = top;
position = "{210, 536}";
},
{
name = top2;
position = "{377, 536}";
}
);
layerId = "004437BA-C458-42A1-B8EC-F9F2993A06FB";
paths = (
{
closed = 1;
nodes = (
"336 -6 LINE",
"380 52 LINE",
"380 380 LINE SMOOTH",
"380 502 OFFCURVE",
"304 560 OFFCURVE",
"191 560 CURVE SMOOTH",
"91 560 OFFCURVE",
"18 514 OFFCURVE",
"18 440 CURVE SMOOTH",
"18 403 OFFCURVE",
"37 388 OFFCURVE",
"89 388 CURVE",
"89 478 OFFCURVE",
"120 511 OFFCURVE",
"185 511 CURVE SMOOTH",
"254 511 OFFCURVE",
"288 475 OFFCURVE",
"288 383 CURVE SMOOTH",
"288 237 LINE",
"286 236 LINE",
"263 290 OFFCURVE",
"223 336 OFFCURVE",
"166 336 CURVE SMOOTH",
"158 336 LINE SMOOTH",
"110 336 OFFCURVE",
"81 301 OFFCURVE",
"81 245 CURVE SMOOTH",
"81 188 OFFCURVE",
"112 155 OFFCURVE",
"157 155 CURVE SMOOTH",
"207 155 OFFCURVE",
"237 195 OFFCURVE",
"237 236 CURVE SMOOTH",
"237 243 OFFCURVE",
"237 249 OFFCURVE",
"235 256 CURVE",
"272 208 OFFCURVE",
"288 131 OFFCURVE",
"288 59 CURVE SMOOTH",
"288 -6 LINE"
);
},
{
closed = 1;
nodes = (
"133 194 OFFCURVE",
"121 211 OFFCURVE",
"121 246 CURVE SMOOTH",
"121 280 OFFCURVE",
"133 297 OFFCURVE",
"158 297 CURVE SMOOTH",
"182 297 OFFCURVE",
"194 280 OFFCURVE",
"194 246 CURVE SMOOTH",
"194 211 OFFCURVE",
"182 194 OFFCURVE",
"158 194 CURVE SMOOTH"
);
}
);
width = 430;
},
{
anchors = (
{
name = bottom;
position = "{445, 0}";
},
{
name = top;
position = "{238, 536}";
},
{
name = top2;
position = "{436, 536}";
}
);
layerId = "5B84B61E-AB9F-4F38-98DA-7F1AA4E54ED0";
paths = (
{
closed = 1;
nodes = (
"394 -6 LINE",
"445 65 LINE",
"445 409 LINE SMOOTH",
"445 515 OFFCURVE",
"380 562 OFFCURVE",
"227 562 CURVE SMOOTH",
"94 562 OFFCURVE",
"15 526 OFFCURVE",
"15 451 CURVE SMOOTH",
"15 405 OFFCURVE",
"45 384 OFFCURVE",
"122 384 CURVE",
"122 468 OFFCURVE",
"149 507 OFFCURVE",
"202 507 CURVE SMOOTH",
"256 507 OFFCURVE",
"283 465 OFFCURVE",
"283 398 CURVE SMOOTH",
"283 258 LINE",
"296 262 LINE",
"265 323 OFFCURVE",
"224 350 OFFCURVE",
"175 350 CURVE SMOOTH",
"166 350 LINE SMOOTH",
"108 350 OFFCURVE",
"77 305 OFFCURVE",
"77 241 CURVE SMOOTH",
"77 171 OFFCURVE",
"115 132 OFFCURVE",
"173 132 CURVE SMOOTH",
"229 132 OFFCURVE",
"269 168 OFFCURVE",
"269 233 CURVE",
"265 233 OFFCURVE",
"262 233 OFFCURVE",
"258 233 CURVE",
"271 202 OFFCURVE",
"283 136 OFFCURVE",
"283 72 CURVE SMOOTH",
"283 -6 LINE"
);
},
{
closed = 1;
nodes = (
"144 190 OFFCURVE",
"132 208 OFFCURVE",
"132 240 CURVE SMOOTH",
"132 271 OFFCURVE",
"144 289 OFFCURVE",
"170 289 CURVE SMOOTH",
"197 289 OFFCURVE",
"209 271 OFFCURVE",
"209 240 CURVE SMOOTH",
"209 208 OFFCURVE",
"197 190 OFFCURVE",
"170 190 CURVE SMOOTH"
);
}
);
width = 498;
}
);
note = uni0E88;
unicode = 0E88;
},
{
glyphname = "soSang-lao";
lastChange = "2017-06-02 15:50:30 +0000";
layers = (
{
anchors = (
{
name = bottom;
position = "{356, 0}";
},
{
name = top;
position = "{273, 536}";
},
{
name = top2;
position = "{431, 536}";
}
);
layerId = "169B4CCF-67AF-4042-AA6F-C8E438F95C30";
paths = (
{
closed = 1;
nodes = (
"431 -172 LINE",
"451 -147 LINE",
"451 4 LINE SMOOTH",
"451 56 OFFCURVE",
"428 87 OFFCURVE",
"375 87 CURVE SMOOTH",
"294 87 OFFCURVE",
"235 15 OFFCURVE",
"155 15 CURVE SMOOTH",
"114 15 OFFCURVE",
"86 34 OFFCURVE",
"86 76 CURVE SMOOTH",
"86 144 OFFCURVE",
"160 174 OFFCURVE",
"255 216 CURVE SMOOTH",
"364 264 OFFCURVE",
"446 302 OFFCURVE",
"446 404 CURVE SMOOTH",
"446 496 OFFCURVE",
"379 552 OFFCURVE",
"261 552 CURVE SMOOTH",
"131 552 OFFCURVE",
"57 483 OFFCURVE",
"57 403 CURVE SMOOTH",
"57 397 LINE SMOOTH",
"57 336 OFFCURVE",
"93 300 OFFCURVE",
"148 300 CURVE SMOOTH",
"199 300 OFFCURVE",
"228 331 OFFCURVE",
"228 375 CURVE SMOOTH",
"228 420 OFFCURVE",
"198 451 OFFCURVE",
"150 451 CURVE SMOOTH",
"124 451 OFFCURVE",
"103 442 OFFCURVE",
"89 425 CURVE",
"86 426 LINE",
"100 480 OFFCURVE",
"154 527 OFFCURVE",
"257 527 CURVE SMOOTH",
"354 527 OFFCURVE",
"415 486 OFFCURVE",
"415 402 CURVE SMOOTH",
"415 319 OFFCURVE",
"354 288 OFFCURVE",
"248 242 CURVE SMOOTH",
"152 200 OFFCURVE",
"55 162 OFFCURVE",
"55 76 CURVE SMOOTH",
"55 21 OFFCURVE",
"95 -10 OFFCURVE",
"154 -10 CURVE SMOOTH",
"244 -10 OFFCURVE",
"303 62 OFFCURVE",
"372 62 CURVE SMOOTH",
"406 62 OFFCURVE",
"423 44 OFFCURVE",
"423 2 CURVE SMOOTH",
"423 -172 LINE"
);
},
{
closed = 1;
nodes = (
"113 324 OFFCURVE",
"93 342 OFFCURVE",
"93 376 CURVE SMOOTH",
"93 409 OFFCURVE",
"113 428 OFFCURVE",
"147 428 CURVE SMOOTH",
"180 428 OFFCURVE",
"200 409 OFFCURVE",
"200 376 CURVE SMOOTH",
"200 343 OFFCURVE",
"179 324 OFFCURVE",
"146 324 CURVE SMOOTH"
);
}
);
width = 506;
},
{
anchors = (
{
name = bottom;
position = "{356, 0}";
},
{
name = top;
position = "{302, 536}";
},
{
name = top2;
position = "{496, 536}";
}
);
layerId = "A12FF52C-901E-4F1C-B651-FD65F325A5D0";
paths = (
{
closed = 1;
nodes = (
"461 -170 LINE",
"515 -112 LINE",
"515 20 LINE SMOOTH",
"515 112 OFFCURVE",
"469 140 OFFCURVE",
"415 140 CURVE SMOOTH",
"313 140 OFFCURVE",
"259 39 OFFCURVE",
"188 39 CURVE SMOOTH",
"157 39 OFFCURVE",
"142 59 OFFCURVE",
"142 88 CURVE SMOOTH",
"142 151 OFFCURVE",
"210 178 OFFCURVE",
"288 204 CURVE SMOOTH",
"392 239 OFFCURVE",
"515 275 OFFCURVE",
"515 394 CURVE SMOOTH",
"515 497 OFFCURVE",
"425 560 OFFCURVE",
"278 560 CURVE SMOOTH",
"144 560 OFFCURVE",
"50 507 OFFCURVE",
"50 410 CURVE SMOOTH",
"50 390 LINE SMOOTH",
"50 321 OFFCURVE",
"92 291 OFFCURVE",
"150 291 CURVE SMOOTH",
"214 291 OFFCURVE",
"247 328 OFFCURVE",
"247 384 CURVE SMOOTH",
"247 440 OFFCURVE",
"214 476 OFFCURVE",
"152 476 CURVE SMOOTH",
"137 476 OFFCURVE",
"129 474 OFFCURVE",
"125 473 CURVE",
"130 469 LINE",
"128 483 OFFCURVE",
"197 511 OFFCURVE",
"274 511 CURVE SMOOTH",
"361 511 OFFCURVE",
"423 475 OFFCURVE",
"423 399 CURVE SMOOTH",
"423 317 OFFCURVE",
"350 282 OFFCURVE",
"269 255 CURVE SMOOTH",
"167 221 OFFCURVE",
"50 194 OFFCURVE",
"50 89 CURVE SMOOTH",
"50 20 OFFCURVE",
"101 -10 OFFCURVE",
"166 -10 CURVE SMOOTH",
"266 -10 OFFCURVE",
"330 63 OFFCURVE",
"385 63 CURVE SMOOTH",
"416 63 OFFCURVE",
"424 38 OFFCURVE",
"424 -10 CURVE SMOOTH",
"424 -170 LINE"
);
},
{
closed = 1;
nodes = (
"116 333 OFFCURVE",
"101 353 OFFCURVE",
"101 384 CURVE SMOOTH",
"101 415 OFFCURVE",
"116 435 OFFCURVE",
"150 435 CURVE SMOOTH",
"184 435 OFFCURVE",
"199 415 OFFCURVE",
"199 383 CURVE SMOOTH",
"199 352 OFFCURVE",
"185 333 OFFCURVE",
"151 333 CURVE SMOOTH"
);
}
);
width = 560;
},
{
anchors = (
{
name = bottom;
position = "{365, 0}";
},
{
name = top;
position = "{324, 536}";
},
{
name = top2;
position = "{566, 536}";
}
);
layerId = "528596C4-5B9B-4A0D-91B5-66A38EFFCD2C";
paths = (
{
closed = 1;
nodes = (
"532 -206 LINE",
"594 -135 LINE",
"594 100 LINE SMOOTH",
"594 148 OFFCURVE",
"552 198 OFFCURVE",
"477 198 CURVE SMOOTH",
"354 198 OFFCURVE",
"319 65 OFFCURVE",
"249 65 CURVE SMOOTH",
"226 65 OFFCURVE",
"204 80 OFFCURVE",
"204 112 CURVE SMOOTH",
"204 163 OFFCURVE",
"260 184 OFFCURVE",
"329 203 CURVE SMOOTH",
"438 233 OFFCURVE",
"579 259 OFFCURVE",
"579 396 CURVE SMOOTH",
"579 493 OFFCURVE",
"507 562 OFFCURVE",
"304 562 CURVE SMOOTH",
"154 562 OFFCURVE",
"45 524 OFFCURVE",
"45 417 CURVE SMOOTH",
"45 407 LINE SMOOTH",
"45 319 OFFCURVE",
"106 291 OFFCURVE",
"167 291 CURVE SMOOTH",
"239 291 OFFCURVE",
"287 330 OFFCURVE",
"287 393 CURVE SMOOTH",
"287 445 OFFCURVE",
"254 488 OFFCURVE",
"207 488 CURVE SMOOTH",
"196 488 OFFCURVE",
"190 486 OFFCURVE",
"182 483 CURVE",
"189 478 LINE",
"203 500 OFFCURVE",
"261 508 OFFCURVE",
"291 508 CURVE SMOOTH",
"366 508 OFFCURVE",
"392 458 OFFCURVE",
"392 416 CURVE SMOOTH",
"392 359 OFFCURVE",
"343 327 OFFCURVE",
"280 301 CURVE SMOOTH",
"174 257 OFFCURVE",
"31 227 OFFCURVE",
"31 113 CURVE SMOOTH",
"31 50 OFFCURVE",
"75 -12 OFFCURVE",
"175 -12 CURVE SMOOTH",
"280 -12 OFFCURVE",
"340 56 OFFCURVE",
"394 56 CURVE SMOOTH",
"420 56 OFFCURVE",
"426 40 OFFCURVE",
"426 27 CURVE SMOOTH",
"426 -206 LINE"
);
},
{
closed = 1;
nodes = (
"151 345 OFFCURVE",
"136 363 OFFCURVE",
"136 394 CURVE SMOOTH",
"136 425 OFFCURVE",
"151 443 OFFCURVE",
"184 443 CURVE SMOOTH",
"217 443 OFFCURVE",
"232 425 OFFCURVE",
"232 394 CURVE SMOOTH",
"232 363 OFFCURVE",
"217 345 OFFCURVE",
"184 345 CURVE SMOOTH"
);
}
);
width = 642;
},
{
anchors = (
{
name = bottom;
position = "{270, 0}";
},
{
name = top;
position = "{210, 536}";
},
{
name = top2;
position = "{334, 536}";
}
);
layerId = "15894915-CD0E-4C5A-A33F-EBC469CF719E";
paths = (
{
closed = 1;
nodes = (
"330 -172 LINE",
"349 -147 LINE",
"349 4 LINE SMOOTH",
"349 56 OFFCURVE",
"329 87 OFFCURVE",
"288 87 CURVE SMOOTH",
"226 87 OFFCURVE",
"180 15 OFFCURVE",
"121 15 CURVE SMOOTH",
"91 15 OFFCURVE",
"71 34 OFFCURVE",
"71 76 CURVE SMOOTH",
"71 144 OFFCURVE",
"126 174 OFFCURVE",
"197 216 CURVE SMOOTH",
"278 264 OFFCURVE",
"346 301 OFFCURVE",
"346 404 CURVE SMOOTH",
"346 496 OFFCURVE",
"292 552 OFFCURVE",
"201 552 CURVE SMOOTH",
"100 552 OFFCURVE",
"42 483 OFFCURVE",
"42 403 CURVE SMOOTH",
"42 397 LINE SMOOTH",
"42 336 OFFCURVE",
"70 300 OFFCURVE",
"113 300 CURVE SMOOTH",
"153 300 OFFCURVE",
"175 331 OFFCURVE",
"175 375 CURVE SMOOTH",
"175 420 OFFCURVE",
"152 451 OFFCURVE",
"115 451 CURVE SMOOTH",
"95 451 OFFCURVE",
"81 442 OFFCURVE",
"71 425 CURVE",
"70 426 LINE",
"79 480 OFFCURVE",
"121 527 OFFCURVE",
"198 527 CURVE SMOOTH",
"270 527 OFFCURVE",
"316 486 OFFCURVE",
"316 402 CURVE SMOOTH",
"316 325 OFFCURVE",
"279 293 OFFCURVE",
"190 242 CURVE SMOOTH",
"117 200 OFFCURVE",
"41 162 OFFCURVE",
"41 76 CURVE SMOOTH",
"41 21 OFFCURVE",
"73 -10 OFFCURVE",
"118 -10 CURVE SMOOTH",
"187 -10 OFFCURVE",
"233 62 OFFCURVE",
"284 62 CURVE SMOOTH",
"309 62 OFFCURVE",
"321 44 OFFCURVE",
"321 2 CURVE SMOOTH",
"321 -172 LINE"
);
},
{
closed = 1;
nodes = (
"86 324 OFFCURVE",
"71 342 OFFCURVE",
"71 376 CURVE SMOOTH",
"71 409 OFFCURVE",
"86 428 OFFCURVE",
"112 428 CURVE SMOOTH",
"137 428 OFFCURVE",
"152 409 OFFCURVE",
"152 376 CURVE SMOOTH",
"152 343 OFFCURVE",
"136 324 OFFCURVE",
"111 324 CURVE SMOOTH"
);
}
);
width = 390;
},
{
anchors = (
{
name = bottom;
position = "{273, 0}";
},
{
name = top;
position = "{235, 536}";
},
{
name = top2;
position = "{393, 536}";
}
);
layerId = "004437BA-C458-42A1-B8EC-F9F2993A06FB";
paths = (
{
closed = 1;
nodes = (
"367 -170 LINE",
"410 -112 LINE",
"410 20 LINE SMOOTH",
"410 111 OFFCURVE",
"376 140 OFFCURVE",
"331 140 CURVE SMOOTH",
"247 140 OFFCURVE",
"211 39 OFFCURVE",
"158 39 CURVE SMOOTH",
"135 39 OFFCURVE",
"122 58 OFFCURVE",
"122 89 CURVE SMOOTH",
"122 152 OFFCURVE",
"175 180 OFFCURVE",
"228 204 CURVE SMOOTH",
"312 242 OFFCURVE",
"406 275 OFFCURVE",
"406 396 CURVE SMOOTH",
"406 497 OFFCURVE",
"340 560 OFFCURVE",
"221 560 CURVE SMOOTH",
"111 560 OFFCURVE",
"37 507 OFFCURVE",
"37 410 CURVE SMOOTH",
"37 390 LINE SMOOTH",
"37 321 OFFCURVE",
"73 291 OFFCURVE",
"118 291 CURVE SMOOTH",
"169 291 OFFCURVE",
"197 328 OFFCURVE",
"197 386 CURVE SMOOTH",
"197 440 OFFCURVE",
"172 476 OFFCURVE",
"127 476 CURVE SMOOTH",
"117 476 OFFCURVE",
"112 474 OFFCURVE",
"108 473 CURVE",
"113 469 LINE",
"115 482 OFFCURVE",
"161 511 OFFCURVE",
"214 511 CURVE SMOOTH",
"274 511 OFFCURVE",
"315 475 OFFCURVE",
"315 400 CURVE SMOOTH",
"315 315 OFFCURVE",
"261 280 OFFCURVE",
"207 255 CURVE SMOOTH",
"128 218 OFFCURVE",
"34 194 OFFCURVE",
"34 88 CURVE SMOOTH",
"34 20 OFFCURVE",
"73 -10 OFFCURVE",
"126 -10 CURVE SMOOTH",
"209 -10 OFFCURVE",
"253 63 OFFCURVE",
"294 63 CURVE SMOOTH",
"317 63 OFFCURVE",
"323 40 OFFCURVE",
"323 -10 CURVE SMOOTH",
"323 -170 LINE"
);
},
{
closed = 1;
nodes = (
"96 333 OFFCURVE",
"85 353 OFFCURVE",
"85 384 CURVE SMOOTH",
"85 415 OFFCURVE",
"96 435 OFFCURVE",
"122 435 CURVE SMOOTH",
"148 435 OFFCURVE",
"159 415 OFFCURVE",
"159 383 CURVE SMOOTH",
"159 352 OFFCURVE",
"148 333 OFFCURVE",
"123 333 CURVE SMOOTH"
);
}
);
width = 445;
},
{
anchors = (
{
name = bottom;
position = "{296, 0}";
},
{
name = top;
position = "{264, 536}";
},
{
name = top2;
position = "{465, 536}";
}
);
layerId = "5B84B61E-AB9F-4F38-98DA-7F1AA4E54ED0";
paths = (
{
closed = 1;
nodes = (
"438 -202 LINE",
"489 -132 LINE",
"489 92 LINE SMOOTH",
"489 144 OFFCURVE",
"455 192 OFFCURVE",
"393 192 CURVE SMOOTH",
"291 192 OFFCURVE",
"264 62 OFFCURVE",
"208 62 CURVE SMOOTH",
"189 62 OFFCURVE",
"172 78 OFFCURVE",
"172 110 CURVE SMOOTH",
"172 162 OFFCURVE",
"215 183 OFFCURVE",
"271 203 CURVE SMOOTH",
"359 235 OFFCURVE",
"475 260 OFFCURVE",
"475 397 CURVE SMOOTH",
"475 491 OFFCURVE",
"420 562 OFFCURVE",
"251 562 CURVE SMOOTH",
"125 562 OFFCURVE",
"36 522 OFFCURVE",
"36 416 CURVE SMOOTH",
"36 405 LINE SMOOTH",
"36 319 OFFCURVE",
"87 291 OFFCURVE",
"137 291 CURVE SMOOTH",
"196 291 OFFCURVE",
"236 329 OFFCURVE",
"236 395 CURVE SMOOTH",
"236 444 OFFCURVE",
"214 487 OFFCURVE",
"165 487 CURVE SMOOTH",
"154 487 OFFCURVE",
"147 485 OFFCURVE",
"143 482 CURVE",
"149 480 LINE",
"171 501 OFFCURVE",
"198 508 OFFCURVE",
"222 508 CURVE SMOOTH",
"271 508 OFFCURVE",
"314 477 OFFCURVE",
"314 414 CURVE SMOOTH",
"314 353 OFFCURVE",
"274 321 OFFCURVE",
"228 297 CURVE SMOOTH",
"143 253 OFFCURVE",
"23 225 OFFCURVE",
"23 110 CURVE SMOOTH",
"23 47 OFFCURVE",
"59 -12 OFFCURVE",
"141 -12 CURVE SMOOTH",
"230 -12 OFFCURVE",
"276 57 OFFCURVE",
"319 57 CURVE SMOOTH",
"340 57 OFFCURVE",
"345 41 OFFCURVE",
"345 23 CURVE SMOOTH",
"345 -202 LINE"
);
},
{
closed = 1;
nodes = (
"126 344 OFFCURVE",
"114 362 OFFCURVE",
"114 393 CURVE SMOOTH",
"114 424 OFFCURVE",
"126 442 OFFCURVE",
"152 442 CURVE SMOOTH",
"179 442 OFFCURVE",
"191 424 OFFCURVE",
"191 393 CURVE SMOOTH",
"191 362 OFFCURVE",
"179 344 OFFCURVE",
"152 344 CURVE SMOOTH"
);
}
);
width = 528;
}
);
note = uni0E8A;
unicode = 0E8A;
},
{
glyphname = "nyoNyung-lao";
lastChange = "2017-06-02 15:50:30 +0000";
layers = (
{
anchors = (
{
name = bottom;
position = "{422, 0}";
},
{
name = top;
position = "{277, 536}";
},
{
name = top2;
position = "{432, 536}";
}
);
layerId = "169B4CCF-67AF-4042-AA6F-C8E438F95C30";
paths = (
{
closed = 1;
nodes = (
"360 -10 OFFCURVE",
"432 39 OFFCURVE",
"432 176 CURVE SMOOTH",
"432 548 LINE",
"424 548 LINE",
"404 523 LINE",
"404 171 LINE SMOOTH",
"404 62 OFFCURVE",
"349 15 OFFCURVE",
"243 15 CURVE SMOOTH",
"120 15 OFFCURVE",
"89 78 OFFCURVE",
"89 154 CURVE SMOOTH",
"89 234 OFFCURVE",
"124 274 OFFCURVE",
"221 274 CURVE SMOOTH",
"263 274 LINE",
"263 297 LINE",
"221 297 LINE SMOOTH",
"141 297 OFFCURVE",
"87 371 OFFCURVE",
"84 426 CURVE",
"87 427 LINE",
"101 410 OFFCURVE",
"122 401 OFFCURVE",
"148 401 CURVE SMOOTH",
"196 401 OFFCURVE",
"226 432 OFFCURVE",
"226 477 CURVE SMOOTH",
"226 521 OFFCURVE",
"198 552 OFFCURVE",
"144 552 CURVE SMOOTH",
"88 552 OFFCURVE",
"55 518 OFFCURVE",
"55 457 CURVE SMOOTH",
"55 439 LINE SMOOTH",
"55 378 OFFCURVE",
"98 312 OFFCURVE",
"157 290 CURVE",
"157 287 LINE",
"96 280 OFFCURVE",
"58 235 OFFCURVE",
"58 153 CURVE SMOOTH",
"58 45 OFFCURVE",
"123 -10 OFFCURVE",
"245 -10 CURVE SMOOTH"
);
},
{
closed = 1;
nodes = (
"111 424 OFFCURVE",
"91 443 OFFCURVE",
"91 476 CURVE SMOOTH",
"91 510 OFFCURVE",
"111 528 OFFCURVE",
"144 528 CURVE SMOOTH",
"177 528 OFFCURVE",
"198 509 OFFCURVE",
"198 476 CURVE SMOOTH",
"198 443 OFFCURVE",
"178 424 OFFCURVE",
"145 424 CURVE SMOOTH"
);
}
);
width = 507;
},
{
anchors = (
{
name = bottom;
position = "{488, 0}";
},
{
name = top;
position = "{303, 536}";
},
{
name = top2;
position = "{498, 536}";
}
);
layerId = "A12FF52C-901E-4F1C-B651-FD65F325A5D0";
paths = (
{
closed = 1;
nodes = (
"416 -10 OFFCURVE",
"498 49 OFFCURVE",
"498 166 CURVE SMOOTH",
"498 554 LINE",
"460 554 LINE",
"406 497 LINE",
"406 183 LINE SMOOTH",
"406 84 OFFCURVE",
"363 39 OFFCURVE",
"267 39 CURVE SMOOTH",
"185 39 OFFCURVE",
"137 72 OFFCURVE",
"137 150 CURVE SMOOTH",
"137 227 OFFCURVE",
"184 254 OFFCURVE",
"246 254 CURVE SMOOTH",
"267 254 LINE",
"267 303 LINE",
"246 303 LINE SMOOTH",
"164 303 OFFCURVE",
"129 341 OFFCURVE",
"139 393 CURVE",
"132 382 LINE",
"136 380 OFFCURVE",
"141 376 OFFCURVE",
"158 376 CURVE SMOOTH",
"209 376 OFFCURVE",
"246 411 OFFCURVE",
"246 468 CURVE SMOOTH",
"246 525 OFFCURVE",
"209 560 OFFCURVE",
"149 560 CURVE SMOOTH",
"84 560 OFFCURVE",
"45 518 OFFCURVE",
"45 451 CURVE SMOOTH",
"45 427 LINE SMOOTH",
"45 356 OFFCURVE",
"80 304 OFFCURVE",
"133 280 CURVE",
"133 277 LINE",
"85 257 OFFCURVE",
"45 215 OFFCURVE",
"45 145 CURVE SMOOTH",
"45 45 OFFCURVE",
"126 -10 OFFCURVE",
"268 -10 CURVE SMOOTH"
);
},
{
closed = 1;
nodes = (
"119 418 OFFCURVE",
"102 434 OFFCURVE",
"102 468 CURVE SMOOTH",
"102 502 OFFCURVE",
"120 519 OFFCURVE",
"152 519 CURVE SMOOTH",
"183 519 OFFCURVE",
"199 503 OFFCURVE",
"199 469 CURVE SMOOTH",
"199 435 OFFCURVE",
"182 418 OFFCURVE",
"150 418 CURVE SMOOTH"
);
}
);
width = 563;
},
{
anchors = (
{
name = bottom;
position = "{583, 0}";
},
{
name = top;
position = "{340, 536}";
},
{
name = top2;
position = "{593, 536}";
}
);
layerId = "528596C4-5B9B-4A0D-91B5-66A38EFFCD2C";
paths = (
{
closed = 1;
nodes = (
"519 -12 OFFCURVE",
"593 41 OFFCURVE",
"593 176 CURVE SMOOTH",
"593 552 LINE",
"466 552 LINE",
"404 480 LINE",
"404 143 LINE SMOOTH",
"404 67 OFFCURVE",
"371 42 OFFCURVE",
"320 42 CURVE SMOOTH",
"272 42 OFFCURVE",
"239 65 OFFCURVE",
"239 152 CURVE SMOOTH",
"239 224 OFFCURVE",
"262 251 OFFCURVE",
"303 251 CURVE SMOOTH",
"346 251 LINE",
"346 312 LINE",
"321 312 LINE SMOOTH",
"242 312 OFFCURVE",
"234 353 OFFCURVE",
"233 386 CURVE",
"213 373 LINE",
"218 373 OFFCURVE",
"223 373 OFFCURVE",
"228 373 CURVE SMOOTH",
"290 373 OFFCURVE",
"338 398 OFFCURVE",
"338 464 CURVE SMOOTH",
"338 529 OFFCURVE",
"292 562 OFFCURVE",
"216 562 CURVE SMOOTH",
"118 562 OFFCURVE",
"46 508 OFFCURVE",
"46 436 CURVE SMOOTH",
"46 428 LINE SMOOTH",
"46 366 OFFCURVE",
"83 304 OFFCURVE",
"157 286 CURVE",
"157 282 LINE",
"81 262 OFFCURVE",
"49 215 OFFCURVE",
"49 149 CURVE SMOOTH",
"49 37 OFFCURVE",
"140 -12 OFFCURVE",
"326 -12 CURVE SMOOTH"
);
},
{
closed = 1;
nodes = (
"202 417 OFFCURVE",
"187 435 OFFCURVE",
"187 466 CURVE SMOOTH",
"187 497 OFFCURVE",
"202 515 OFFCURVE",
"235 515 CURVE SMOOTH",
"268 515 OFFCURVE",
"283 497 OFFCURVE",
"283 466 CURVE SMOOTH",
"283 435 OFFCURVE",
"268 417 OFFCURVE",
"235 417 CURVE SMOOTH"
);
}
);
width = 659;
},
{
anchors = (
{
name = bottom;
position = "{328, 0}";
},
{
name = top;
position = "{214, 536}";
},
{
name = top2;
position = "{336, 536}";
}
);
layerId = "15894915-CD0E-4C5A-A33F-EBC469CF719E";
paths = (
{
closed = 1;
nodes = (
"280 -10 OFFCURVE",
"336 39 OFFCURVE",
"336 176 CURVE SMOOTH",
"336 548 LINE",
"326 548 LINE",
"308 523 LINE",
"308 171 LINE SMOOTH",
"308 63 OFFCURVE",
"267 15 OFFCURVE",
"188 15 CURVE SMOOTH",
"98 15 OFFCURVE",
"73 77 OFFCURVE",
"73 154 CURVE SMOOTH",
"73 234 OFFCURVE",
"101 274 OFFCURVE",
"171 274 CURVE SMOOTH",
"201 274 LINE",
"201 297 LINE",
"171 297 LINE SMOOTH",
"110 297 OFFCURVE",
"71 371 OFFCURVE",
"70 426 CURVE",
"71 427 LINE",
"81 410 OFFCURVE",
"95 401 OFFCURVE",
"114 401 CURVE SMOOTH",
"151 401 OFFCURVE",
"174 432 OFFCURVE",
"174 477 CURVE SMOOTH",
"174 521 OFFCURVE",
"152 552 OFFCURVE",
"110 552 CURVE SMOOTH",
"67 552 OFFCURVE",
"41 518 OFFCURVE",
"41 457 CURVE SMOOTH",
"41 439 LINE SMOOTH",
"41 378 OFFCURVE",
"73 312 OFFCURVE",
"117 290 CURVE",
"117 287 LINE",
"72 280 OFFCURVE",
"43 235 OFFCURVE",
"43 153 CURVE SMOOTH",
"43 45 OFFCURVE",
"94 -10 OFFCURVE",
"189 -10 CURVE SMOOTH"
);
},
{
closed = 1;
nodes = (
"85 424 OFFCURVE",
"71 443 OFFCURVE",
"71 476 CURVE SMOOTH",
"71 510 OFFCURVE",
"86 528 OFFCURVE",
"111 528 CURVE SMOOTH",
"135 528 OFFCURVE",
"151 510 OFFCURVE",
"151 476 CURVE SMOOTH",
"151 443 OFFCURVE",
"136 424 OFFCURVE",
"111 424 CURVE SMOOTH"
);
}
);
width = 392;
},
{
anchors = (
{
name = bottom;
position = "{392, 0}";
},
{
name = top;
position = "{238, 536}";
},
{
name = top2;
position = "{400, 536}";
}
);
layerId = "004437BA-C458-42A1-B8EC-F9F2993A06FB";
paths = (
{
closed = 1;
nodes = (
"339 -10 OFFCURVE",
"400 49 OFFCURVE",
"400 166 CURVE SMOOTH",
"400 552 LINE",
"351 552 LINE",
"308 495 LINE",
"308 183 LINE SMOOTH",
"308 83 OFFCURVE",
"277 39 OFFCURVE",
"214 39 CURVE SMOOTH",
"160 39 OFFCURVE",
"127 72 OFFCURVE",
"127 151 CURVE SMOOTH",
"127 226 OFFCURVE",
"157 254 OFFCURVE",
"200 254 CURVE SMOOTH",
"220 254 LINE",
"220 303 LINE",
"204 303 LINE SMOOTH",
"142 303 OFFCURVE",
"122 341 OFFCURVE",
"127 393 CURVE",
"118 382 LINE",
"124 379 OFFCURVE",
"125 376 OFFCURVE",
"137 376 CURVE SMOOTH",
"176 376 OFFCURVE",
"207 411 OFFCURVE",
"207 469 CURVE SMOOTH",
"207 525 OFFCURVE",
"178 560 OFFCURVE",
"127 560 CURVE SMOOTH",
"72 560 OFFCURVE",
"34 519 OFFCURVE",
"34 451 CURVE SMOOTH",
"34 427 LINE SMOOTH",
"34 356 OFFCURVE",
"61 304 OFFCURVE",
"106 280 CURVE",
"106 277 LINE",
"63 257 OFFCURVE",
"35 214 OFFCURVE",
"35 146 CURVE SMOOTH",
"35 44 OFFCURVE",
"99 -10 OFFCURVE",
"216 -10 CURVE SMOOTH"
);
},
{
closed = 1;
nodes = (
"109 418 OFFCURVE",
"96 434 OFFCURVE",
"96 468 CURVE SMOOTH",
"96 502 OFFCURVE",
"109 519 OFFCURVE",
"134 519 CURVE SMOOTH",
"158 519 OFFCURVE",
"170 503 OFFCURVE",
"170 469 CURVE SMOOTH",
"170 435 OFFCURVE",
"157 418 OFFCURVE",
"133 418 CURVE SMOOTH"
);
}
);
width = 450;
},
{
anchors = (
{
name = bottom;
position = "{481, 0}";
},
{
name = top;
position = "{279, 536}";
},
{
name = top2;
position = "{490, 536}";
}
);
layerId = "5B84B61E-AB9F-4F38-98DA-7F1AA4E54ED0";
paths = (
{
closed = 1;
nodes = (
"414 -12 OFFCURVE",
"490 50 OFFCURVE",
"490 155 CURVE SMOOTH",
"490 552 LINE",
"377 552 LINE",
"328 482 LINE",
"328 147 LINE SMOOTH",
"328 68 OFFCURVE",
"302 42 OFFCURVE",
"265 42 CURVE SMOOTH",
"230 42 OFFCURVE",
"202 65 OFFCURVE",
"202 153 CURVE SMOOTH",
"202 223 OFFCURVE",
"220 251 OFFCURVE",
"251 251 CURVE SMOOTH",
"288 251 LINE",
"288 311 LINE",
"267 311 LINE SMOOTH",
"204 311 OFFCURVE",
"200 352 OFFCURVE",
"198 387 CURVE",
"181 374 LINE",
"186 374 OFFCURVE",
"186 373 OFFCURVE",
"195 373 CURVE SMOOTH",
"241 373 OFFCURVE",
"283 399 OFFCURVE",
"283 464 CURVE SMOOTH",
"283 529 OFFCURVE",
"241 562 OFFCURVE",
"176 562 CURVE SMOOTH",
"94 562 OFFCURVE",
"37 509 OFFCURVE",
"37 438 CURVE SMOOTH",
"37 428 LINE SMOOTH",
"37 365 OFFCURVE",
"67 304 OFFCURVE",
"129 286 CURVE",
"129 281 LINE",
"65 261 OFFCURVE",
"40 214 OFFCURVE",
"40 151 CURVE SMOOTH",
"40 41 OFFCURVE",
"115 -12 OFFCURVE",
"259 -12 CURVE SMOOTH"
);
},
{
closed = 1;
nodes = (
"172 417 OFFCURVE",
"160 435 OFFCURVE",
"160 466 CURVE SMOOTH",
"160 498 OFFCURVE",
"172 515 OFFCURVE",
"199 515 CURVE SMOOTH",
"226 515 OFFCURVE",
"238 497 OFFCURVE",
"238 466 CURVE SMOOTH",
"238 435 OFFCURVE",
"226 417 OFFCURVE",
"199 417 CURVE SMOOTH"
);
}
);
width = 543;
}
);
note = uni0E8D;
unicode = 0E8D;
},
{
glyphname = "doDek-lao";
lastChange = "2017-06-02 15:50:30 +0000";
layers = (
{
anchors = (
{
name = bottom;
position = "{467, 0}";
},
{
name = top;
position = "{283, 536}";
},
{
name = top2;
position = "{467, 536}";
}
);
layerId = "169B4CCF-67AF-4042-AA6F-C8E438F95C30";
paths = (
{
closed = 1;
nodes = (
"203 -10 OFFCURVE",
"234 16 OFFCURVE",
"234 63 CURVE SMOOTH",
"234 111 OFFCURVE",
"202 138 OFFCURVE",
"157 138 CURVE SMOOTH",
"136 138 OFFCURVE",
"118 132 OFFCURVE",
"106 118 CURVE",
"103 119 LINE",
"103 396 LINE SMOOTH",
"103 485 OFFCURVE",
"171 527 OFFCURVE",
"269 527 CURVE SMOOTH",
"370 527 OFFCURVE",
"439 482 OFFCURVE",
"439 396 CURVE SMOOTH",
"439 -6 LINE",
"449 -6 LINE",
"467 15 LINE",
"467 394 LINE SMOOTH",
"467 494 OFFCURVE",
"387 552 OFFCURVE",
"270 552 CURVE SMOOTH",
"159 552 OFFCURVE",
"75 500 OFFCURVE",
"75 394 CURVE SMOOTH",
"75 64 LINE SMOOTH",
"75 18 OFFCURVE",
"105 -10 OFFCURVE",
"155 -10 CURVE SMOOTH"
);
},
{
closed = 1;
nodes = (
"122 12 OFFCURVE",
"103 31 OFFCURVE",
"103 64 CURVE SMOOTH",
"103 97 OFFCURVE",
"122 116 OFFCURVE",
"156 116 CURVE SMOOTH",
"189 116 OFFCURVE",
"208 97 OFFCURVE",
"208 64 CURVE SMOOTH",
"208 31 OFFCURVE",
"188 12 OFFCURVE",
"155 12 CURVE SMOOTH"
);
}
);
width = 542;
},
{
anchors = (
{
name = bottom;
position = "{518, 0}";
},
{
name = top;
position = "{315, 536}";
},
{
name = top2;
position = "{518, 536}";
}
);
layerId = "A12FF52C-901E-4F1C-B651-FD65F325A5D0";
paths = (
{
closed = 1;
nodes = (
"233 -10 OFFCURVE",
"270 24 OFFCURVE",
"270 82 CURVE SMOOTH",
"270 142 OFFCURVE",
"230 175 OFFCURVE",
"179 175 CURVE SMOOTH",
"164 175 OFFCURVE",
"150 172 OFFCURVE",
"150 171 CURVE",
"157 157 LINE",
"157 367 LINE SMOOTH",
"157 464 OFFCURVE",
"200 511 OFFCURVE",
"291 511 CURVE SMOOTH",
"383 511 OFFCURVE",
"426 464 OFFCURVE",
"426 367 CURVE SMOOTH",
"426 -6 LINE",
"464 -6 LINE",
"518 52 LINE",
"518 385 LINE SMOOTH",
"518 501 OFFCURVE",
"435 560 OFFCURVE",
"291 560 CURVE SMOOTH",
"147 560 OFFCURVE",
"65 501 OFFCURVE",
"65 385 CURVE SMOOTH",
"65 94 LINE SMOOTH",
"65 26 OFFCURVE",
"109 -10 OFFCURVE",
"172 -10 CURVE SMOOTH"
);
},
{
closed = 1;
nodes = (
"142 29 OFFCURVE",
"126 47 OFFCURVE",
"126 81 CURVE SMOOTH",
"126 115 OFFCURVE",
"142 133 OFFCURVE",
"174 133 CURVE SMOOTH",
"206 133 OFFCURVE",
"222 115 OFFCURVE",
"222 81 CURVE SMOOTH",
"222 47 OFFCURVE",
"206 29 OFFCURVE",
"174 29 CURVE SMOOTH"
);
}
);
width = 583;
},
{
anchors = (
{
name = bottom;
position = "{609, 0}";
},
{
name = top;
position = "{353, 536}";
},
{
name = top2;
position = "{599, 536}";
}
);
layerId = "528596C4-5B9B-4A0D-91B5-66A38EFFCD2C";
paths = (
{
closed = 1;
nodes = (
"276 -10 OFFCURVE",
"322 27 OFFCURVE",
"322 94 CURVE SMOOTH",
"322 160 OFFCURVE",
"277 187 OFFCURVE",
"243 187 CURVE SMOOTH",
"237 187 OFFCURVE",
"227 186 OFFCURVE",
"224 185 CURVE",
"245 169 LINE",
"245 374 LINE SMOOTH",
"245 468 OFFCURVE",
"260 508 OFFCURVE",
"333 508 CURVE SMOOTH",
"405 508 OFFCURVE",
"420 468 OFFCURVE",
"420 374 CURVE SMOOTH",
"420 -6 LINE",
"547 -6 LINE",
"609 66 LINE",
"609 355 LINE SMOOTH",
"609 501 OFFCURVE",
"525 562 OFFCURVE",
"333 562 CURVE SMOOTH",
"140 562 OFFCURVE",
"56 501 OFFCURVE",
"56 355 CURVE SMOOTH",
"56 127 LINE SMOOTH",
"56 39 OFFCURVE",
"105 -10 OFFCURVE",
"196 -10 CURVE SMOOTH"
);
},
{
closed = 1;
nodes = (
"186 44 OFFCURVE",
"171 62 OFFCURVE",
"171 93 CURVE SMOOTH",
"171 124 OFFCURVE",
"186 142 OFFCURVE",
"219 142 CURVE SMOOTH",
"252 142 OFFCURVE",
"267 124 OFFCURVE",
"267 93 CURVE SMOOTH",
"267 62 OFFCURVE",
"252 44 OFFCURVE",
"219 44 CURVE SMOOTH"
);
}
);
width = 675;
},
{
anchors = (
{
name = bottom;
position = "{360, 0}";
},
{
name = top;
position = "{218, 536}";
},
{
name = top2;
position = "{360, 536}";
}
);
layerId = "15894915-CD0E-4C5A-A33F-EBC469CF719E";
paths = (
{
closed = 1;
nodes = (
"157 -10 OFFCURVE",
"182 16 OFFCURVE",
"182 63 CURVE SMOOTH",
"182 111 OFFCURVE",
"157 138 OFFCURVE",
"123 138 CURVE SMOOTH",
"107 138 OFFCURVE",
"93 132 OFFCURVE",
"85 118 CURVE",
"84 119 LINE",
"84 396 LINE SMOOTH",
"84 485 OFFCURVE",
"133 527 OFFCURVE",
"207 527 CURVE SMOOTH",
"283 527 OFFCURVE",
"332 482 OFFCURVE",
"332 396 CURVE SMOOTH",
"332 -6 LINE",
"343 -6 LINE",
"360 15 LINE",
"360 394 LINE SMOOTH",
"360 494 OFFCURVE",
"299 552 OFFCURVE",
"207 552 CURVE SMOOTH",
"120 552 OFFCURVE",
"56 500 OFFCURVE",
"56 394 CURVE SMOOTH",
"56 64 LINE SMOOTH",
"56 18 OFFCURVE",
"80 -10 OFFCURVE",
"120 -10 CURVE SMOOTH"
);
},
{
closed = 1;
nodes = (
"95 12 OFFCURVE",
"81 31 OFFCURVE",
"81 64 CURVE SMOOTH",
"81 97 OFFCURVE",
"95 116 OFFCURVE",
"120 116 CURVE SMOOTH",
"145 116 OFFCURVE",
"160 97 OFFCURVE",
"160 64 CURVE SMOOTH",
"160 31 OFFCURVE",
"145 12 OFFCURVE",
"120 12 CURVE SMOOTH"
);
}
);
width = 416;
},
{
anchors = (
{
name = bottom;
position = "{414, 0}";
},
{
name = top;
position = "{248, 536}";
},
{
name = top2;
position = "{412, 536}";
}
);
layerId = "004437BA-C458-42A1-B8EC-F9F2993A06FB";
paths = (
{
closed = 1;
nodes = (
"187 -10 OFFCURVE",
"217 24 OFFCURVE",
"217 82 CURVE SMOOTH",
"217 142 OFFCURVE",
"185 175 OFFCURVE",
"152 175 CURVE SMOOTH",
"142 175 OFFCURVE",
"131 172 OFFCURVE",
"130 171 CURVE",
"139 157 LINE",
"139 367 LINE SMOOTH",
"139 464 OFFCURVE",
"165 511 OFFCURVE",
"230 511 CURVE SMOOTH",
"296 511 OFFCURVE",
"322 464 OFFCURVE",
"322 367 CURVE SMOOTH",
"322 -6 LINE",
"371 -6 LINE",
"414 52 LINE",
"414 385 LINE SMOOTH",
"414 501 OFFCURVE",
"351 560 OFFCURVE",
"230 560 CURVE SMOOTH",
"110 560 OFFCURVE",
"47 501 OFFCURVE",
"47 385 CURVE SMOOTH",
"47 94 LINE SMOOTH",
"47 26 OFFCURVE",
"82 -10 OFFCURVE",
"135 -10 CURVE SMOOTH"
);
},
{
closed = 1;
nodes = (
"118 29 OFFCURVE",
"106 47 OFFCURVE",
"106 81 CURVE SMOOTH",
"106 115 OFFCURVE",
"118 133 OFFCURVE",
"142 133 CURVE SMOOTH",
"167 133 OFFCURVE",
"179 115 OFFCURVE",
"179 81 CURVE SMOOTH",
"179 47 OFFCURVE",
"167 29 OFFCURVE",
"142 29 CURVE SMOOTH"
);
}
);
width = 464;
},
{
anchors = (
{
name = bottom;
position = "{502, 0}";
},
{
name = top;
position = "{289, 536}";
},
{
name = top2;
position = "{493, 536}";
}
);
layerId = "5B84B61E-AB9F-4F38-98DA-7F1AA4E54ED0";
paths = (
{
closed = 1;
nodes = (
"227 -10 OFFCURVE",
"266 27 OFFCURVE",
"266 93 CURVE SMOOTH",
"266 158 OFFCURVE",
"229 186 OFFCURVE",
"203 186 CURVE SMOOTH",
"199 186 OFFCURVE",
"192 185 OFFCURVE",
"189 184 CURVE",
"206 168 LINE",
"206 390 LINE SMOOTH",
"206 468 OFFCURVE",
"228 508 OFFCURVE",
"274 508 CURVE SMOOTH",
"318 508 OFFCURVE",
"340 470 OFFCURVE",
"340 390 CURVE SMOOTH",
"340 -6 LINE",
"451 -6 LINE",
"502 65 LINE",
"502 375 LINE SMOOTH",
"502 501 OFFCURVE",
"427 562 OFFCURVE",
"274 562 CURVE SMOOTH",
"120 562 OFFCURVE",
"44 501 OFFCURVE",
"44 375 CURVE SMOOTH",
"44 124 LINE SMOOTH",
"44 38 OFFCURVE",
"84 -10 OFFCURVE",
"160 -10 CURVE SMOOTH"
);
},
{
closed = 1;
nodes = (
"155 42 OFFCURVE",
"143 60 OFFCURVE",
"143 92 CURVE SMOOTH",
"143 123 OFFCURVE",
"155 141 OFFCURVE",
"182 141 CURVE SMOOTH",
"208 141 OFFCURVE",
"220 123 OFFCURVE",
"220 92 CURVE SMOOTH",
"220 60 OFFCURVE",
"208 42 OFFCURVE",
"182 42 CURVE SMOOTH"
);
}
);
width = 555;
}
);
note = uni0E94;
unicode = 0E94;
},
{
glyphname = "toTa-lao";
lastChange = "2017-06-02 15:50:30 +0000";
layers = (
{
anchors = (
{
name = bottom;
position = "{467, 0}";
},
{
name = top;
position = "{281, 536}";
},
{
name = top2;
position = "{467, 536}";
}
);
layerId = "169B4CCF-67AF-4042-AA6F-C8E438F95C30";
paths = (
{
closed = 1;
nodes = (
"203 -10 OFFCURVE",
"234 16 OFFCURVE",
"234 63 CURVE SMOOTH",
"234 111 OFFCURVE",
"202 138 OFFCURVE",
"157 138 CURVE SMOOTH",
"136 138 OFFCURVE",
"118 132 OFFCURVE",
"106 118 CURVE",
"103 119 LINE",
"103 378 LINE SMOOTH",
"103 460 OFFCURVE",
"129 498 OFFCURVE",
"179 521 CURVE",
"265 436 LINE",
"277 436 LINE",
"363 521 LINE",
"413 498 OFFCURVE",
"439 460 OFFCURVE",
"439 378 CURVE SMOOTH",
"439 -6 LINE",
"449 -6 LINE",
"467 15 LINE",
"467 386 LINE SMOOTH",
"467 454 OFFCURVE",
"446 522 OFFCURVE",
"361 552 CURVE",
"273 463 LINE",
"270 463 LINE",
"181 552 LINE",
"96 522 OFFCURVE",
"75 454 OFFCURVE",
"75 386 CURVE SMOOTH",
"75 64 LINE SMOOTH",
"75 18 OFFCURVE",
"105 -10 OFFCURVE",
"155 -10 CURVE SMOOTH"
);
},
{
closed = 1;
nodes = (
"122 12 OFFCURVE",
"103 31 OFFCURVE",
"103 64 CURVE SMOOTH",
"103 97 OFFCURVE",
"122 116 OFFCURVE",
"156 116 CURVE SMOOTH",
"189 116 OFFCURVE",
"208 97 OFFCURVE",
"208 64 CURVE SMOOTH",
"208 31 OFFCURVE",
"188 12 OFFCURVE",
"155 12 CURVE SMOOTH"
);
}
);
width = 542;
},
{
anchors = (
{
name = bottom;
position = "{523, 0}";
},
{
name = top;
position = "{320, 536}";
},
{
name = top2;
position = "{523, 536}";
}
);
layerId = "A12FF52C-901E-4F1C-B651-FD65F325A5D0";
paths = (
{
closed = 1;
nodes = (
"233 -10 OFFCURVE",
"270 24 OFFCURVE",
"270 82 CURVE SMOOTH",
"270 142 OFFCURVE",
"230 175 OFFCURVE",
"179 175 CURVE SMOOTH",
"164 175 OFFCURVE",
"150 172 OFFCURVE",
"150 171 CURVE",
"157 146 LINE",
"157 376 LINE SMOOTH",
"157 461 OFFCURVE",
"173 484 OFFCURVE",
"213 503 CURVE",
"292 443 LINE",
"296 443 LINE",
"375 503 LINE",
"414 484 OFFCURVE",
"431 461 OFFCURVE",
"431 376 CURVE SMOOTH",
"431 -6 LINE",
"469 -6 LINE",
"523 52 LINE",
"523 376 LINE SMOOTH",
"523 492 OFFCURVE",
"477 542 OFFCURVE",
"375 560 CURVE",
"296 495 LINE",
"292 495 LINE",
"213 560 LINE",
"111 542 OFFCURVE",
"65 492 OFFCURVE",
"65 376 CURVE SMOOTH",
"65 94 LINE SMOOTH",
"65 26 OFFCURVE",
"109 -10 OFFCURVE",
"172 -10 CURVE SMOOTH"
);
},
{
closed = 1;
nodes = (
"142 29 OFFCURVE",
"126 47 OFFCURVE",
"126 81 CURVE SMOOTH",
"126 115 OFFCURVE",
"142 133 OFFCURVE",
"174 133 CURVE SMOOTH",
"206 133 OFFCURVE",
"222 115 OFFCURVE",
"222 81 CURVE SMOOTH",
"222 47 OFFCURVE",
"206 29 OFFCURVE",
"174 29 CURVE SMOOTH"
);
}
);
width = 588;
},
{
anchors = (
{
name = bottom;
position = "{629, 0}";
},
{
name = top;
position = "{360, 536}";
},
{
name = top2;
position = "{619, 536}";
}
);
layerId = "528596C4-5B9B-4A0D-91B5-66A38EFFCD2C";
paths = (
{
closed = 1;
nodes = (
"276 -10 OFFCURVE",
"322 27 OFFCURVE",
"322 95 CURVE SMOOTH",
"322 160 OFFCURVE",
"279 187 OFFCURVE",
"241 187 CURVE SMOOTH",
"238 187 OFFCURVE",
"232 187 OFFCURVE",
"224 187 CURVE",
"245 160 LINE",
"245 386 LINE SMOOTH",
"245 444 OFFCURVE",
"256 462 OFFCURVE",
"273 483 CURVE",
"340 429 LINE",
"345 429 LINE",
"412 483 LINE",
"429 462 OFFCURVE",
"440 444 OFFCURVE",
"440 386 CURVE SMOOTH",
"440 -6 LINE",
"567 -6 LINE",
"629 66 LINE",
"629 366 LINE SMOOTH",
"629 476 OFFCURVE",
"559 540 OFFCURVE",
"441 562 CURVE",
"345 482 LINE",
"342 482 LINE",
"244 562 LINE",
"126 540 OFFCURVE",
"56 476 OFFCURVE",
"56 366 CURVE SMOOTH",
"56 127 LINE SMOOTH",
"56 39 OFFCURVE",
"105 -10 OFFCURVE",
"197 -10 CURVE SMOOTH"
);
},
{
closed = 1;
nodes = (
"186 44 OFFCURVE",
"171 62 OFFCURVE",
"171 93 CURVE SMOOTH",
"171 124 OFFCURVE",
"186 142 OFFCURVE",
"219 142 CURVE SMOOTH",
"252 142 OFFCURVE",
"267 124 OFFCURVE",
"267 93 CURVE SMOOTH",
"267 62 OFFCURVE",
"252 44 OFFCURVE",
"219 44 CURVE SMOOTH"
);
}
);
width = 695;
},
{
anchors = (
{
name = bottom;
position = "{361, 0}";
},
{
name = top;
position = "{218, 536}";
},
{
name = top2;
position = "{361, 536}";
}
);
layerId = "15894915-CD0E-4C5A-A33F-EBC469CF719E";
paths = (
{
closed = 1;
nodes = (
"157 -10 OFFCURVE",
"182 16 OFFCURVE",
"182 63 CURVE SMOOTH",
"182 111 OFFCURVE",
"157 138 OFFCURVE",
"123 138 CURVE SMOOTH",
"107 138 OFFCURVE",
"93 132 OFFCURVE",
"85 118 CURVE",
"84 119 LINE",
"84 378 LINE SMOOTH",
"84 460 OFFCURVE",
"103 498 OFFCURVE",
"138 521 CURVE",
"204 436 LINE",
"213 436 LINE",
"279 521 LINE",
"314 498 OFFCURVE",
"333 460 OFFCURVE",
"333 378 CURVE SMOOTH",
"333 -6 LINE",
"343 -6 LINE",
"361 15 LINE",
"361 386 LINE SMOOTH",
"361 454 OFFCURVE",
"342 522 OFFCURVE",
"276 552 CURVE",
"210 463 LINE",
"208 463 LINE",
"141 552 LINE",
"75 522 OFFCURVE",
"56 454 OFFCURVE",
"56 386 CURVE SMOOTH",
"56 64 LINE SMOOTH",
"56 18 OFFCURVE",
"80 -10 OFFCURVE",
"120 -10 CURVE SMOOTH"
);
},
{
closed = 1;
nodes = (
"95 12 OFFCURVE",
"81 31 OFFCURVE",
"81 64 CURVE SMOOTH",
"81 97 OFFCURVE",
"95 116 OFFCURVE",
"120 116 CURVE SMOOTH",
"145 116 OFFCURVE",
"160 97 OFFCURVE",
"160 64 CURVE SMOOTH",
"160 31 OFFCURVE",
"145 12 OFFCURVE",
"120 12 CURVE SMOOTH"
);
}
);
width = 417;
},
{
anchors = (
{
name = bottom;
position = "{421, 0}";
},
{
name = top;
position = "{252, 536}";
},
{
name = top2;
position = "{419, 536}";
}
);
layerId = "004437BA-C458-42A1-B8EC-F9F2993A06FB";
paths = (
{
closed = 1;
nodes = (
"187 -10 OFFCURVE",
"217 24 OFFCURVE",
"217 82 CURVE SMOOTH",
"217 142 OFFCURVE",
"185 175 OFFCURVE",
"151 175 CURVE SMOOTH",
"141 175 OFFCURVE",
"132 172 OFFCURVE",
"130 171 CURVE",
"139 146 LINE",
"139 376 LINE SMOOTH",
"139 461 OFFCURVE",
"150 481 OFFCURVE",
"175 500 CURVE",
"232 443 LINE",
"236 443 LINE",
"293 500 LINE",
"318 481 OFFCURVE",
"329 461 OFFCURVE",
"329 376 CURVE SMOOTH",
"329 -6 LINE",
"378 -6 LINE",
"421 52 LINE",
"421 376 LINE SMOOTH",
"421 492 OFFCURVE",
"381 542 OFFCURVE",
"300 560 CURVE",
"236 495 LINE",
"233 495 LINE",
"169 560 LINE",
"87 542 OFFCURVE",
"47 492 OFFCURVE",
"47 376 CURVE SMOOTH",
"47 94 LINE SMOOTH",
"47 26 OFFCURVE",
"82 -10 OFFCURVE",
"135 -10 CURVE SMOOTH"
);
},
{
closed = 1;
nodes = (
"118 29 OFFCURVE",
"106 47 OFFCURVE",
"106 81 CURVE SMOOTH",
"106 115 OFFCURVE",
"118 133 OFFCURVE",
"142 133 CURVE SMOOTH",
"167 133 OFFCURVE",
"179 115 OFFCURVE",
"179 81 CURVE SMOOTH",
"179 47 OFFCURVE",
"167 29 OFFCURVE",
"142 29 CURVE SMOOTH"
);
}
);
width = 471;
},
{
anchors = (
{
name = bottom;
position = "{520, 0}";
},
{
name = top;
position = "{295, 536}";
},
{
name = top2;
position = "{511, 536}";
}
);
layerId = "5B84B61E-AB9F-4F38-98DA-7F1AA4E54ED0";
paths = (
{
closed = 1;
nodes = (
"227 -10 OFFCURVE",
"266 27 OFFCURVE",
"266 94 CURVE SMOOTH",
"266 158 OFFCURVE",
"230 186 OFFCURVE",
"203 186 CURVE SMOOTH",
"198 186 OFFCURVE",
"197 185 OFFCURVE",
"189 185 CURVE",
"206 159 LINE",
"206 395 LINE SMOOTH",
"206 433 OFFCURVE",
"209 454 OFFCURVE",
"227 483 CURVE",
"280 430 LINE",
"284 430 LINE",
"337 483 LINE",
"355 454 OFFCURVE",
"358 433 OFFCURVE",
"358 395 CURVE SMOOTH",
"358 -6 LINE",
"469 -6 LINE",
"520 65 LINE",
"520 387 LINE SMOOTH",
"520 487 OFFCURVE",
"475 537 OFFCURVE",
"363 562 CURVE",
"284 483 LINE",
"282 483 LINE",
"200 562 LINE",
"89 537 OFFCURVE",
"44 487 OFFCURVE",
"44 387 CURVE SMOOTH",
"44 124 LINE SMOOTH",
"44 38 OFFCURVE",
"85 -10 OFFCURVE",
"161 -10 CURVE SMOOTH"
);
},
{
closed = 1;
nodes = (
"155 42 OFFCURVE",
"143 60 OFFCURVE",
"143 92 CURVE SMOOTH",
"143 123 OFFCURVE",
"155 141 OFFCURVE",
"182 141 CURVE SMOOTH",
"208 141 OFFCURVE",
"220 123 OFFCURVE",
"220 92 CURVE SMOOTH",
"220 60 OFFCURVE",
"208 42 OFFCURVE",
"182 42 CURVE SMOOTH"
);
}
);
width = 573;
}
);
note = uni0E95;
unicode = 0E95;
},
{
glyphname = "thoThong-lao";
lastChange = "2017-06-02 15:50:30 +0000";
layers = (
{
anchors = (
{
name = bottom;
position = "{428, 0}";
},
{
name = top;
position = "{342, 536}";
},
{
name = top2;
position = "{513, 536}";
}
);
layerId = "169B4CCF-67AF-4042-AA6F-C8E438F95C30";
paths = (
{
closed = 1;
nodes = (
"493 -172 LINE",
"513 -147 LINE",
"513 431 LINE SMOOTH",
"513 520 OFFCURVE",
"436 552 OFFCURVE",
"370 552 CURVE SMOOTH",
"308 552 OFFCURVE",
"234 524 OFFCURVE",
"192 487 CURVE",
"188 528 OFFCURVE",
"159 552 OFFCURVE",
"113 552 CURVE SMOOTH",
"64 552 OFFCURVE",
"35 525 OFFCURVE",
"35 478 CURVE SMOOTH",
"35 431 OFFCURVE",
"64 404 OFFCURVE",
"109 404 CURVE SMOOTH",
"133 404 OFFCURVE",
"154 412 OFFCURVE",
"166 425 CURVE",
"169 424 LINE",
"169 77 LINE SMOOTH",
"169 28 OFFCURVE",
"198 -10 OFFCURVE",
"253 -10 CURVE SMOOTH",
"301 -10 OFFCURVE",
"331 19 OFFCURVE",
"331 64 CURVE SMOOTH",
"331 111 OFFCURVE",
"299 138 OFFCURVE",
"255 138 CURVE SMOOTH",
"232 138 OFFCURVE",
"212 131 OFFCURVE",
"200 118 CURVE",
"197 119 LINE",
"197 461 LINE",
"243 502 OFFCURVE",
"312 527 OFFCURVE",
"367 527 CURVE SMOOTH",
"423 527 OFFCURVE",
"485 501 OFFCURVE",
"485 435 CURVE SMOOTH",
"485 -172 LINE"
);
},
{
closed = 1;
nodes = (
"218 12 OFFCURVE",
"198 31 OFFCURVE",
"198 64 CURVE SMOOTH",
"198 97 OFFCURVE",
"218 116 OFFCURVE",
"252 116 CURVE SMOOTH",
"285 116 OFFCURVE",
"305 97 OFFCURVE",
"305 64 CURVE SMOOTH",
"305 31 OFFCURVE",
"284 12 OFFCURVE",
"251 12 CURVE SMOOTH"
);
},
{
closed = 1;
nodes = (
"80 426 OFFCURVE",
"61 445 OFFCURVE",
"61 478 CURVE SMOOTH",
"61 511 OFFCURVE",
"81 530 OFFCURVE",
"114 530 CURVE SMOOTH",
"147 530 OFFCURVE",
"166 511 OFFCURVE",
"166 478 CURVE SMOOTH",
"166 445 OFFCURVE",
"146 426 OFFCURVE",
"113 426 CURVE SMOOTH"
);
}
);
width = 598;
},
{
anchors = (
{
name = bottom;
position = "{429, 0}";
},
{
name = top;
position = "{361, 536}";
},
{
name = top2;
position = "{568, 536}";
}
);
layerId = "A12FF52C-901E-4F1C-B651-FD65F325A5D0";
paths = (
{
closed = 1;
nodes = (
"514 -170 LINE",
"568 -113 LINE",
"568 403 LINE SMOOTH",
"568 499 OFFCURVE",
"511 560 OFFCURVE",
"403 560 CURVE SMOOTH",
"327 560 OFFCURVE",
"268 530 OFFCURVE",
"224 495 CURVE",
"210 538 OFFCURVE",
"173 560 OFFCURVE",
"123 560 CURVE SMOOTH",
"62 560 OFFCURVE",
"25 526 OFFCURVE",
"25 468 CURVE SMOOTH",
"25 408 OFFCURVE",
"65 376 OFFCURVE",
"115 376 CURVE SMOOTH",
"129 376 OFFCURVE",
"143 376 OFFCURVE",
"152 382 CURVE",
"138 404 LINE",
"138 94 LINE SMOOTH",
"138 26 OFFCURVE",
"182 -10 OFFCURVE",
"245 -10 CURVE SMOOTH",
"306 -10 OFFCURVE",
"343 24 OFFCURVE",
"343 82 CURVE SMOOTH",
"343 142 OFFCURVE",
"303 175 OFFCURVE",
"254 175 CURVE SMOOTH",
"239 175 OFFCURVE",
"225 172 OFFCURVE",
"216 171 CURVE",
"230 146 LINE",
"230 447 LINE",
"275 488 OFFCURVE",
"328 511 OFFCURVE",
"380 511 CURVE SMOOTH",
"452 511 OFFCURVE",
"476 466 OFFCURVE",
"476 394 CURVE SMOOTH",
"476 -170 LINE"
);
},
{
closed = 1;
nodes = (
"215 29 OFFCURVE",
"199 47 OFFCURVE",
"199 81 CURVE SMOOTH",
"199 115 OFFCURVE",
"215 133 OFFCURVE",
"247 133 CURVE SMOOTH",
"279 133 OFFCURVE",
"295 115 OFFCURVE",
"295 81 CURVE SMOOTH",
"295 47 OFFCURVE",
"279 29 OFFCURVE",
"247 29 CURVE SMOOTH"
);
},
{
closed = 1;
nodes = (
"89 418 OFFCURVE",
"73 435 OFFCURVE",
"73 469 CURVE SMOOTH",
"73 503 OFFCURVE",
"89 521 OFFCURVE",
"121 521 CURVE SMOOTH",
"153 521 OFFCURVE",
"169 503 OFFCURVE",
"169 469 CURVE SMOOTH",
"169 435 OFFCURVE",
"153 418 OFFCURVE",
"121 418 CURVE SMOOTH"
);
}
);
width = 643;
},
{
anchors = (
{
name = bottom;
position = "{404, 0}";
},
{
name = top;
position = "{373, 536}";
},
{
name = top2;
position = "{630, 536}";
}
);
layerId = "528596C4-5B9B-4A0D-91B5-66A38EFFCD2C";
paths = (
{
closed = 1;
nodes = (
"578 -206 LINE",
"640 -134 LINE",
"640 383 LINE SMOOTH",
"640 501 OFFCURVE",
"544 562 OFFCURVE",
"439 562 CURVE SMOOTH",
"364 562 OFFCURVE",
"301 531 OFFCURVE",
"276 486 CURVE",
"258 534 OFFCURVE",
"214 562 OFFCURVE",
"145 562 CURVE SMOOTH",
"66 562 OFFCURVE",
"20 525 OFFCURVE",
"20 458 CURVE SMOOTH",
"20 391 OFFCURVE",
"66 365 OFFCURVE",
"99 365 CURVE SMOOTH",
"103 365 OFFCURVE",
"109 365 OFFCURVE",
"113 365 CURVE",
"97 392 LINE",
"97 127 LINE SMOOTH",
"97 39 OFFCURVE",
"147 -10 OFFCURVE",
"239 -10 CURVE SMOOTH",
"318 -10 OFFCURVE",
"364 27 OFFCURVE",
"364 94 CURVE SMOOTH",
"364 160 OFFCURVE",
"321 187 OFFCURVE",
"283 187 CURVE SMOOTH",
"279 187 OFFCURVE",
"274 187 OFFCURVE",
"270 187 CURVE",
"286 160 LINE",
"286 430 LINE",
"309 469 OFFCURVE",
"351 500 OFFCURVE",
"393 500 CURVE SMOOTH",
"424 500 OFFCURVE",
"451 484 OFFCURVE",
"451 443 CURVE SMOOTH",
"451 -206 LINE"
);
},
{
closed = 1;
nodes = (
"228 44 OFFCURVE",
"213 62 OFFCURVE",
"213 93 CURVE SMOOTH",
"213 124 OFFCURVE",
"228 142 OFFCURVE",
"261 142 CURVE SMOOTH",
"294 142 OFFCURVE",
"308 124 OFFCURVE",
"308 93 CURVE SMOOTH",
"308 62 OFFCURVE",
"294 44 OFFCURVE",
"261 44 CURVE SMOOTH"
);
},
{
closed = 1;
nodes = (
"90 410 OFFCURVE",
"75 428 OFFCURVE",
"75 459 CURVE SMOOTH",
"75 490 OFFCURVE",
"90 508 OFFCURVE",
"123 508 CURVE SMOOTH",
"156 508 OFFCURVE",
"171 490 OFFCURVE",
"171 459 CURVE SMOOTH",
"171 428 OFFCURVE",
"156 410 OFFCURVE",
"123 410 CURVE SMOOTH"
);
}
);
width = 716;
},
{
anchors = (
{
name = bottom;
position = "{326, 0}";
},
{
name = top;
position = "{262, 536}";
},
{
name = top2;
position = "{396, 536}";
}
);
layerId = "15894915-CD0E-4C5A-A33F-EBC469CF719E";
paths = (
{
closed = 1;
nodes = (
"377 -172 LINE",
"396 -147 LINE",
"396 431 LINE SMOOTH",
"396 520 OFFCURVE",
"339 552 OFFCURVE",
"286 552 CURVE SMOOTH",
"236 552 OFFCURVE",
"182 524 OFFCURVE",
"150 487 CURVE",
"146 528 OFFCURVE",
"123 552 OFFCURVE",
"87 552 CURVE SMOOTH",
"49 552 OFFCURVE",
"26 525 OFFCURVE",
"26 478 CURVE SMOOTH",
"26 431 OFFCURVE",
"49 404 OFFCURVE",
"83 404 CURVE SMOOTH",
"101 404 OFFCURVE",
"116 412 OFFCURVE",
"125 425 CURVE",
"126 424 LINE",
"126 77 LINE SMOOTH",
"126 28 OFFCURVE",
"149 -10 OFFCURVE",
"192 -10 CURVE SMOOTH",
"230 -10 OFFCURVE",
"253 19 OFFCURVE",
"253 64 CURVE SMOOTH",
"253 111 OFFCURVE",
"228 138 OFFCURVE",
"195 138 CURVE SMOOTH",
"178 138 OFFCURVE",
"163 131 OFFCURVE",
"154 118 CURVE",
"154 119 LINE",
"154 461 LINE",
"188 502 OFFCURVE",
"239 527 OFFCURVE",
"281 527 CURVE SMOOTH",
"325 527 OFFCURVE",
"368 501 OFFCURVE",
"368 435 CURVE SMOOTH",
"368 -172 LINE"
);
},
{
closed = 1;
nodes = (
"166 12 OFFCURVE",
"151 31 OFFCURVE",
"151 64 CURVE SMOOTH",
"151 97 OFFCURVE",
"166 116 OFFCURVE",
"191 116 CURVE SMOOTH",
"216 116 OFFCURVE",
"231 97 OFFCURVE",
"231 64 CURVE SMOOTH",
"231 31 OFFCURVE",
"216 12 OFFCURVE",
"191 12 CURVE SMOOTH"
);
},
{
closed = 1;
nodes = (
"62 426 OFFCURVE",
"48 445 OFFCURVE",
"48 478 CURVE SMOOTH",
"48 511 OFFCURVE",
"63 530 OFFCURVE",
"88 530 CURVE SMOOTH",
"113 530 OFFCURVE",
"127 511 OFFCURVE",
"127 478 CURVE SMOOTH",
"127 445 OFFCURVE",
"112 426 OFFCURVE",
"87 426 CURVE SMOOTH"
);
}
);
width = 460;
},
{
anchors = (
{
name = bottom;
position = "{320, 0}";
},
{
name = top;
position = "{277, 536}";
},
{
name = top2;
position = "{446, 536}";
}
);
layerId = "004437BA-C458-42A1-B8EC-F9F2993A06FB";
paths = (
{
closed = 1;
nodes = (
"405 -170 LINE",
"448 -113 LINE",
"448 403 LINE SMOOTH",
"448 499 OFFCURVE",
"396 560 OFFCURVE",
"315 560 CURVE SMOOTH",
"257 560 OFFCURVE",
"211 530 OFFCURVE",
"182 495 CURVE",
"171 538 OFFCURVE",
"141 560 OFFCURVE",
"99 560 CURVE SMOOTH",
"48 560 OFFCURVE",
"18 526 OFFCURVE",
"18 468 CURVE SMOOTH",
"18 408 OFFCURVE",
"50 376 OFFCURVE",
"84 376 CURVE SMOOTH",
"92 376 OFFCURVE",
"101 376 OFFCURVE",
"107 382 CURVE",
"96 404 LINE",
"96 94 LINE SMOOTH",
"96 25 OFFCURVE",
"131 -10 OFFCURVE",
"184 -10 CURVE SMOOTH",
"236 -10 OFFCURVE",
"266 24 OFFCURVE",
"266 82 CURVE SMOOTH",
"266 142 OFFCURVE",
"234 175 OFFCURVE",
"200 175 CURVE SMOOTH",
"190 175 OFFCURVE",
"182 172 OFFCURVE",
"177 171 CURVE",
"188 146 LINE",
"188 447 LINE",
"217 488 OFFCURVE",
"256 511 OFFCURVE",
"290 511 CURVE SMOOTH",
"337 511 OFFCURVE",
"356 468 OFFCURVE",
"356 394 CURVE SMOOTH",
"356 -170 LINE"
);
},
{
closed = 1;
nodes = (
"166 29 OFFCURVE",
"155 47 OFFCURVE",
"155 81 CURVE SMOOTH",
"155 115 OFFCURVE",
"166 133 OFFCURVE",
"191 133 CURVE SMOOTH",
"216 133 OFFCURVE",
"227 115 OFFCURVE",
"227 81 CURVE SMOOTH",
"227 47 OFFCURVE",
"216 29 OFFCURVE",
"191 29 CURVE SMOOTH"
);
},
{
closed = 1;
nodes = (
"68 418 OFFCURVE",
"56 435 OFFCURVE",
"56 469 CURVE SMOOTH",
"56 503 OFFCURVE",
"68 521 OFFCURVE",
"93 521 CURVE SMOOTH",
"117 521 OFFCURVE",
"129 503 OFFCURVE",
"129 469 CURVE SMOOTH",
"129 435 OFFCURVE",
"117 418 OFFCURVE",
"93 418 CURVE SMOOTH"
);
}
);
width = 505;
},
{
anchors = (
{
name = bottom;
position = "{325, 0}";
},
{
name = top;
position = "{303, 536}";
},
{
name = top2;
position = "{517, 536}";
}
);
layerId = "5B84B61E-AB9F-4F38-98DA-7F1AA4E54ED0";
paths = (
{
closed = 1;
nodes = (
"475 -202 LINE",
"526 -132 LINE",
"526 414 LINE SMOOTH",
"526 513 OFFCURVE",
"463 562 OFFCURVE",
"363 562 CURVE SMOOTH",
"291 562 OFFCURVE",
"247 536 OFFCURVE",
"224 500 CURVE",
"206 540 OFFCURVE",
"171 562 OFFCURVE",
"120 562 CURVE SMOOTH",
"54 562 OFFCURVE",
"16 525 OFFCURVE",
"16 458 CURVE SMOOTH",
"16 393 OFFCURVE",
"52 366 OFFCURVE",
"81 366 CURVE SMOOTH",
"83 366 OFFCURVE",
"84 366 OFFCURVE",
"86 367 CURVE",
"74 387 LINE",
"74 124 LINE SMOOTH",
"74 38 OFFCURVE",
"116 -10 OFFCURVE",
"192 -10 CURVE SMOOTH",
"259 -10 OFFCURVE",
"297 27 OFFCURVE",
"297 93 CURVE SMOOTH",
"297 159 OFFCURVE",
"259 186 OFFCURVE",
"231 186 CURVE SMOOTH",
"226 186 OFFCURVE",
"226 185 OFFCURVE",
"223 185 CURVE",
"236 159 LINE",
"236 450 LINE",
"253 482 OFFCURVE",
"283 501 OFFCURVE",
"312 501 CURVE SMOOTH",
"345 501 OFFCURVE",
"364 477 OFFCURVE",
"364 437 CURVE SMOOTH",
"364 -202 LINE"
);
},
{
closed = 1;
nodes = (
"186 42 OFFCURVE",
"174 60 OFFCURVE",
"174 92 CURVE SMOOTH",
"174 123 OFFCURVE",
"186 141 OFFCURVE",
"213 141 CURVE SMOOTH",
"240 141 OFFCURVE",
"251 123 OFFCURVE",
"251 92 CURVE SMOOTH",
"251 60 OFFCURVE",
"240 42 OFFCURVE",
"213 42 CURVE SMOOTH"
);
},
{
closed = 1;
nodes = (
"73 411 OFFCURVE",
"61 429 OFFCURVE",
"61 460 CURVE SMOOTH",
"61 491 OFFCURVE",
"73 509 OFFCURVE",
"100 509 CURVE SMOOTH",
"127 509 OFFCURVE",
"139 491 OFFCURVE",
"139 460 CURVE SMOOTH",
"139 429 OFFCURVE",
"127 411 OFFCURVE",
"100 411 CURVE SMOOTH"
);
}
);
width = 588;
}
);
note = uni0E96;
unicode = 0E96;
},
{
glyphname = "thoThung-lao";
lastChange = "2017-06-02 15:50:30 +0000";
layers = (
{
anchors = (
{
name = bottom;
position = "{610, 0}";
},
{
name = top;
position = "{394, 536}";
},
{
name = top2;
position = "{610, 536}";
}
);
layerId = "169B4CCF-67AF-4042-AA6F-C8E438F95C30";
paths = (
{
closed = 1;
nodes = (
"369 -10 OFFCURVE",
"402 47 OFFCURVE",
"402 128 CURVE SMOOTH",
"402 416 LINE SMOOTH",
"402 485 OFFCURVE",
"427 527 OFFCURVE",
"490 527 CURVE SMOOTH",
"556 527 OFFCURVE",
"582 482 OFFCURVE",
"582 416 CURVE SMOOTH",
"582 -4 LINE",
"590 -4 LINE",
"610 21 LINE",
"610 414 LINE SMOOTH",
"610 495 OFFCURVE",
"577 552 OFFCURVE",
"491 552 CURVE SMOOTH",
"409 552 OFFCURVE",
"374 499 OFFCURVE",
"374 414 CURVE SMOOTH",
"374 126 LINE SMOOTH",
"374 60 OFFCURVE",
"348 15 OFFCURVE",
"282 15 CURVE SMOOTH",
"219 15 OFFCURVE",
"194 57 OFFCURVE",
"194 126 CURVE SMOOTH",
"194 478 LINE SMOOTH",
"194 524 OFFCURVE",
"164 552 OFFCURVE",
"114 552 CURVE SMOOTH",
"66 552 OFFCURVE",
"35 526 OFFCURVE",
"35 479 CURVE SMOOTH",
"35 431 OFFCURVE",
"67 404 OFFCURVE",
"112 404 CURVE SMOOTH",
"133 404 OFFCURVE",
"151 410 OFFCURVE",
"163 424 CURVE",
"166 423 LINE",
"166 128 LINE SMOOTH",
"166 43 OFFCURVE",
"201 -10 OFFCURVE",
"283 -10 CURVE SMOOTH"
);
},
{
closed = 1;
nodes = (
"80 426 OFFCURVE",
"61 445 OFFCURVE",
"61 478 CURVE SMOOTH",
"61 511 OFFCURVE",
"81 530 OFFCURVE",
"114 530 CURVE SMOOTH",
"147 530 OFFCURVE",
"166 511 OFFCURVE",
"166 478 CURVE SMOOTH",
"166 445 OFFCURVE",
"147 426 OFFCURVE",
"113 426 CURVE SMOOTH"
);
}
);
width = 685;
},
{
anchors = (
{
name = bottom;
position = "{663, 0}";
},
{
name = top;
position = "{435, 536}";
},
{
name = top2;
position = "{663, 536}";
}
);
layerId = "A12FF52C-901E-4F1C-B651-FD65F325A5D0";
paths = (
{
closed = 1;
nodes = (
"399 -10 OFFCURVE",
"433 45 OFFCURVE",
"433 114 CURVE SMOOTH",
"433 445 LINE SMOOTH",
"433 484 OFFCURVE",
"458 511 OFFCURVE",
"502 511 CURVE SMOOTH",
"547 511 OFFCURVE",
"571 484 OFFCURVE",
"571 445 CURVE SMOOTH",
"571 -6 LINE",
"610 -6 LINE",
"663 52 LINE",
"663 440 LINE SMOOTH",
"663 504 OFFCURVE",
"619 560 OFFCURVE",
"507 560 CURVE SMOOTH",
"395 560 OFFCURVE",
"354 504 OFFCURVE",
"354 440 CURVE SMOOTH",
"354 102 LINE SMOOTH",
"354 69 OFFCURVE",
"336 39 OFFCURVE",
"292 39 CURVE SMOOTH",
"247 39 OFFCURVE",
"230 69 OFFCURVE",
"230 102 CURVE SMOOTH",
"230 456 LINE SMOOTH",
"230 524 OFFCURVE",
"185 560 OFFCURVE",
"122 560 CURVE SMOOTH",
"61 560 OFFCURVE",
"25 526 OFFCURVE",
"25 468 CURVE SMOOTH",
"25 408 OFFCURVE",
"64 376 OFFCURVE",
"117 376 CURVE SMOOTH",
"126 376 OFFCURVE",
"141 377 OFFCURVE",
"149 380 CURVE",
"138 389 LINE",
"138 114 LINE SMOOTH",
"138 45 OFFCURVE",
"175 -10 OFFCURVE",
"287 -10 CURVE SMOOTH"
);
},
{
closed = 1;
nodes = (
"89 418 OFFCURVE",
"73 435 OFFCURVE",
"73 469 CURVE SMOOTH",
"73 503 OFFCURVE",
"89 521 OFFCURVE",
"120 521 CURVE SMOOTH",
"152 521 OFFCURVE",
"168 503 OFFCURVE",
"168 469 CURVE SMOOTH",
"168 435 OFFCURVE",
"152 418 OFFCURVE",
"120 418 CURVE SMOOTH"
);
}
);
width = 728;
},
{
anchors = (
{
name = bottom;
position = "{762, 0}";
},
{
name = top;
position = "{485, 536}";
},
{
name = top2;
position = "{752, 536}";
}
);
layerId = "528596C4-5B9B-4A0D-91B5-66A38EFFCD2C";
paths = (
{
closed = 1;
nodes = (
"456 -12 OFFCURVE",
"495 34 OFFCURVE",
"495 121 CURVE SMOOTH",
"495 464 LINE SMOOTH",
"495 490 OFFCURVE",
"509 504 OFFCURVE",
"534 504 CURVE SMOOTH",
"558 504 OFFCURVE",
"573 490 OFFCURVE",
"573 464 CURVE SMOOTH",
"573 -6 LINE",
"700 -6 LINE",
"762 66 LINE",
"762 431 LINE SMOOTH",
"762 524 OFFCURVE",
"698 562 OFFCURVE",
"573 562 CURVE SMOOTH",
"440 562 OFFCURVE",
"376 519 OFFCURVE",
"376 429 CURVE SMOOTH",
"376 86 LINE SMOOTH",
"376 60 OFFCURVE",
"361 46 OFFCURVE",
"337 46 CURVE SMOOTH",
"313 46 OFFCURVE",
"298 60 OFFCURVE",
"298 86 CURVE SMOOTH",
"298 425 LINE SMOOTH",
"298 513 OFFCURVE",
"251 562 OFFCURVE",
"151 562 CURVE SMOOTH",
"66 562 OFFCURVE",
"20 526 OFFCURVE",
"20 460 CURVE SMOOTH",
"20 399 OFFCURVE",
"60 365 OFFCURVE",
"111 365 CURVE SMOOTH",
"117 365 OFFCURVE",
"122 365 OFFCURVE",
"128 366 CURVE",
"109 386 LINE",
"109 119 LINE SMOOTH",
"109 23 OFFCURVE",
"175 -12 OFFCURVE",
"306 -12 CURVE SMOOTH"
);
},
{
closed = 1;
nodes = (
"90 410 OFFCURVE",
"75 428 OFFCURVE",
"75 459 CURVE SMOOTH",
"75 490 OFFCURVE",
"90 508 OFFCURVE",
"123 508 CURVE SMOOTH",
"156 508 OFFCURVE",
"171 490 OFFCURVE",
"171 459 CURVE SMOOTH",
"171 428 OFFCURVE",
"156 410 OFFCURVE",
"123 410 CURVE SMOOTH"
);
}
);
width = 828;
},
{
anchors = (
{
name = bottom;
position = "{470, 0}";
},
{
name = top;
position = "{304, 536}";
},
{
name = top2;
position = "{470, 536}";
}
);
layerId = "15894915-CD0E-4C5A-A33F-EBC469CF719E";
paths = (
{
closed = 1;
nodes = (
"284 -10 OFFCURVE",
"309 47 OFFCURVE",
"309 128 CURVE SMOOTH",
"309 416 LINE SMOOTH",
"309 485 OFFCURVE",
"328 527 OFFCURVE",
"374 527 CURVE SMOOTH",
"422 527 OFFCURVE",
"442 482 OFFCURVE",
"442 416 CURVE SMOOTH",
"442 -4 LINE",
"451 -4 LINE",
"470 21 LINE",
"470 414 LINE SMOOTH",
"470 495 OFFCURVE",
"443 552 OFFCURVE",
"375 552 CURVE SMOOTH",
"310 552 OFFCURVE",
"283 499 OFFCURVE",
"283 414 CURVE SMOOTH",
"283 126 LINE SMOOTH",
"283 60 OFFCURVE",
"264 15 OFFCURVE",
"216 15 CURVE SMOOTH",
"170 15 OFFCURVE",
"152 57 OFFCURVE",
"152 126 CURVE SMOOTH",
"152 478 LINE SMOOTH",
"152 524 OFFCURVE",
"127 552 OFFCURVE",
"88 552 CURVE SMOOTH",
"50 552 OFFCURVE",
"26 526 OFFCURVE",
"26 479 CURVE SMOOTH",
"26 431 OFFCURVE",
"51 404 OFFCURVE",
"85 404 CURVE SMOOTH",
"101 404 OFFCURVE",
"114 410 OFFCURVE",
"123 424 CURVE",
"124 423 LINE",
"124 128 LINE SMOOTH",
"124 43 OFFCURVE",
"150 -10 OFFCURVE",
"216 -10 CURVE SMOOTH"
);
},
{
closed = 1;
nodes = (
"62 426 OFFCURVE",
"48 445 OFFCURVE",
"48 478 CURVE SMOOTH",
"48 511 OFFCURVE",
"63 530 OFFCURVE",
"88 530 CURVE SMOOTH",
"113 530 OFFCURVE",
"127 511 OFFCURVE",
"127 478 CURVE SMOOTH",
"127 445 OFFCURVE",
"113 426 OFFCURVE",
"87 426 CURVE SMOOTH"
);
}
);
width = 526;
},
{
anchors = (
{
name = bottom;
position = "{527, 0}";
},
{
name = top;
position = "{342, 536}";
},
{
name = top2;
position = "{524, 536}";
}
);
layerId = "004437BA-C458-42A1-B8EC-F9F2993A06FB";
paths = (
{
closed = 1;
nodes = (
"316 -10 OFFCURVE",
"343 46 OFFCURVE",
"343 114 CURVE SMOOTH",
"343 445 LINE SMOOTH",
"343 484 OFFCURVE",
"360 511 OFFCURVE",
"389 511 CURVE SMOOTH",
"418 511 OFFCURVE",
"435 484 OFFCURVE",
"435 445 CURVE SMOOTH",
"435 -6 LINE",
"484 -6 LINE",
"527 52 LINE",
"527 440 LINE SMOOTH",
"527 504 OFFCURVE",
"489 560 OFFCURVE",
"400 560 CURVE SMOOTH",
"311 560 OFFCURVE",
"274 504 OFFCURVE",
"274 440 CURVE SMOOTH",
"274 102 LINE SMOOTH",
"274 69 OFFCURVE",
"261 39 OFFCURVE",
"232 39 CURVE SMOOTH",
"203 39 OFFCURVE",
"190 69 OFFCURVE",
"190 102 CURVE SMOOTH",
"190 456 LINE SMOOTH",
"190 524 OFFCURVE",
"155 560 OFFCURVE",
"100 560 CURVE SMOOTH",
"47 560 OFFCURVE",
"18 526 OFFCURVE",
"18 468 CURVE SMOOTH",
"18 408 OFFCURVE",
"48 376 OFFCURVE",
"87 376 CURVE SMOOTH",
"94 376 OFFCURVE",
"103 377 OFFCURVE",
"109 380 CURVE",
"98 389 LINE",
"98 114 LINE SMOOTH",
"98 46 OFFCURVE",
"132 -10 OFFCURVE",
"224 -10 CURVE SMOOTH"
);
},
{
closed = 1;
nodes = (
"68 418 OFFCURVE",
"56 435 OFFCURVE",
"56 469 CURVE SMOOTH",
"56 503 OFFCURVE",
"68 521 OFFCURVE",
"92 521 CURVE SMOOTH",
"117 521 OFFCURVE",
"129 503 OFFCURVE",
"129 469 CURVE SMOOTH",
"129 435 OFFCURVE",
"117 418 OFFCURVE",
"92 418 CURVE SMOOTH"
);
}
);
width = 577;
},
{
anchors = (
{
name = bottom;
position = "{627, 0}";
},
{
name = top;
position = "{398, 536}";
},
{
name = top2;
position = "{618, 536}";
}
);
layerId = "5B84B61E-AB9F-4F38-98DA-7F1AA4E54ED0";
paths = (
{
closed = 1;
nodes = (
"375 -12 OFFCURVE",
"407 35 OFFCURVE",
"407 120 CURVE SMOOTH",
"407 462 LINE SMOOTH",
"407 489 OFFCURVE",
"418 505 OFFCURVE",
"436 505 CURVE SMOOTH",
"454 505 OFFCURVE",
"465 489 OFFCURVE",
"465 462 CURVE SMOOTH",
"465 -6 LINE",
"576 -6 LINE",
"627 65 LINE",
"627 432 LINE SMOOTH",
"627 522 OFFCURVE",
"573 562 OFFCURVE",
"470 562 CURVE SMOOTH",
"361 562 OFFCURVE",
"307 517 OFFCURVE",
"307 430 CURVE SMOOTH",
"307 88 LINE SMOOTH",
"307 61 OFFCURVE",
"296 45 OFFCURVE",
"278 45 CURVE SMOOTH",
"259 45 OFFCURVE",
"248 61 OFFCURVE",
"248 88 CURVE SMOOTH",
"248 428 LINE SMOOTH",
"248 514 OFFCURVE",
"210 562 OFFCURVE",
"126 562 CURVE SMOOTH",
"54 562 OFFCURVE",
"16 526 OFFCURVE",
"16 461 CURVE SMOOTH",
"16 400 OFFCURVE",
"48 366 OFFCURVE",
"90 366 CURVE SMOOTH",
"94 366 OFFCURVE",
"97 366 OFFCURVE",
"102 367 CURVE",
"86 386 LINE",
"86 118 LINE SMOOTH",
"86 25 OFFCURVE",
"142 -12 OFFCURVE",
"252 -12 CURVE SMOOTH"
);
},
{
closed = 1;
nodes = (
"73 411 OFFCURVE",
"61 429 OFFCURVE",
"61 460 CURVE SMOOTH",
"61 491 OFFCURVE",
"73 509 OFFCURVE",
"100 509 CURVE SMOOTH",
"127 509 OFFCURVE",
"139 491 OFFCURVE",
"139 460 CURVE SMOOTH",
"139 429 OFFCURVE",
"127 411 OFFCURVE",
"100 411 CURVE SMOOTH"
);
}
);
width = 680;
}
);
leftKerningGroup = boBae;
note = uni0E97;
unicode = 0E97;
},
{
glyphname = "noNok-lao";
lastChange = "2017-06-02 15:50:30 +0000";
layers = (
{
anchors = (
{
name = bottom;
position = "{487, 0}";
},
{
name = top;
position = "{328, 536}";
},
{
name = top2;
position = "{497, 536}";
}
);
layerId = "169B4CCF-67AF-4042-AA6F-C8E438F95C30";
paths = (
{
closed = 1;
nodes = (
"450 -10 OFFCURVE",
"497 37 OFFCURVE",
"497 141 CURVE SMOOTH",
"497 548 LINE",
"487 548 LINE",
"469 527 LINE",
"469 139 LINE SMOOTH",
"469 49 OFFCURVE",
"428 14 OFFCURVE",
"359 14 CURVE SMOOTH",
"285 14 OFFCURVE",
"231 55 OFFCURVE",
"188 119 CURVE",
"182 97 LINE",
"223 32 OFFCURVE",
"277 -10 OFFCURVE",
"361 -10 CURVE SMOOTH"
);
},
{
closed = 1;
nodes = (
"169 -9 OFFCURVE",
"194 36 OFFCURVE",
"194 123 CURVE SMOOTH",
"194 478 LINE SMOOTH",
"194 524 OFFCURVE",
"164 552 OFFCURVE",
"114 552 CURVE SMOOTH",
"66 552 OFFCURVE",
"35 526 OFFCURVE",
"35 479 CURVE SMOOTH",
"35 431 OFFCURVE",
"67 404 OFFCURVE",
"112 404 CURVE SMOOTH",
"133 404 OFFCURVE",
"151 410 OFFCURVE",
"163 424 CURVE",
"166 423 LINE",
"166 96 LINE SMOOTH",
"166 42 OFFCURVE",
"140 15 OFFCURVE",
"77 15 CURVE",
"77 -9 LINE"
);
},
{
closed = 1;
nodes = (
"80 426 OFFCURVE",
"61 445 OFFCURVE",
"61 478 CURVE SMOOTH",
"61 511 OFFCURVE",
"81 530 OFFCURVE",
"114 530 CURVE SMOOTH",
"147 530 OFFCURVE",
"166 511 OFFCURVE",
"166 478 CURVE SMOOTH",
"166 445 OFFCURVE",
"147 426 OFFCURVE",
"113 426 CURVE SMOOTH"
);
}
);
width = 572;
},
{
anchors = (
{
name = bottom;
position = "{531, 0}";
},
{
name = top;
position = "{340, 536}";
},
{
name = top2;
position = "{541, 536}";
}
);
layerId = "A12FF52C-901E-4F1C-B651-FD65F325A5D0";
paths = (
{
closed = 1;
nodes = (
"477 -10 OFFCURVE",
"541 44 OFFCURVE",
"541 144 CURVE SMOOTH",
"541 554 LINE",
"503 554 LINE",
"449 496 LINE",
"449 137 LINE SMOOTH",
"449 76 OFFCURVE",
"422 39 OFFCURVE",
"350 39 CURVE SMOOTH",
"295 39 OFFCURVE",
"243 61 OFFCURVE",
"215 103 CURVE",
"195 60 LINE",
"238 15 OFFCURVE",
"287 -10 OFFCURVE",
"364 -10 CURVE SMOOTH"
);
},
{
closed = 1;
nodes = (
"172 -8 OFFCURVE",
"230 47 OFFCURVE",
"230 156 CURVE SMOOTH",
"230 456 LINE SMOOTH",
"230 524 OFFCURVE",
"185 560 OFFCURVE",
"122 560 CURVE SMOOTH",
"61 560 OFFCURVE",
"25 526 OFFCURVE",
"25 468 CURVE SMOOTH",
"25 408 OFFCURVE",
"65 376 OFFCURVE",
"115 376 CURVE SMOOTH",
"127 376 OFFCURVE",
"139 376 OFFCURVE",
"149 382 CURVE",
"138 395 LINE",
"138 156 LINE SMOOTH",
"138 75 OFFCURVE",
"114 52 OFFCURVE",
"59 52 CURVE",
"59 -8 LINE"
);
},
{
closed = 1;
nodes = (
"89 418 OFFCURVE",
"73 435 OFFCURVE",
"73 469 CURVE SMOOTH",
"73 503 OFFCURVE",
"89 521 OFFCURVE",
"120 521 CURVE SMOOTH",
"152 521 OFFCURVE",
"168 503 OFFCURVE",
"168 469 CURVE SMOOTH",
"168 435 OFFCURVE",
"152 418 OFFCURVE",
"120 418 CURVE SMOOTH"
);
}
);
width = 606;
},
{
anchors = (
{
name = bottom;
position = "{649, 0}";
},
{
name = top;
position = "{394, 536}";
},
{
name = top2;
position = "{659, 536}";
}
);
layerId = "528596C4-5B9B-4A0D-91B5-66A38EFFCD2C";
paths = (
{
closed = 1;
nodes = (
"561 -12 OFFCURVE",
"659 49 OFFCURVE",
"659 167 CURVE SMOOTH",
"659 552 LINE",
"532 552 LINE",
"470 480 LINE",
"470 108 LINE SMOOTH",
"470 67 OFFCURVE",
"443 51 OFFCURVE",
"414 51 CURVE SMOOTH",
"368 51 OFFCURVE",
"325 90 OFFCURVE",
"302 132 CURVE",
"280 80 LINE",
"304 32 OFFCURVE",
"378 -12 OFFCURVE",
"462 -12 CURVE SMOOTH"
);
},
{
closed = 1;
nodes = (
"235 -11 OFFCURVE",
"314 41 OFFCURVE",
"314 147 CURVE SMOOTH",
"314 425 LINE SMOOTH",
"314 513 OFFCURVE",
"267 562 OFFCURVE",
"167 562 CURVE SMOOTH",
"82 562 OFFCURVE",
"36 526 OFFCURVE",
"36 459 CURVE SMOOTH",
"36 398 OFFCURVE",
"74 365 OFFCURVE",
"131 365 CURVE SMOOTH",
"135 365 OFFCURVE",
"140 365 OFFCURVE",
"144 366 CURVE",
"125 387 LINE",
"125 136 LINE SMOOTH",
"125 75 OFFCURVE",
"117 48 OFFCURVE",
"62 48 CURVE",
"62 -12 LINE"
);
},
{
closed = 1;
nodes = (
"106 410 OFFCURVE",
"91 428 OFFCURVE",
"91 459 CURVE SMOOTH",
"91 490 OFFCURVE",
"106 508 OFFCURVE",
"139 508 CURVE SMOOTH",
"172 508 OFFCURVE",
"187 490 OFFCURVE",
"187 459 CURVE SMOOTH",
"187 428 OFFCURVE",
"172 410 OFFCURVE",
"139 410 CURVE SMOOTH"
);
}
);
width = 725;
},
{
anchors = (
{
name = bottom;
position = "{375, 0}";
},
{
name = top;
position = "{251, 536}";
},
{
name = top2;
position = "{383, 536}";
}
);
layerId = "15894915-CD0E-4C5A-A33F-EBC469CF719E";
paths = (
{
closed = 1;
nodes = (
"345 -10 OFFCURVE",
"383 38 OFFCURVE",
"383 141 CURVE SMOOTH",
"383 548 LINE",
"372 548 LINE",
"355 527 LINE",
"355 139 LINE SMOOTH",
"355 50 OFFCURVE",
"325 14 OFFCURVE",
"273 14 CURVE SMOOTH",
"220 14 OFFCURVE",
"179 51 OFFCURVE",
"146 119 CURVE",
"140 97 LINE",
"173 30 OFFCURVE",
"213 -10 OFFCURVE",
"276 -10 CURVE SMOOTH"
);
},
{
closed = 1;
nodes = (
"129 -9 OFFCURVE",
"152 36 OFFCURVE",
"152 123 CURVE SMOOTH",
"152 478 LINE SMOOTH",
"152 524 OFFCURVE",
"127 552 OFFCURVE",
"88 552 CURVE SMOOTH",
"50 552 OFFCURVE",
"26 526 OFFCURVE",
"26 479 CURVE SMOOTH",
"26 431 OFFCURVE",
"51 404 OFFCURVE",
"85 404 CURVE SMOOTH",
"101 404 OFFCURVE",
"114 410 OFFCURVE",
"123 424 CURVE",
"124 423 LINE",
"124 96 LINE SMOOTH",
"124 42 OFFCURVE",
"104 15 OFFCURVE",
"57 15 CURVE",
"57 -9 LINE"
);
},
{
closed = 1;
nodes = (
"62 426 OFFCURVE",
"48 445 OFFCURVE",
"48 478 CURVE SMOOTH",
"48 511 OFFCURVE",
"63 530 OFFCURVE",
"88 530 CURVE SMOOTH",
"113 530 OFFCURVE",
"127 511 OFFCURVE",
"127 478 CURVE SMOOTH",
"127 445 OFFCURVE",
"113 426 OFFCURVE",
"87 426 CURVE SMOOTH"
);
}
);
width = 439;
},
{
anchors = (
{
name = bottom;
position = "{431, 0}";
},
{
name = top;
position = "{271, 536}";
},
{
name = top2;
position = "{439, 536}";
}
);
layerId = "004437BA-C458-42A1-B8EC-F9F2993A06FB";
paths = (
{
closed = 1;
nodes = (
"383 -10 OFFCURVE",
"439 44 OFFCURVE",
"439 144 CURVE SMOOTH",
"439 552 LINE",
"389 552 LINE",
"347 494 LINE",
"347 137 LINE SMOOTH",
"347 76 OFFCURVE",
"327 39 OFFCURVE",
"279 39 CURVE SMOOTH",
"242 39 OFFCURVE",
"204 61 OFFCURVE",
"184 103 CURVE",
"168 60 LINE",
"196 15 OFFCURVE",
"240 -10 OFFCURVE",
"298 -10 CURVE SMOOTH"
);
},
{
closed = 1;
nodes = (
"146 -8 OFFCURVE",
"194 47 OFFCURVE",
"194 156 CURVE SMOOTH",
"194 456 LINE SMOOTH",
"194 524 OFFCURVE",
"159 560 OFFCURVE",
"104 560 CURVE SMOOTH",
"51 560 OFFCURVE",
"22 526 OFFCURVE",
"22 468 CURVE SMOOTH",
"22 408 OFFCURVE",
"52 376 OFFCURVE",
"92 376 CURVE SMOOTH",
"99 376 OFFCURVE",
"106 376 OFFCURVE",
"113 382 CURVE",
"102 395 LINE",
"102 156 LINE SMOOTH",
"102 75 OFFCURVE",
"88 52 OFFCURVE",
"46 52 CURVE",
"46 -8 LINE"
);
},
{
closed = 1;
nodes = (
"72 418 OFFCURVE",
"60 435 OFFCURVE",
"60 469 CURVE SMOOTH",
"60 503 OFFCURVE",
"72 521 OFFCURVE",
"96 521 CURVE SMOOTH",
"121 521 OFFCURVE",
"133 503 OFFCURVE",
"133 469 CURVE SMOOTH",
"133 435 OFFCURVE",
"121 418 OFFCURVE",
"96 418 CURVE SMOOTH"
);
}
);
width = 489;
},
{
anchors = (
{
name = bottom;
position = "{537, 0}";
},
{
name = top;
position = "{324, 536}";
},
{
name = top2;
position = "{545, 536}";
}
);
layerId = "5B84B61E-AB9F-4F38-98DA-7F1AA4E54ED0";
paths = (
{
closed = 1;
nodes = (
"484 -12 OFFCURVE",
"545 47 OFFCURVE",
"545 148 CURVE SMOOTH",
"545 552 LINE",
"433 552 LINE",
"383 482 LINE",
"383 111 LINE SMOOTH",
"383 73 OFFCURVE",
"366 50 OFFCURVE",
"337 50 CURVE SMOOTH",
"305 50 OFFCURVE",
"274 79 OFFCURVE",
"253 129 CURVE",
"235 78 LINE",
"256 21 OFFCURVE",
"311 -12 OFFCURVE",
"385 -12 CURVE SMOOTH"
);
},
{
closed = 1;
nodes = (
"196 -11 OFFCURVE",
"262 41 OFFCURVE",
"262 148 CURVE SMOOTH",
"262 428 LINE SMOOTH",
"262 514 OFFCURVE",
"224 562 OFFCURVE",
"140 562 CURVE SMOOTH",
"68 562 OFFCURVE",
"30 526 OFFCURVE",
"30 460 CURVE SMOOTH",
"30 399 OFFCURVE",
"61 366 OFFCURVE",
"107 366 CURVE SMOOTH",
"110 366 OFFCURVE",
"113 366 OFFCURVE",
"116 368 CURVE",
"100 388 LINE",
"100 138 LINE SMOOTH",
"100 75 OFFCURVE",
"95 48 OFFCURVE",
"50 48 CURVE",
"50 -12 LINE"
);
},
{
closed = 1;
nodes = (
"87 411 OFFCURVE",
"75 429 OFFCURVE",
"75 460 CURVE SMOOTH",
"75 491 OFFCURVE",
"87 509 OFFCURVE",
"114 509 CURVE SMOOTH",
"141 509 OFFCURVE",
"153 491 OFFCURVE",
"153 460 CURVE SMOOTH",
"153 429 OFFCURVE",
"141 411 OFFCURVE",
"114 411 CURVE SMOOTH"
);
}
);
width = 598;
}
);
note = uni0E99;
unicode = 0E99;
},
{
glyphname = "boBae-lao";
lastChange = "2017-06-02 15:50:30 +0000";
layers = (
{
anchors = (
{
name = bottom;
position = "{512, 0}";
},
{
name = top;
position = "{342, 536}";
},
{
name = top2;
position = "{522, 536}";
}
);
layerId = "169B4CCF-67AF-4042-AA6F-C8E438F95C30";
paths = (
{
closed = 1;
nodes = (
"460 -10 OFFCURVE",
"522 48 OFFCURVE",
"522 148 CURVE SMOOTH",
"522 548 LINE",
"512 548 LINE",
"494 527 LINE",
"494 146 LINE SMOOTH",
"494 60 OFFCURVE",
"438 15 OFFCURVE",
"342 15 CURVE SMOOTH",
"249 15 OFFCURVE",
"194 57 OFFCURVE",
"194 146 CURVE SMOOTH",
"194 478 LINE SMOOTH",
"194 524 OFFCURVE",
"164 552 OFFCURVE",
"114 552 CURVE SMOOTH",
"66 552 OFFCURVE",
"35 526 OFFCURVE",
"35 479 CURVE SMOOTH",
"35 431 OFFCURVE",
"67 404 OFFCURVE",
"112 404 CURVE SMOOTH",
"133 404 OFFCURVE",
"151 410 OFFCURVE",
"163 424 CURVE",
"166 423 LINE",
"166 148 LINE SMOOTH",
"166 42 OFFCURVE",
"232 -10 OFFCURVE",
"343 -10 CURVE SMOOTH"
);
},
{
closed = 1;
nodes = (
"80 426 OFFCURVE",
"61 445 OFFCURVE",
"61 478 CURVE SMOOTH",
"61 511 OFFCURVE",
"81 530 OFFCURVE",
"114 530 CURVE SMOOTH",
"147 530 OFFCURVE",
"166 511 OFFCURVE",
"166 478 CURVE SMOOTH",
"166 445 OFFCURVE",
"147 426 OFFCURVE",
"113 426 CURVE SMOOTH"
);
}
);
width = 597;
},
{
anchors = (
{
name = bottom;
position = "{560, 0}";
},
{
name = top;
position = "{354, 536}";
},
{
name = top2;
position = "{570, 536}";
}
);
layerId = "A12FF52C-901E-4F1C-B651-FD65F325A5D0";
paths = (
{
closed = 1;
nodes = (
"494 -10 OFFCURVE",
"570 54 OFFCURVE",
"570 171 CURVE SMOOTH",
"570 554 LINE",
"532 554 LINE",
"478 496 LINE",
"478 165 LINE SMOOTH",
"478 88 OFFCURVE",
"440 39 OFFCURVE",
"353 39 CURVE SMOOTH",
"266 39 OFFCURVE",
"230 88 OFFCURVE",
"230 165 CURVE SMOOTH",
"230 456 LINE SMOOTH",
"230 524 OFFCURVE",
"185 560 OFFCURVE",
"122 560 CURVE SMOOTH",
"61 560 OFFCURVE",
"25 526 OFFCURVE",
"25 469 CURVE SMOOTH",
"25 408 OFFCURVE",
"65 376 OFFCURVE",
"113 376 CURVE SMOOTH",
"128 376 OFFCURVE",
"144 379 OFFCURVE",
"149 380 CURVE",
"138 392 LINE",
"138 171 LINE SMOOTH",
"138 54 OFFCURVE",
"214 -10 OFFCURVE",
"354 -10 CURVE SMOOTH"
);
},
{
closed = 1;
nodes = (
"89 418 OFFCURVE",
"73 435 OFFCURVE",
"73 469 CURVE SMOOTH",
"73 503 OFFCURVE",
"89 521 OFFCURVE",
"120 521 CURVE SMOOTH",
"152 521 OFFCURVE",
"168 503 OFFCURVE",
"168 469 CURVE SMOOTH",
"168 435 OFFCURVE",
"152 418 OFFCURVE",
"120 418 CURVE SMOOTH"
);
}
);
width = 635;
},
{
anchors = (
{
name = bottom;
position = "{642, 0}";
},
{
name = top;
position = "{381, 536}";
},
{
name = top2;
position = "{652, 536}";
}
);
layerId = "528596C4-5B9B-4A0D-91B5-66A38EFFCD2C";
paths = (
{
closed = 1;
nodes = (
"574 -12 OFFCURVE",
"652 44 OFFCURVE",
"652 185 CURVE SMOOTH",
"652 552 LINE",
"526 552 LINE",
"463 479 LINE",
"463 146 LINE SMOOTH",
"463 77 OFFCURVE",
"448 42 OFFCURVE",
"381 42 CURVE SMOOTH",
"313 42 OFFCURVE",
"298 77 OFFCURVE",
"298 146 CURVE SMOOTH",
"298 425 LINE SMOOTH",
"298 513 OFFCURVE",
"251 562 OFFCURVE",
"151 562 CURVE SMOOTH",
"66 562 OFFCURVE",
"20 526 OFFCURVE",
"20 460 CURVE SMOOTH",
"20 399 OFFCURVE",
"60 365 OFFCURVE",
"111 365 CURVE SMOOTH",
"117 365 OFFCURVE",
"122 365 OFFCURVE",
"128 366 CURVE",
"109 386 LINE",
"109 185 LINE SMOOTH",
"109 44 OFFCURVE",
"188 -12 OFFCURVE",
"381 -12 CURVE SMOOTH"
);
},
{
closed = 1;
nodes = (
"90 410 OFFCURVE",
"75 428 OFFCURVE",
"75 459 CURVE SMOOTH",
"75 490 OFFCURVE",
"90 508 OFFCURVE",
"123 508 CURVE SMOOTH",
"156 508 OFFCURVE",
"171 490 OFFCURVE",
"171 459 CURVE SMOOTH",
"171 428 OFFCURVE",
"156 410 OFFCURVE",
"123 410 CURVE SMOOTH"
);
}
);
width = 718;
},
{
anchors = (
{
name = bottom;
position = "{395, 0}";
},
{
name = top;
position = "{262, 536}";
},
{
name = top2;
position = "{402, 536}";
}
);
layerId = "15894915-CD0E-4C5A-A33F-EBC469CF719E";
paths = (
{
closed = 1;
nodes = (
"354 -10 OFFCURVE",
"402 48 OFFCURVE",
"402 148 CURVE SMOOTH",
"402 548 LINE",
"392 548 LINE",
"374 527 LINE",
"374 146 LINE SMOOTH",
"374 60 OFFCURVE",
"334 15 OFFCURVE",
"262 15 CURVE SMOOTH",
"191 15 OFFCURVE",
"152 57 OFFCURVE",
"152 146 CURVE SMOOTH",
"152 478 LINE SMOOTH",
"152 524 OFFCURVE",
"127 552 OFFCURVE",
"88 552 CURVE SMOOTH",
"50 552 OFFCURVE",
"26 526 OFFCURVE",
"26 479 CURVE SMOOTH",
"26 431 OFFCURVE",
"51 404 OFFCURVE",
"85 404 CURVE SMOOTH",
"101 404 OFFCURVE",
"114 410 OFFCURVE",
"123 424 CURVE",
"124 423 LINE",
"124 148 LINE SMOOTH",
"124 42 OFFCURVE",
"175 -10 OFFCURVE",
"262 -10 CURVE SMOOTH"
);
},
{
closed = 1;
nodes = (
"62 426 OFFCURVE",
"48 445 OFFCURVE",
"48 478 CURVE SMOOTH",
"48 511 OFFCURVE",
"63 530 OFFCURVE",
"88 530 CURVE SMOOTH",
"113 530 OFFCURVE",
"127 511 OFFCURVE",
"127 478 CURVE SMOOTH",
"127 445 OFFCURVE",
"113 426 OFFCURVE",
"87 426 CURVE SMOOTH"
);
}
);
width = 458;
},
{
anchors = (
{
name = bottom;
position = "{444, 0}";
},
{
name = top;
position = "{275, 536}";
},
{
name = top2;
position = "{452, 536}";
}
);
layerId = "004437BA-C458-42A1-B8EC-F9F2993A06FB";
paths = (
{
closed = 1;
nodes = (
"394 -10 OFFCURVE",
"452 54 OFFCURVE",
"452 171 CURVE SMOOTH",
"452 552 LINE",
"403 552 LINE",
"360 494 LINE",
"360 165 LINE SMOOTH",
"360 88 OFFCURVE",
"336 39 OFFCURVE",
"275 39 CURVE SMOOTH",
"213 39 OFFCURVE",
"190 88 OFFCURVE",
"190 165 CURVE SMOOTH",
"190 456 LINE SMOOTH",
"190 524 OFFCURVE",
"155 560 OFFCURVE",
"100 560 CURVE SMOOTH",
"47 560 OFFCURVE",
"18 526 OFFCURVE",
"18 468 CURVE SMOOTH",
"18 408 OFFCURVE",
"49 376 OFFCURVE",
"85 376 CURVE SMOOTH",
"96 376 OFFCURVE",
"105 379 OFFCURVE",
"109 380 CURVE",
"98 392 LINE",
"98 171 LINE SMOOTH",
"98 54 OFFCURVE",
"157 -10 OFFCURVE",
"275 -10 CURVE SMOOTH"
);
},
{
closed = 1;
nodes = (
"68 418 OFFCURVE",
"56 435 OFFCURVE",
"56 469 CURVE SMOOTH",
"56 503 OFFCURVE",
"68 521 OFFCURVE",
"92 521 CURVE SMOOTH",
"117 521 OFFCURVE",
"129 503 OFFCURVE",
"129 469 CURVE SMOOTH",
"129 435 OFFCURVE",
"117 418 OFFCURVE",
"92 418 CURVE SMOOTH"
);
}
);
width = 502;
},
{
anchors = (
{
name = bottom;
position = "{529, 0}";
},
{
name = top;
position = "{312, 536}";
},
{
name = top2;
position = "{537, 536}";
}
);
layerId = "5B84B61E-AB9F-4F38-98DA-7F1AA4E54ED0";
paths = (
{
closed = 1;
nodes = (
"463 -12 OFFCURVE",
"537 43 OFFCURVE",
"537 154 CURVE SMOOTH",
"537 552 LINE",
"425 552 LINE",
"375 481 LINE",
"375 137 LINE SMOOTH",
"375 73 OFFCURVE",
"354 42 OFFCURVE",
"312 42 CURVE SMOOTH",
"269 42 OFFCURVE",
"248 73 OFFCURVE",
"248 137 CURVE SMOOTH",
"248 428 LINE SMOOTH",
"248 514 OFFCURVE",
"210 562 OFFCURVE",
"126 562 CURVE SMOOTH",
"54 562 OFFCURVE",
"16 526 OFFCURVE",
"16 461 CURVE SMOOTH",
"16 400 OFFCURVE",
"48 366 OFFCURVE",
"90 366 CURVE SMOOTH",
"94 366 OFFCURVE",
"97 366 OFFCURVE",
"102 367 CURVE",
"86 386 LINE",
"86 154 LINE SMOOTH",
"86 43 OFFCURVE",
"160 -12 OFFCURVE",
"312 -12 CURVE SMOOTH"
);
},
{
closed = 1;
nodes = (
"73 411 OFFCURVE",
"61 429 OFFCURVE",
"61 460 CURVE SMOOTH",
"61 491 OFFCURVE",
"73 509 OFFCURVE",
"100 509 CURVE SMOOTH",
"127 509 OFFCURVE",
"139 491 OFFCURVE",
"139 460 CURVE SMOOTH",
"139 429 OFFCURVE",
"127 411 OFFCURVE",
"100 411 CURVE SMOOTH"
);
}
);
width = 590;
}
);
leftKerningGroup = boBae;
note = uni0E9A;
unicode = 0E9A;
},
{
glyphname = "poPa-lao";
lastChange = "2017-06-02 15:50:30 +0000";
layers = (
{
anchors = (
{
name = bottom;
position = "{512, 0}";
},
{
name = top;
position = "{306, 536}";
}
);
layerId = "169B4CCF-67AF-4042-AA6F-C8E438F95C30";
paths = (
{
closed = 1;
nodes = (
"460 -10 OFFCURVE",
"522 48 OFFCURVE",
"522 148 CURVE SMOOTH",
"522 772 LINE",
"512 772 LINE",
"494 751 LINE",
"494 146 LINE SMOOTH",
"494 60 OFFCURVE",
"438 15 OFFCURVE",
"342 15 CURVE SMOOTH",
"249 15 OFFCURVE",
"194 57 OFFCURVE",
"194 146 CURVE SMOOTH",
"194 478 LINE SMOOTH",
"194 524 OFFCURVE",
"164 552 OFFCURVE",
"114 552 CURVE SMOOTH",
"66 552 OFFCURVE",
"35 526 OFFCURVE",
"35 479 CURVE SMOOTH",
"35 431 OFFCURVE",
"67 404 OFFCURVE",
"112 404 CURVE SMOOTH",
"133 404 OFFCURVE",
"151 410 OFFCURVE",
"163 424 CURVE",
"166 423 LINE",
"166 148 LINE SMOOTH",
"166 42 OFFCURVE",
"232 -10 OFFCURVE",
"343 -10 CURVE SMOOTH"
);
},
{
closed = 1;
nodes = (
"80 426 OFFCURVE",
"61 445 OFFCURVE",
"61 478 CURVE SMOOTH",
"61 511 OFFCURVE",
"81 530 OFFCURVE",
"114 530 CURVE SMOOTH",
"147 530 OFFCURVE",
"166 511 OFFCURVE",
"166 478 CURVE SMOOTH",
"166 445 OFFCURVE",
"147 426 OFFCURVE",
"113 426 CURVE SMOOTH"
);
}
);
width = 607;
},
{
anchors = (
{
name = bottom;
position = "{560, 0}";
},
{
name = top;
position = "{309, 536}";
}
);
layerId = "A12FF52C-901E-4F1C-B651-FD65F325A5D0";
paths = (
{
closed = 1;
nodes = (
"494 -10 OFFCURVE",
"570 54 OFFCURVE",
"570 171 CURVE SMOOTH",
"570 772 LINE",
"532 772 LINE",
"478 714 LINE",
"478 165 LINE SMOOTH",
"478 88 OFFCURVE",
"440 39 OFFCURVE",
"353 39 CURVE SMOOTH",
"266 39 OFFCURVE",
"230 88 OFFCURVE",
"230 165 CURVE SMOOTH",
"230 456 LINE SMOOTH",
"230 524 OFFCURVE",
"185 560 OFFCURVE",
"122 560 CURVE SMOOTH",
"61 560 OFFCURVE",
"25 526 OFFCURVE",
"25 469 CURVE SMOOTH",
"25 408 OFFCURVE",
"65 376 OFFCURVE",
"113 376 CURVE SMOOTH",
"128 376 OFFCURVE",
"144 379 OFFCURVE",
"149 380 CURVE",
"138 393 LINE",
"138 171 LINE SMOOTH",
"138 54 OFFCURVE",
"214 -10 OFFCURVE",
"354 -10 CURVE SMOOTH"
);
},
{
closed = 1;
nodes = (
"89 418 OFFCURVE",
"73 435 OFFCURVE",
"73 469 CURVE SMOOTH",
"73 503 OFFCURVE",
"89 521 OFFCURVE",
"120 521 CURVE SMOOTH",
"152 521 OFFCURVE",
"168 503 OFFCURVE",
"168 469 CURVE SMOOTH",
"168 435 OFFCURVE",
"152 418 OFFCURVE",
"120 418 CURVE SMOOTH"
);
}
);
width = 645;
},
{
anchors = (
{
name = bottom;
position = "{652, 0}";
},
{
name = top;
position = "{294, 536}";
}
);
layerId = "528596C4-5B9B-4A0D-91B5-66A38EFFCD2C";
paths = (
{
closed = 1;
nodes = (
"579 -12 OFFCURVE",
"662 44 OFFCURVE",
"662 185 CURVE SMOOTH",
"662 774 LINE",
"536 774 LINE",
"473 701 LINE",
"473 146 LINE SMOOTH",
"473 72 OFFCURVE",
"453 42 OFFCURVE",
"386 42 CURVE SMOOTH",
"318 42 OFFCURVE",
"298 72 OFFCURVE",
"298 146 CURVE SMOOTH",
"298 425 LINE SMOOTH",
"298 513 OFFCURVE",
"251 562 OFFCURVE",
"151 562 CURVE SMOOTH",
"66 562 OFFCURVE",
"20 526 OFFCURVE",
"20 460 CURVE SMOOTH",
"20 399 OFFCURVE",
"60 365 OFFCURVE",
"111 365 CURVE SMOOTH",
"117 365 OFFCURVE",
"122 365 OFFCURVE",
"128 366 CURVE",
"109 386 LINE",
"109 185 LINE SMOOTH",
"109 44 OFFCURVE",
"193 -12 OFFCURVE",
"386 -12 CURVE SMOOTH"
);
},
{
closed = 1;
nodes = (
"90 410 OFFCURVE",
"75 428 OFFCURVE",
"75 459 CURVE SMOOTH",
"75 490 OFFCURVE",
"90 508 OFFCURVE",
"123 508 CURVE SMOOTH",
"156 508 OFFCURVE",
"171 490 OFFCURVE",
"171 459 CURVE SMOOTH",
"171 428 OFFCURVE",
"156 410 OFFCURVE",
"123 410 CURVE SMOOTH"
);
}
);
width = 738;
},
{
anchors = (
{
name = bottom;
position = "{395, 0}";
},
{
name = top;
position = "{233, 536}";
}
);
layerId = "15894915-CD0E-4C5A-A33F-EBC469CF719E";
paths = (
{
closed = 1;
nodes = (
"354 -10 OFFCURVE",
"402 48 OFFCURVE",
"402 148 CURVE SMOOTH",
"402 772 LINE",
"392 772 LINE",
"374 751 LINE",
"374 146 LINE SMOOTH",
"374 60 OFFCURVE",
"334 15 OFFCURVE",
"262 15 CURVE SMOOTH",
"191 15 OFFCURVE",
"152 57 OFFCURVE",
"152 146 CURVE SMOOTH",
"152 478 LINE SMOOTH",
"152 524 OFFCURVE",
"127 552 OFFCURVE",
"88 552 CURVE SMOOTH",
"50 552 OFFCURVE",
"26 526 OFFCURVE",
"26 479 CURVE SMOOTH",
"26 431 OFFCURVE",
"51 404 OFFCURVE",
"85 404 CURVE SMOOTH",
"101 404 OFFCURVE",
"114 410 OFFCURVE",
"123 424 CURVE",
"124 423 LINE",
"124 148 LINE SMOOTH",
"124 42 OFFCURVE",
"175 -10 OFFCURVE",
"262 -10 CURVE SMOOTH"
);
},
{
closed = 1;
nodes = (
"62 426 OFFCURVE",
"48 445 OFFCURVE",
"48 478 CURVE SMOOTH",
"48 511 OFFCURVE",
"63 530 OFFCURVE",
"88 530 CURVE SMOOTH",
"113 530 OFFCURVE",
"127 511 OFFCURVE",
"127 478 CURVE SMOOTH",
"127 445 OFFCURVE",
"113 426 OFFCURVE",
"87 426 CURVE SMOOTH"
);
}
);
width = 466;
},
{
anchors = (
{
name = bottom;
position = "{447, 0}";
},
{
name = top;
position = "{232, 536}";
}
);
layerId = "004437BA-C458-42A1-B8EC-F9F2993A06FB";
paths = (
{
closed = 1;
nodes = (
"395 -10 OFFCURVE",
"454 54 OFFCURVE",
"454 171 CURVE SMOOTH",
"454 772 LINE",
"405 772 LINE",
"362 714 LINE",
"362 165 LINE SMOOTH",
"362 88 OFFCURVE",
"337 39 OFFCURVE",
"276 39 CURVE SMOOTH",
"214 39 OFFCURVE",
"190 88 OFFCURVE",
"190 165 CURVE SMOOTH",
"190 456 LINE SMOOTH",
"190 524 OFFCURVE",
"155 560 OFFCURVE",
"100 560 CURVE SMOOTH",
"47 560 OFFCURVE",
"18 526 OFFCURVE",
"18 468 CURVE SMOOTH",
"18 408 OFFCURVE",
"49 376 OFFCURVE",
"85 376 CURVE SMOOTH",
"96 376 OFFCURVE",
"105 379 OFFCURVE",
"109 380 CURVE",
"98 393 LINE",
"98 171 LINE SMOOTH",
"98 54 OFFCURVE",
"158 -10 OFFCURVE",
"276 -10 CURVE SMOOTH"
);
},
{
closed = 1;
nodes = (
"68 418 OFFCURVE",
"56 435 OFFCURVE",
"56 469 CURVE SMOOTH",
"56 503 OFFCURVE",
"68 521 OFFCURVE",
"92 521 CURVE SMOOTH",
"117 521 OFFCURVE",
"129 503 OFFCURVE",
"129 469 CURVE SMOOTH",
"129 435 OFFCURVE",
"117 418 OFFCURVE",
"92 418 CURVE SMOOTH"
);
}
);
width = 511;
},
{
anchors = (
{
name = bottom;
position = "{538, 0}";
},
{
name = top;
position = "{237, 536}";
}
);
layerId = "5B84B61E-AB9F-4F38-98DA-7F1AA4E54ED0";
paths = (
{
closed = 1;
nodes = (
"460 -12 OFFCURVE",
"545 50 OFFCURVE",
"545 154 CURVE SMOOTH",
"545 774 LINE",
"433 774 LINE",
"383 703 LINE",
"383 137 LINE SMOOTH",
"383 74 OFFCURVE",
"362 42 OFFCURVE",
"317 42 CURVE SMOOTH",
"273 42 OFFCURVE",
"248 72 OFFCURVE",
"248 137 CURVE SMOOTH",
"248 428 LINE SMOOTH",
"248 514 OFFCURVE",
"210 562 OFFCURVE",
"126 562 CURVE SMOOTH",
"54 562 OFFCURVE",
"16 526 OFFCURVE",
"16 461 CURVE SMOOTH",
"16 400 OFFCURVE",
"48 366 OFFCURVE",
"90 366 CURVE SMOOTH",
"94 366 OFFCURVE",
"97 366 OFFCURVE",
"102 367 CURVE",
"86 386 LINE",
"86 154 LINE SMOOTH",
"86 50 OFFCURVE",
"171 -12 OFFCURVE",
"316 -12 CURVE SMOOTH"
);
},
{
closed = 1;
nodes = (
"73 411 OFFCURVE",
"61 429 OFFCURVE",
"61 460 CURVE SMOOTH",
"61 491 OFFCURVE",
"73 509 OFFCURVE",
"100 509 CURVE SMOOTH",
"127 509 OFFCURVE",
"139 491 OFFCURVE",
"139 460 CURVE SMOOTH",
"139 429 OFFCURVE",
"127 411 OFFCURVE",
"100 411 CURVE SMOOTH"
);
}
);
width = 607;
}
);
leftKerningGroup = boBae;
note = uni0E9B;
unicode = 0E9B;
},
{
glyphname = "phoPhueng-lao";
lastChange = "2017-06-02 15:50:30 +0000";
layers = (
{
anchors = (
{
name = bottom;
position = "{513, 0}";
},
{
name = top;
position = "{337, 536}";
},
{
name = top2;
position = "{522, 536}";
}
);
layerId = "169B4CCF-67AF-4042-AA6F-C8E438F95C30";
paths = (
{
closed = 1;
nodes = (
"240 -10 OFFCURVE",
"276 12 OFFCURVE",
"298 67 CURVE",
"300 67 LINE",
"322 12 OFFCURVE",
"358 -10 OFFCURVE",
"409 -10 CURVE SMOOTH",
"481 -10 OFFCURVE",
"523 33 OFFCURVE",
"523 128 CURVE SMOOTH",
"523 478 LINE SMOOTH",
"523 524 OFFCURVE",
"492 552 OFFCURVE",
"443 552 CURVE SMOOTH",
"394 552 OFFCURVE",
"363 523 OFFCURVE",
"363 479 CURVE SMOOTH",
"363 434 OFFCURVE",
"395 405 OFFCURVE",
"441 405 CURVE SMOOTH",
"462 405 OFFCURVE",
"483 411 OFFCURVE",
"495 423 CURVE",
"495 124 LINE SMOOTH",
"495 47 OFFCURVE",
"466 15 OFFCURVE",
"410 15 CURVE SMOOTH",
"340 15 OFFCURVE",
"313 66 OFFCURVE",
"313 140 CURVE SMOOTH",
"313 307 LINE",
"285 307 LINE",
"285 140 LINE SMOOTH",
"285 66 OFFCURVE",
"258 15 OFFCURVE",
"188 15 CURVE SMOOTH",
"132 15 OFFCURVE",
"103 47 OFFCURVE",
"103 124 CURVE SMOOTH",
"103 423 LINE",
"115 411 OFFCURVE",
"136 405 OFFCURVE",
"157 405 CURVE SMOOTH",
"203 405 OFFCURVE",
"235 434 OFFCURVE",
"235 479 CURVE SMOOTH",
"235 523 OFFCURVE",
"204 552 OFFCURVE",
"155 552 CURVE SMOOTH",
"106 552 OFFCURVE",
"75 524 OFFCURVE",
"75 478 CURVE SMOOTH",
"75 128 LINE SMOOTH",
"75 33 OFFCURVE",
"117 -10 OFFCURVE",
"189 -10 CURVE SMOOTH"
);
},
{
closed = 1;
nodes = (
"122 426 OFFCURVE",
"104 445 OFFCURVE",
"104 478 CURVE SMOOTH",
"104 511 OFFCURVE",
"123 530 OFFCURVE",
"156 530 CURVE SMOOTH",
"189 530 OFFCURVE",
"209 511 OFFCURVE",
"209 478 CURVE SMOOTH",
"209 445 OFFCURVE",
"190 426 OFFCURVE",
"156 426 CURVE SMOOTH"
);
},
{
closed = 1;
nodes = (
"408 426 OFFCURVE",
"389 445 OFFCURVE",
"389 478 CURVE SMOOTH",
"389 511 OFFCURVE",
"409 530 OFFCURVE",
"442 530 CURVE SMOOTH",
"475 530 OFFCURVE",
"494 511 OFFCURVE",
"494 478 CURVE SMOOTH",
"494 445 OFFCURVE",
"476 426 OFFCURVE",
"442 426 CURVE SMOOTH"
);
},
{
closed = 1;
nodes = (
"552 476 OFFCURVE",
"562 509 OFFCURVE",
"562 544 CURVE SMOOTH",
"562 571 OFFCURVE",
"556 585 OFFCURVE",
"540 585 CURVE SMOOTH",
"536 585 OFFCURVE",
"532 584 OFFCURVE",
"527 582 CURVE",
"532 571 OFFCURVE",
"535 557 OFFCURVE",
"535 543 CURVE SMOOTH",
"535 514 OFFCURVE",
"523 482 OFFCURVE",
"507 463 CURVE",
"507 444 LINE"
);
}
);
width = 607;
},
{
anchors = (
{
name = bottom;
position = "{607, 0}";
},
{
name = top;
position = "{360, 536}";
},
{
name = top2;
position = "{617, 536}";
}
);
layerId = "A12FF52C-901E-4F1C-B651-FD65F325A5D0";
paths = (
{
closed = 1;
nodes = (
"269 -10 OFFCURVE",
"324 20 OFFCURVE",
"339 79 CURVE",
"343 79 LINE",
"358 20 OFFCURVE",
"414 -10 OFFCURVE",
"479 -10 CURVE SMOOTH",
"570 -10 OFFCURVE",
"617 49 OFFCURVE",
"617 127 CURVE SMOOTH",
"617 456 LINE SMOOTH",
"617 524 OFFCURVE",
"573 560 OFFCURVE",
"510 560 CURVE SMOOTH",
"449 560 OFFCURVE",
"412 526 OFFCURVE",
"412 468 CURVE SMOOTH",
"412 408 OFFCURVE",
"452 376 OFFCURVE",
"502 376 CURVE SMOOTH",
"510 376 OFFCURVE",
"519 376 OFFCURVE",
"525 377 CURVE",
"525 124 LINE SMOOTH",
"525 70 OFFCURVE",
"503 39 OFFCURVE",
"455 39 CURVE SMOOTH",
"409 39 OFFCURVE",
"380 68 OFFCURVE",
"380 128 CURVE SMOOTH",
"380 303 LINE",
"301 303 LINE",
"301 128 LINE SMOOTH",
"301 68 OFFCURVE",
"272 39 OFFCURVE",
"226 39 CURVE SMOOTH",
"178 39 OFFCURVE",
"157 70 OFFCURVE",
"157 124 CURVE SMOOTH",
"157 377 LINE",
"163 376 OFFCURVE",
"172 376 OFFCURVE",
"180 376 CURVE SMOOTH",
"230 376 OFFCURVE",
"270 408 OFFCURVE",
"270 468 CURVE SMOOTH",
"270 526 OFFCURVE",
"233 560 OFFCURVE",
"172 560 CURVE SMOOTH",
"109 560 OFFCURVE",
"65 524 OFFCURVE",
"65 456 CURVE SMOOTH",
"65 127 LINE SMOOTH",
"65 49 OFFCURVE",
"113 -10 OFFCURVE",
"204 -10 CURVE SMOOTH"
);
},
{
closed = 1;
nodes = (
"142 418 OFFCURVE",
"126 435 OFFCURVE",
"126 469 CURVE SMOOTH",
"126 503 OFFCURVE",
"142 521 OFFCURVE",
"174 521 CURVE SMOOTH",
"206 521 OFFCURVE",
"222 503 OFFCURVE",
"222 469 CURVE SMOOTH",
"222 435 OFFCURVE",
"206 418 OFFCURVE",
"174 418 CURVE SMOOTH"
);
},
{
closed = 1;
nodes = (
"476 418 OFFCURVE",
"460 435 OFFCURVE",
"460 469 CURVE SMOOTH",
"460 503 OFFCURVE",
"476 521 OFFCURVE",
"508 521 CURVE SMOOTH",
"540 521 OFFCURVE",
"556 503 OFFCURVE",
"556 469 CURVE SMOOTH",
"556 435 OFFCURVE",
"540 418 OFFCURVE",
"508 418 CURVE SMOOTH"
);
},
{
closed = 1;
nodes = (
"658 436 OFFCURVE",
"698 484 OFFCURVE",
"698 536 CURVE SMOOTH",
"698 578 OFFCURVE",
"671 593 OFFCURVE",
"643 593 CURVE SMOOTH",
"635 593 OFFCURVE",
"625 592 OFFCURVE",
"619 589 CURVE",
"625 575 OFFCURVE",
"628 561 OFFCURVE",
"628 546 CURVE SMOOTH",
"628 521 OFFCURVE",
"620 489 OFFCURVE",
"598 470 CURVE",
"601 407 LINE"
);
}
);
width = 723;
},
{
anchors = (
{
name = bottom;
position = "{688, 0}";
},
{
name = top;
position = "{391, 536}";
},
{
name = top2;
position = "{688, 536}";
}
);
layerId = "528596C4-5B9B-4A0D-91B5-66A38EFFCD2C";
paths = (
{
closed = 1;
nodes = (
"314 -12 OFFCURVE",
"355 15 OFFCURVE",
"374 72 CURVE",
"380 72 LINE",
"398 15 OFFCURVE",
"439 -12 OFFCURVE",
"530 -12 CURVE SMOOTH",
"671 -12 OFFCURVE",
"698 52 OFFCURVE",
"698 144 CURVE SMOOTH",
"698 403 LINE SMOOTH",
"698 507 OFFCURVE",
"649 562 OFFCURVE",
"534 562 CURVE SMOOTH",
"438 562 OFFCURVE",
"403 523 OFFCURVE",
"403 460 CURVE SMOOTH",
"403 391 OFFCURVE",
"444 366 OFFCURVE",
"499 366 CURVE SMOOTH",
"503 366 OFFCURVE",
"509 366 OFFCURVE",
"514 367 CURVE",
"514 95 LINE SMOOTH",
"514 68 OFFCURVE",
"503 51 OFFCURVE",
"478 51 CURVE SMOOTH",
"447 51 OFFCURVE",
"437 78 OFFCURVE",
"437 106 CURVE SMOOTH",
"437 303 LINE",
"317 303 LINE",
"317 106 LINE SMOOTH",
"317 78 OFFCURVE",
"307 51 OFFCURVE",
"275 51 CURVE SMOOTH",
"250 51 OFFCURVE",
"240 68 OFFCURVE",
"240 95 CURVE SMOOTH",
"240 367 LINE",
"245 366 OFFCURVE",
"250 366 OFFCURVE",
"255 366 CURVE SMOOTH",
"310 366 OFFCURVE",
"351 391 OFFCURVE",
"351 460 CURVE SMOOTH",
"351 524 OFFCURVE",
"315 562 OFFCURVE",
"219 562 CURVE SMOOTH",
"104 562 OFFCURVE",
"56 507 OFFCURVE",
"56 403 CURVE SMOOTH",
"56 144 LINE SMOOTH",
"56 52 OFFCURVE",
"83 -12 OFFCURVE",
"223 -12 CURVE SMOOTH"
);
},
{
closed = 1;
nodes = (
"214 410 OFFCURVE",
"200 428 OFFCURVE",
"200 459 CURVE SMOOTH",
"200 490 OFFCURVE",
"214 508 OFFCURVE",
"248 508 CURVE SMOOTH",
"281 508 OFFCURVE",
"295 490 OFFCURVE",
"295 459 CURVE SMOOTH",
"295 428 OFFCURVE",
"281 410 OFFCURVE",
"248 410 CURVE SMOOTH"
);
},
{
closed = 1;
nodes = (
"473 410 OFFCURVE",
"458 428 OFFCURVE",
"458 459 CURVE SMOOTH",
"458 490 OFFCURVE",
"473 508 OFFCURVE",
"506 508 CURVE SMOOTH",
"540 508 OFFCURVE",
"554 490 OFFCURVE",
"554 459 CURVE SMOOTH",
"554 428 OFFCURVE",
"540 410 OFFCURVE",
"506 410 CURVE SMOOTH"
);
},
{
closed = 1;
nodes = (
"666 404 OFFCURVE",
"759 455 OFFCURVE",
"759 532 CURVE SMOOTH",
"759 576 OFFCURVE",
"729 591 OFFCURVE",
"701 591 CURVE SMOOTH",
"693 591 OFFCURVE",
"678 590 OFFCURVE",
"672 587 CURVE",
"678 573 OFFCURVE",
"681 559 OFFCURVE",
"681 544 CURVE SMOOTH",
"681 494 OFFCURVE",
"647 443 OFFCURVE",
"601 429 CURVE",
"601 383 LINE"
);
}
);
width = 788;
},
{
anchors = (
{
name = bottom;
position = "{400, 0}";
},
{
name = top;
position = "{259, 536}";
},
{
name = top2;
position = "{407, 536}";
}
);
layerId = "15894915-CD0E-4C5A-A33F-EBC469CF719E";
paths = (
{
closed = 1;
nodes = (
"185 -10 OFFCURVE",
"215 12 OFFCURVE",
"231 67 CURVE",
"233 67 LINE",
"249 12 OFFCURVE",
"278 -10 OFFCURVE",
"318 -10 CURVE SMOOTH",
"375 -10 OFFCURVE",
"407 33 OFFCURVE",
"407 128 CURVE SMOOTH",
"407 478 LINE SMOOTH",
"407 524 OFFCURVE",
"382 552 OFFCURVE",
"344 552 CURVE SMOOTH",
"305 552 OFFCURVE",
"281 523 OFFCURVE",
"281 479 CURVE SMOOTH",
"281 435 OFFCURVE",
"306 405 OFFCURVE",
"341 405 CURVE SMOOTH",
"356 405 OFFCURVE",
"371 411 OFFCURVE",
"379 423 CURVE",
"379 124 LINE SMOOTH",
"379 48 OFFCURVE",
"358 15 OFFCURVE",
"317 15 CURVE SMOOTH",
"266 15 OFFCURVE",
"245 65 OFFCURVE",
"245 140 CURVE SMOOTH",
"245 307 LINE",
"218 307 LINE",
"218 140 LINE SMOOTH",
"218 65 OFFCURVE",
"198 15 OFFCURVE",
"146 15 CURVE SMOOTH",
"105 15 OFFCURVE",
"84 47 OFFCURVE",
"84 124 CURVE SMOOTH",
"84 423 LINE",
"92 411 OFFCURVE",
"107 405 OFFCURVE",
"122 405 CURVE SMOOTH",
"157 405 OFFCURVE",
"182 434 OFFCURVE",
"182 479 CURVE SMOOTH",
"182 523 OFFCURVE",
"158 552 OFFCURVE",
"119 552 CURVE SMOOTH",
"81 552 OFFCURVE",
"56 524 OFFCURVE",
"56 478 CURVE SMOOTH",
"56 128 LINE SMOOTH",
"56 33 OFFCURVE",
"89 -10 OFFCURVE",
"145 -10 CURVE SMOOTH"
);
},
{
closed = 1;
nodes = (
"95 426 OFFCURVE",
"81 445 OFFCURVE",
"81 478 CURVE SMOOTH",
"81 511 OFFCURVE",
"96 530 OFFCURVE",
"121 530 CURVE SMOOTH",
"145 530 OFFCURVE",
"160 511 OFFCURVE",
"160 478 CURVE SMOOTH",
"160 445 OFFCURVE",
"146 426 OFFCURVE",
"121 426 CURVE SMOOTH"
);
},
{
closed = 1;
nodes = (
"317 426 OFFCURVE",
"303 445 OFFCURVE",
"303 478 CURVE SMOOTH",
"303 511 OFFCURVE",
"318 530 OFFCURVE",
"343 530 CURVE SMOOTH",
"368 530 OFFCURVE",
"382 511 OFFCURVE",
"382 478 CURVE SMOOTH",
"382 445 OFFCURVE",
"369 426 OFFCURVE",
"343 426 CURVE SMOOTH"
);
},
{
closed = 1;
nodes = (
"431 476 OFFCURVE",
"441 509 OFFCURVE",
"441 544 CURVE SMOOTH",
"441 571 OFFCURVE",
"435 585 OFFCURVE",
"421 585 CURVE SMOOTH",
"418 585 OFFCURVE",
"414 584 OFFCURVE",
"410 582 CURVE",
"414 571 OFFCURVE",
"416 557 OFFCURVE",
"416 543 CURVE SMOOTH",
"416 514 OFFCURVE",
"408 482 OFFCURVE",
"395 463 CURVE",
"395 444 LINE"
);
}
);
width = 473;
},
{
anchors = (
{
name = bottom;
position = "{479, 0}";
},
{
name = top;
position = "{280, 536}";
},
{
name = top2;
position = "{485, 536}";
}
);
layerId = "004437BA-C458-42A1-B8EC-F9F2993A06FB";
paths = (
{
closed = 1;
nodes = (
"214 -10 OFFCURVE",
"253 20 OFFCURVE",
"265 79 CURVE",
"269 79 LINE",
"282 17 OFFCURVE",
"322 -10 OFFCURVE",
"376 -10 CURVE SMOOTH",
"455 -10 OFFCURVE",
"487 48 OFFCURVE",
"487 127 CURVE SMOOTH",
"487 456 LINE SMOOTH",
"487 524 OFFCURVE",
"452 560 OFFCURVE",
"394 560 CURVE SMOOTH",
"338 560 OFFCURVE",
"311 526 OFFCURVE",
"311 469 CURVE SMOOTH",
"311 408 OFFCURVE",
"341 376 OFFCURVE",
"380 376 CURVE SMOOTH",
"386 376 OFFCURVE",
"392 376 OFFCURVE",
"396 377 CURVE",
"396 124 LINE SMOOTH",
"396 69 OFFCURVE",
"382 39 OFFCURVE",
"351 39 CURVE SMOOTH",
"319 39 OFFCURVE",
"301 69 OFFCURVE",
"301 128 CURVE SMOOTH",
"301 303 LINE",
"232 303 LINE",
"232 128 LINE SMOOTH",
"232 68 OFFCURVE",
"214 39 OFFCURVE",
"183 39 CURVE SMOOTH",
"151 39 OFFCURVE",
"138 70 OFFCURVE",
"138 124 CURVE SMOOTH",
"138 377 LINE",
"142 376 OFFCURVE",
"148 376 OFFCURVE",
"154 376 CURVE SMOOTH",
"193 376 OFFCURVE",
"223 408 OFFCURVE",
"223 468 CURVE SMOOTH",
"223 526 OFFCURVE",
"196 560 OFFCURVE",
"140 560 CURVE SMOOTH",
"82 560 OFFCURVE",
"47 524 OFFCURVE",
"47 456 CURVE SMOOTH",
"47 127 LINE SMOOTH",
"47 50 OFFCURVE",
"79 -10 OFFCURVE",
"158 -10 CURVE SMOOTH"
);
},
{
closed = 1;
nodes = (
"124 418 OFFCURVE",
"112 435 OFFCURVE",
"112 469 CURVE SMOOTH",
"112 503 OFFCURVE",
"124 521 OFFCURVE",
"149 521 CURVE SMOOTH",
"173 521 OFFCURVE",
"185 503 OFFCURVE",
"185 469 CURVE SMOOTH",
"185 435 OFFCURVE",
"173 418 OFFCURVE",
"149 418 CURVE SMOOTH"
);
},
{
closed = 1;
nodes = (
"361 418 OFFCURVE",
"349 435 OFFCURVE",
"349 469 CURVE SMOOTH",
"349 503 OFFCURVE",
"361 521 OFFCURVE",
"385 521 CURVE SMOOTH",
"410 521 OFFCURVE",
"422 503 OFFCURVE",
"422 469 CURVE SMOOTH",
"422 435 OFFCURVE",
"410 418 OFFCURVE",
"385 418 CURVE SMOOTH"
);
},
{
closed = 1;
nodes = (
"502 436 OFFCURVE",
"544 483 OFFCURVE",
"544 538 CURVE SMOOTH",
"544 576 OFFCURVE",
"524 593 OFFCURVE",
"501 593 CURVE SMOOTH",
"495 593 OFFCURVE",
"487 592 OFFCURVE",
"482 589 CURVE",
"487 575 OFFCURVE",
"489 560 OFFCURVE",
"489 548 CURVE SMOOTH",
"489 520 OFFCURVE",
"477 489 OFFCURVE",
"455 470 CURVE",
"456 407 LINE"
);
}
);
width = 564;
},
{
anchors = (
{
name = bottom;
position = "{565, 0}";
},
{
name = top;
position = "{319, 536}";
},
{
name = top2;
position = "{564, 536}";
}
);
layerId = "5B84B61E-AB9F-4F38-98DA-7F1AA4E54ED0";
paths = (
{
closed = 1;
nodes = (
"258 -12 OFFCURVE",
"290 16 OFFCURVE",
"306 73 CURVE",
"311 73 LINE",
"326 15 OFFCURVE",
"357 -12 OFFCURVE",
"434 -12 CURVE SMOOTH",
"553 -12 OFFCURVE",
"573 52 OFFCURVE",
"573 142 CURVE SMOOTH",
"573 408 LINE SMOOTH",
"573 508 OFFCURVE",
"533 562 OFFCURVE",
"435 562 CURVE SMOOTH",
"353 562 OFFCURVE",
"325 524 OFFCURVE",
"325 461 CURVE SMOOTH",
"325 393 OFFCURVE",
"358 367 OFFCURVE",
"403 367 CURVE SMOOTH",
"406 367 OFFCURVE",
"410 367 OFFCURVE",
"414 368 CURVE",
"414 98 LINE SMOOTH",
"414 67 OFFCURVE",
"407 50 OFFCURVE",
"389 50 CURVE SMOOTH",
"365 50 OFFCURVE",
"359 78 OFFCURVE",
"359 108 CURVE SMOOTH",
"359 303 LINE",
"258 303 LINE",
"258 108 LINE SMOOTH",
"258 79 OFFCURVE",
"252 50 OFFCURVE",
"228 50 CURVE SMOOTH",
"210 50 OFFCURVE",
"203 67 OFFCURVE",
"203 98 CURVE SMOOTH",
"203 368 LINE",
"207 367 OFFCURVE",
"210 367 OFFCURVE",
"214 367 CURVE SMOOTH",
"259 367 OFFCURVE",
"292 393 OFFCURVE",
"292 461 CURVE SMOOTH",
"292 525 OFFCURVE",
"263 562 OFFCURVE",
"181 562 CURVE SMOOTH",
"83 562 OFFCURVE",
"44 508 OFFCURVE",
"44 408 CURVE SMOOTH",
"44 142 LINE SMOOTH",
"44 53 OFFCURVE",
"64 -12 OFFCURVE",
"181 -12 CURVE SMOOTH"
);
},
{
closed = 1;
nodes = (
"180 411 OFFCURVE",
"169 429 OFFCURVE",
"169 460 CURVE SMOOTH",
"169 491 OFFCURVE",
"180 509 OFFCURVE",
"208 509 CURVE SMOOTH",
"235 509 OFFCURVE",
"246 491 OFFCURVE",
"246 460 CURVE SMOOTH",
"246 429 OFFCURVE",
"235 411 OFFCURVE",
"208 411 CURVE SMOOTH"
);
},
{
closed = 1;
nodes = (
"382 411 OFFCURVE",
"370 429 OFFCURVE",
"370 460 CURVE SMOOTH",
"370 491 OFFCURVE",
"382 509 OFFCURVE",
"409 509 CURVE SMOOTH",
"437 509 OFFCURVE",
"448 491 OFFCURVE",
"448 460 CURVE SMOOTH",
"448 429 OFFCURVE",
"437 411 OFFCURVE",
"409 411 CURVE SMOOTH"
);
},
{
closed = 1;
nodes = (
"543 409 OFFCURVE",
"620 459 OFFCURVE",
"620 534 CURVE SMOOTH",
"620 576 OFFCURVE",
"596 591 OFFCURVE",
"573 591 CURVE SMOOTH",
"567 591 OFFCURVE",
"554 590 OFFCURVE",
"549 587 CURVE",
"554 573 OFFCURVE",
"556 558 OFFCURVE",
"556 545 CURVE SMOOTH",
"556 496 OFFCURVE",
"526 447 OFFCURVE",
"486 433 CURVE",
"486 385 LINE"
);
}
);
width = 644;
}
);
note = uni0E9C;
unicode = 0E9C;
},
{
glyphname = "foFon-lao";
lastChange = "2017-06-02 15:50:30 +0000";
layers = (
{
anchors = (
{
name = bottom;
position = "{513, 0}";
},
{
name = top;
position = "{307, 536}";
}
);
layerId = "169B4CCF-67AF-4042-AA6F-C8E438F95C30";
paths = (
{
closed = 1;
nodes = (
"240 -10 OFFCURVE",
"276 12 OFFCURVE",
"298 67 CURVE",
"300 67 LINE",
"322 12 OFFCURVE",
"358 -10 OFFCURVE",
"409 -10 CURVE SMOOTH",
"481 -10 OFFCURVE",
"523 33 OFFCURVE",
"523 128 CURVE SMOOTH",
"523 772 LINE",
"515 772 LINE",
"495 747 LINE",
"495 124 LINE SMOOTH",
"495 47 OFFCURVE",
"466 15 OFFCURVE",
"410 15 CURVE SMOOTH",
"340 15 OFFCURVE",
"313 66 OFFCURVE",
"313 140 CURVE SMOOTH",
"313 307 LINE",
"285 307 LINE",
"285 140 LINE SMOOTH",
"285 66 OFFCURVE",
"258 15 OFFCURVE",
"188 15 CURVE SMOOTH",
"132 15 OFFCURVE",
"103 47 OFFCURVE",
"103 124 CURVE SMOOTH",
"103 423 LINE",
"115 411 OFFCURVE",
"136 405 OFFCURVE",
"157 405 CURVE SMOOTH",
"203 405 OFFCURVE",
"235 434 OFFCURVE",
"235 479 CURVE SMOOTH",
"235 523 OFFCURVE",
"204 552 OFFCURVE",
"155 552 CURVE SMOOTH",
"106 552 OFFCURVE",
"75 524 OFFCURVE",
"75 478 CURVE SMOOTH",
"75 128 LINE SMOOTH",
"75 33 OFFCURVE",
"117 -10 OFFCURVE",
"189 -10 CURVE SMOOTH"
);
},
{
closed = 1;
nodes = (
"122 426 OFFCURVE",
"104 445 OFFCURVE",
"104 478 CURVE SMOOTH",
"104 511 OFFCURVE",
"123 530 OFFCURVE",
"156 530 CURVE SMOOTH",
"189 530 OFFCURVE",
"209 511 OFFCURVE",
"209 478 CURVE SMOOTH",
"209 445 OFFCURVE",
"190 426 OFFCURVE",
"156 426 CURVE SMOOTH"
);
}
);
width = 608;
},
{
anchors = (
{
name = bottom;
position = "{607, 0}";
},
{
name = top;
position = "{344, 536}";
}
);
layerId = "A12FF52C-901E-4F1C-B651-FD65F325A5D0";
paths = (
{
closed = 1;
nodes = (
"269 -10 OFFCURVE",
"324 20 OFFCURVE",
"339 79 CURVE",
"343 79 LINE",
"358 20 OFFCURVE",
"414 -10 OFFCURVE",
"479 -10 CURVE SMOOTH",
"570 -10 OFFCURVE",
"617 49 OFFCURVE",
"617 127 CURVE SMOOTH",
"617 774 LINE",
"578 774 LINE",
"525 716 LINE",
"525 124 LINE SMOOTH",
"525 70 OFFCURVE",
"503 39 OFFCURVE",
"455 39 CURVE SMOOTH",
"409 39 OFFCURVE",
"380 68 OFFCURVE",
"380 128 CURVE SMOOTH",
"380 303 LINE",
"301 303 LINE",
"301 128 LINE SMOOTH",
"301 68 OFFCURVE",
"272 39 OFFCURVE",
"226 39 CURVE SMOOTH",
"178 39 OFFCURVE",
"157 70 OFFCURVE",
"157 124 CURVE SMOOTH",
"157 377 LINE",
"163 376 OFFCURVE",
"172 376 OFFCURVE",
"180 376 CURVE SMOOTH",
"230 376 OFFCURVE",
"270 408 OFFCURVE",
"270 468 CURVE SMOOTH",
"270 526 OFFCURVE",
"233 560 OFFCURVE",
"172 560 CURVE SMOOTH",
"109 560 OFFCURVE",
"65 524 OFFCURVE",
"65 456 CURVE SMOOTH",
"65 127 LINE SMOOTH",
"65 49 OFFCURVE",
"113 -10 OFFCURVE",
"204 -10 CURVE SMOOTH"
);
},
{
closed = 1;
nodes = (
"142 418 OFFCURVE",
"126 435 OFFCURVE",
"126 469 CURVE SMOOTH",
"126 503 OFFCURVE",
"142 521 OFFCURVE",
"174 521 CURVE SMOOTH",
"206 521 OFFCURVE",
"222 503 OFFCURVE",
"222 469 CURVE SMOOTH",
"222 435 OFFCURVE",
"206 418 OFFCURVE",
"174 418 CURVE SMOOTH"
);
}
);
width = 692;
},
{
anchors = (
{
name = bottom;
position = "{688, 0}";
},
{
name = top;
position = "{330, 536}";
}
);
layerId = "528596C4-5B9B-4A0D-91B5-66A38EFFCD2C";
paths = (
{
closed = 1;
nodes = (
"314 -12 OFFCURVE",
"355 15 OFFCURVE",
"374 72 CURVE",
"380 72 LINE",
"398 15 OFFCURVE",
"439 -12 OFFCURVE",
"530 -12 CURVE SMOOTH",
"671 -12 OFFCURVE",
"698 52 OFFCURVE",
"698 144 CURVE SMOOTH",
"698 774 LINE",
"577 774 LINE",
"514 701 LINE",
"514 95 LINE SMOOTH",
"514 68 OFFCURVE",
"503 51 OFFCURVE",
"478 51 CURVE SMOOTH",
"447 51 OFFCURVE",
"437 78 OFFCURVE",
"437 106 CURVE SMOOTH",
"437 303 LINE",
"317 303 LINE",
"317 106 LINE SMOOTH",
"317 78 OFFCURVE",
"307 51 OFFCURVE",
"275 51 CURVE SMOOTH",
"250 51 OFFCURVE",
"240 68 OFFCURVE",
"240 95 CURVE SMOOTH",
"240 367 LINE",
"245 366 OFFCURVE",
"250 366 OFFCURVE",
"255 366 CURVE SMOOTH",
"310 366 OFFCURVE",
"351 391 OFFCURVE",
"351 460 CURVE SMOOTH",
"351 524 OFFCURVE",
"315 562 OFFCURVE",
"219 562 CURVE SMOOTH",
"104 562 OFFCURVE",
"56 507 OFFCURVE",
"56 403 CURVE SMOOTH",
"56 144 LINE SMOOTH",
"56 52 OFFCURVE",
"83 -12 OFFCURVE",
"223 -12 CURVE SMOOTH"
);
},
{
closed = 1;
nodes = (
"214 410 OFFCURVE",
"200 428 OFFCURVE",
"200 459 CURVE SMOOTH",
"200 490 OFFCURVE",
"214 508 OFFCURVE",
"248 508 CURVE SMOOTH",
"281 508 OFFCURVE",
"295 490 OFFCURVE",
"295 459 CURVE SMOOTH",
"295 428 OFFCURVE",
"281 410 OFFCURVE",
"248 410 CURVE SMOOTH"
);
}
);
width = 774;
},
{
anchors = (
{
name = bottom;
position = "{400, 0}";
},
{
name = top;
position = "{237, 536}";
}
);
layerId = "15894915-CD0E-4C5A-A33F-EBC469CF719E";
paths = (
{
closed = 1;
nodes = (
"185 -10 OFFCURVE",
"215 12 OFFCURVE",
"231 67 CURVE",
"233 67 LINE",
"249 12 OFFCURVE",
"278 -10 OFFCURVE",
"318 -10 CURVE SMOOTH",
"375 -10 OFFCURVE",
"407 33 OFFCURVE",
"407 128 CURVE SMOOTH",
"407 772 LINE",
"398 772 LINE",
"379 747 LINE",
"379 124 LINE SMOOTH",
"379 48 OFFCURVE",
"358 15 OFFCURVE",
"317 15 CURVE SMOOTH",
"266 15 OFFCURVE",
"245 65 OFFCURVE",
"245 140 CURVE SMOOTH",
"245 307 LINE",
"218 307 LINE",
"218 140 LINE SMOOTH",
"218 65 OFFCURVE",
"198 15 OFFCURVE",
"146 15 CURVE SMOOTH",
"105 15 OFFCURVE",
"84 47 OFFCURVE",
"84 124 CURVE SMOOTH",
"84 423 LINE",
"92 411 OFFCURVE",
"107 405 OFFCURVE",
"122 405 CURVE SMOOTH",
"157 405 OFFCURVE",
"182 434 OFFCURVE",
"182 479 CURVE SMOOTH",
"182 523 OFFCURVE",
"158 552 OFFCURVE",
"119 552 CURVE SMOOTH",
"81 552 OFFCURVE",
"56 524 OFFCURVE",
"56 478 CURVE SMOOTH",
"56 128 LINE SMOOTH",
"56 33 OFFCURVE",
"89 -10 OFFCURVE",
"145 -10 CURVE SMOOTH"
);
},
{
closed = 1;
nodes = (
"95 426 OFFCURVE",
"81 445 OFFCURVE",
"81 478 CURVE SMOOTH",
"81 511 OFFCURVE",
"96 530 OFFCURVE",
"121 530 CURVE SMOOTH",
"145 530 OFFCURVE",
"160 511 OFFCURVE",
"160 478 CURVE SMOOTH",
"160 445 OFFCURVE",
"146 426 OFFCURVE",
"121 426 CURVE SMOOTH"
);
}
);
width = 471;
},
{
anchors = (
{
name = bottom;
position = "{479, 0}";
},
{
name = top;
position = "{258, 536}";
}
);
layerId = "004437BA-C458-42A1-B8EC-F9F2993A06FB";
paths = (
{
closed = 1;
nodes = (
"214 -10 OFFCURVE",
"253 20 OFFCURVE",
"265 79 CURVE",
"269 79 LINE",
"282 17 OFFCURVE",
"322 -10 OFFCURVE",
"376 -10 CURVE SMOOTH",
"455 -10 OFFCURVE",
"487 48 OFFCURVE",
"487 127 CURVE SMOOTH",
"487 774 LINE",
"439 774 LINE",
"396 716 LINE",
"396 124 LINE SMOOTH",
"396 69 OFFCURVE",
"382 39 OFFCURVE",
"351 39 CURVE SMOOTH",
"319 39 OFFCURVE",
"301 69 OFFCURVE",
"301 128 CURVE SMOOTH",
"301 303 LINE",
"232 303 LINE",
"232 128 LINE SMOOTH",
"232 68 OFFCURVE",
"214 39 OFFCURVE",
"183 39 CURVE SMOOTH",
"151 39 OFFCURVE",
"138 70 OFFCURVE",
"138 124 CURVE SMOOTH",
"138 377 LINE",
"142 376 OFFCURVE",
"148 376 OFFCURVE",
"154 376 CURVE SMOOTH",
"193 376 OFFCURVE",
"223 408 OFFCURVE",
"223 468 CURVE SMOOTH",
"223 526 OFFCURVE",
"196 560 OFFCURVE",
"140 560 CURVE SMOOTH",
"82 560 OFFCURVE",
"47 524 OFFCURVE",
"47 456 CURVE SMOOTH",
"47 127 LINE SMOOTH",
"47 50 OFFCURVE",
"79 -10 OFFCURVE",
"158 -10 CURVE SMOOTH"
);
},
{
closed = 1;
nodes = (
"124 418 OFFCURVE",
"112 435 OFFCURVE",
"112 469 CURVE SMOOTH",
"112 503 OFFCURVE",
"124 521 OFFCURVE",
"149 521 CURVE SMOOTH",
"173 521 OFFCURVE",
"185 503 OFFCURVE",
"185 469 CURVE SMOOTH",
"185 435 OFFCURVE",
"173 418 OFFCURVE",
"149 418 CURVE SMOOTH"
);
}
);
width = 544;
},
{
anchors = (
{
name = bottom;
position = "{565, 0}";
},
{
name = top;
position = "{265, 536}";
}
);
layerId = "5B84B61E-AB9F-4F38-98DA-7F1AA4E54ED0";
paths = (
{
closed = 1;
nodes = (
"258 -12 OFFCURVE",
"290 16 OFFCURVE",
"306 73 CURVE",
"311 73 LINE",
"326 15 OFFCURVE",
"357 -12 OFFCURVE",
"434 -12 CURVE SMOOTH",
"553 -12 OFFCURVE",
"573 52 OFFCURVE",
"573 142 CURVE SMOOTH",
"573 774 LINE",
"466 774 LINE",
"414 703 LINE",
"414 98 LINE SMOOTH",
"414 67 OFFCURVE",
"407 50 OFFCURVE",
"389 50 CURVE SMOOTH",
"365 50 OFFCURVE",
"359 78 OFFCURVE",
"359 108 CURVE SMOOTH",
"359 303 LINE",
"258 303 LINE",
"258 108 LINE SMOOTH",
"258 79 OFFCURVE",
"252 50 OFFCURVE",
"228 50 CURVE SMOOTH",
"210 50 OFFCURVE",
"203 67 OFFCURVE",
"203 98 CURVE SMOOTH",
"203 368 LINE",
"207 367 OFFCURVE",
"210 367 OFFCURVE",
"214 367 CURVE SMOOTH",
"259 367 OFFCURVE",
"292 393 OFFCURVE",
"292 461 CURVE SMOOTH",
"292 525 OFFCURVE",
"263 562 OFFCURVE",
"181 562 CURVE SMOOTH",
"83 562 OFFCURVE",
"44 508 OFFCURVE",
"44 408 CURVE SMOOTH",
"44 142 LINE SMOOTH",
"44 53 OFFCURVE",
"64 -12 OFFCURVE",
"181 -12 CURVE SMOOTH"
);
},
{
closed = 1;
nodes = (
"180 411 OFFCURVE",
"169 429 OFFCURVE",
"169 460 CURVE SMOOTH",
"169 491 OFFCURVE",
"180 509 OFFCURVE",
"208 509 CURVE SMOOTH",
"235 509 OFFCURVE",
"246 491 OFFCURVE",
"246 460 CURVE SMOOTH",
"246 429 OFFCURVE",
"235 411 OFFCURVE",
"208 411 CURVE SMOOTH"
);
}
);
width = 635;
}
);
note = uni0E9D;
unicode = 0E9D;
},
{
glyphname = "phoPhu-lao";
lastChange = "2017-06-02 15:50:30 +0000";
layers = (
{
anchors = (
{
name = bottom;
position = "{604, 0}";
},
{
name = top;
position = "{391, 536}";
},
{
name = top2;
position = "{614, 536}";
}
);
layerId = "169B4CCF-67AF-4042-AA6F-C8E438F95C30";
paths = (
{
closed = 1;
nodes = (
"332 -10 OFFCURVE",
"367 12 OFFCURVE",
"389 67 CURVE",
"391 67 LINE",
"413 12 OFFCURVE",
"448 -10 OFFCURVE",
"500 -10 CURVE SMOOTH",
"573 -10 OFFCURVE",
"614 33 OFFCURVE",
"614 128 CURVE SMOOTH",
"614 548 LINE",
"606 548 LINE",
"586 523 LINE",
"586 124 LINE SMOOTH",
"586 47 OFFCURVE",
"558 15 OFFCURVE",
"501 15 CURVE SMOOTH",
"430 15 OFFCURVE",
"404 66 OFFCURVE",
"404 140 CURVE SMOOTH",
"404 545 LINE",
"376 545 LINE",
"376 140 LINE SMOOTH",
"376 66 OFFCURVE",
"350 15 OFFCURVE",
"279 15 CURVE SMOOTH",
"222 15 OFFCURVE",
"194 47 OFFCURVE",
"194 124 CURVE SMOOTH",
"194 478 LINE SMOOTH",
"194 524 OFFCURVE",
"164 552 OFFCURVE",
"114 552 CURVE SMOOTH",
"66 552 OFFCURVE",
"35 526 OFFCURVE",
"35 479 CURVE SMOOTH",
"35 431 OFFCURVE",
"67 404 OFFCURVE",
"112 404 CURVE SMOOTH",
"133 404 OFFCURVE",
"151 410 OFFCURVE",
"163 424 CURVE",
"166 423 LINE",
"166 128 LINE SMOOTH",
"166 33 OFFCURVE",
"207 -10 OFFCURVE",
"280 -10 CURVE SMOOTH"
);
},
{
closed = 1;
nodes = (
"80 426 OFFCURVE",
"61 445 OFFCURVE",
"61 478 CURVE SMOOTH",
"61 511 OFFCURVE",
"81 530 OFFCURVE",
"114 530 CURVE SMOOTH",
"147 530 OFFCURVE",
"166 511 OFFCURVE",
"166 478 CURVE SMOOTH",
"166 445 OFFCURVE",
"147 426 OFFCURVE",
"113 426 CURVE SMOOTH"
);
}
);
width = 689;
},
{
anchors = (
{
name = bottom;
position = "{699, 0}";
},
{
name = top;
position = "{424, 536}";
},
{
name = top2;
position = "{709, 536}";
}
);
layerId = "A12FF52C-901E-4F1C-B651-FD65F325A5D0";
paths = (
{
closed = 1;
nodes = (
"360 -10 OFFCURVE",
"406 29 OFFCURVE",
"422 80 CURVE",
"425 80 LINE",
"441 29 OFFCURVE",
"487 -10 OFFCURVE",
"565 -10 CURVE SMOOTH",
"653 -10 OFFCURVE",
"709 40 OFFCURVE",
"709 148 CURVE SMOOTH",
"709 554 LINE",
"670 554 LINE",
"617 496 LINE",
"617 142 LINE SMOOTH",
"617 70 OFFCURVE",
"593 39 OFFCURVE",
"544 39 CURVE SMOOTH",
"491 39 OFFCURVE",
"463 74 OFFCURVE",
"463 143 CURVE SMOOTH",
"463 554 LINE",
"384 554 LINE",
"384 143 LINE SMOOTH",
"384 74 OFFCURVE",
"356 39 OFFCURVE",
"303 39 CURVE SMOOTH",
"254 39 OFFCURVE",
"230 70 OFFCURVE",
"230 142 CURVE SMOOTH",
"230 456 LINE SMOOTH",
"230 524 OFFCURVE",
"185 560 OFFCURVE",
"122 560 CURVE SMOOTH",
"61 560 OFFCURVE",
"25 526 OFFCURVE",
"25 469 CURVE SMOOTH",
"25 408 OFFCURVE",
"65 376 OFFCURVE",
"113 376 CURVE SMOOTH",
"128 376 OFFCURVE",
"144 379 OFFCURVE",
"149 380 CURVE",
"138 392 LINE",
"138 148 LINE SMOOTH",
"138 40 OFFCURVE",
"194 -10 OFFCURVE",
"282 -10 CURVE SMOOTH"
);
},
{
closed = 1;
nodes = (
"89 418 OFFCURVE",
"73 435 OFFCURVE",
"73 469 CURVE SMOOTH",
"73 503 OFFCURVE",
"89 521 OFFCURVE",
"120 521 CURVE SMOOTH",
"152 521 OFFCURVE",
"168 503 OFFCURVE",
"168 469 CURVE SMOOTH",
"168 435 OFFCURVE",
"152 418 OFFCURVE",
"120 418 CURVE SMOOTH"
);
}
);
width = 774;
},
{
anchors = (
{
name = bottom;
position = "{780, 0}";
},
{
name = top;
position = "{451, 536}";
},
{
name = top2;
position = "{789, 536}";
}
);
layerId = "528596C4-5B9B-4A0D-91B5-66A38EFFCD2C";
paths = (
{
closed = 1;
nodes = (
"378 -12 OFFCURVE",
"428 15 OFFCURVE",
"447 72 CURVE",
"452 72 LINE",
"471 15 OFFCURVE",
"524 -12 OFFCURVE",
"615 -12 CURVE SMOOTH",
"756 -12 OFFCURVE",
"790 52 OFFCURVE",
"790 144 CURVE SMOOTH",
"790 552 LINE",
"669 552 LINE",
"606 479 LINE",
"606 96 LINE SMOOTH",
"606 68 OFFCURVE",
"586 50 OFFCURVE",
"559 50 CURVE SMOOTH",
"530 50 OFFCURVE",
"509 70 OFFCURVE",
"509 98 CURVE SMOOTH",
"509 536 LINE",
"390 536 LINE",
"390 98 LINE SMOOTH",
"390 70 OFFCURVE",
"370 50 OFFCURVE",
"341 50 CURVE SMOOTH",
"314 50 OFFCURVE",
"293 68 OFFCURVE",
"293 96 CURVE SMOOTH",
"293 425 LINE SMOOTH",
"293 513 OFFCURVE",
"251 562 OFFCURVE",
"151 562 CURVE SMOOTH",
"66 562 OFFCURVE",
"20 526 OFFCURVE",
"20 460 CURVE SMOOTH",
"20 399 OFFCURVE",
"60 365 OFFCURVE",
"111 365 CURVE SMOOTH",
"117 365 OFFCURVE",
"122 365 OFFCURVE",
"128 366 CURVE",
"109 386 LINE",
"109 144 LINE SMOOTH",
"109 52 OFFCURVE",
"146 -12 OFFCURVE",
"287 -12 CURVE SMOOTH"
);
},
{
closed = 1;
nodes = (
"90 410 OFFCURVE",
"75 428 OFFCURVE",
"75 459 CURVE SMOOTH",
"75 490 OFFCURVE",
"90 508 OFFCURVE",
"123 508 CURVE SMOOTH",
"156 508 OFFCURVE",
"171 490 OFFCURVE",
"171 459 CURVE SMOOTH",
"171 428 OFFCURVE",
"156 410 OFFCURVE",
"123 410 CURVE SMOOTH"
);
}
);
width = 856;
},
{
anchors = (
{
name = bottom;
position = "{469, 0}";
},
{
name = top;
position = "{302, 536}";
},
{
name = top2;
position = "{477, 536}";
}
);
layerId = "15894915-CD0E-4C5A-A33F-EBC469CF719E";
paths = (
{
closed = 1;
nodes = (
"258 -10 OFFCURVE",
"284 15 OFFCURVE",
"300 67 CURVE",
"301 67 LINE",
"317 12 OFFCURVE",
"345 -10 OFFCURVE",
"387 -10 CURVE SMOOTH",
"444 -10 OFFCURVE",
"477 33 OFFCURVE",
"477 128 CURVE SMOOTH",
"477 548 LINE",
"468 548 LINE",
"449 523 LINE",
"449 124 LINE SMOOTH",
"449 47 OFFCURVE",
"428 15 OFFCURVE",
"386 15 CURVE SMOOTH",
"334 15 OFFCURVE",
"314 66 OFFCURVE",
"314 140 CURVE SMOOTH",
"314 545 LINE",
"287 545 LINE",
"287 140 LINE SMOOTH",
"287 66 OFFCURVE",
"267 15 OFFCURVE",
"215 15 CURVE SMOOTH",
"173 15 OFFCURVE",
"152 47 OFFCURVE",
"152 124 CURVE SMOOTH",
"152 478 LINE SMOOTH",
"152 524 OFFCURVE",
"127 552 OFFCURVE",
"88 552 CURVE SMOOTH",
"50 552 OFFCURVE",
"26 526 OFFCURVE",
"26 479 CURVE SMOOTH",
"26 431 OFFCURVE",
"51 404 OFFCURVE",
"85 404 CURVE SMOOTH",
"101 404 OFFCURVE",
"114 410 OFFCURVE",
"123 424 CURVE",
"124 423 LINE",
"124 128 LINE SMOOTH",
"124 32 OFFCURVE",
"156 -10 OFFCURVE",
"214 -10 CURVE SMOOTH"
);
},
{
closed = 1;
nodes = (
"62 426 OFFCURVE",
"48 445 OFFCURVE",
"48 478 CURVE SMOOTH",
"48 511 OFFCURVE",
"63 530 OFFCURVE",
"88 530 CURVE SMOOTH",
"113 530 OFFCURVE",
"127 511 OFFCURVE",
"127 478 CURVE SMOOTH",
"127 445 OFFCURVE",
"113 426 OFFCURVE",
"87 426 CURVE SMOOTH"
);
}
);
width = 533;
},
{
anchors = (
{
name = bottom;
position = "{550, 0}";
},
{
name = top;
position = "{329, 536}";
},
{
name = top2;
position = "{557, 536}";
}
);
layerId = "004437BA-C458-42A1-B8EC-F9F2993A06FB";
paths = (
{
closed = 1;
nodes = (
"278 -10 OFFCURVE",
"313 27 OFFCURVE",
"327 80 CURVE",
"329 80 LINE",
"343 27 OFFCURVE",
"379 -10 OFFCURVE",
"444 -10 CURVE SMOOTH",
"520 -10 OFFCURVE",
"558 42 OFFCURVE",
"558 148 CURVE SMOOTH",
"558 552 LINE",
"509 552 LINE",
"467 494 LINE",
"467 142 LINE SMOOTH",
"467 70 OFFCURVE",
"449 39 OFFCURVE",
"417 39 CURVE SMOOTH",
"382 39 OFFCURVE",
"362 74 OFFCURVE",
"362 143 CURVE SMOOTH",
"362 552 LINE",
"293 552 LINE",
"293 143 LINE SMOOTH",
"293 74 OFFCURVE",
"274 39 OFFCURVE",
"239 39 CURVE SMOOTH",
"207 39 OFFCURVE",
"189 70 OFFCURVE",
"189 142 CURVE SMOOTH",
"189 456 LINE SMOOTH",
"189 524 OFFCURVE",
"155 560 OFFCURVE",
"100 560 CURVE SMOOTH",
"47 560 OFFCURVE",
"18 526 OFFCURVE",
"18 468 CURVE SMOOTH",
"18 408 OFFCURVE",
"49 376 OFFCURVE",
"85 376 CURVE SMOOTH",
"96 376 OFFCURVE",
"105 379 OFFCURVE",
"109 380 CURVE",
"98 392 LINE",
"98 148 LINE SMOOTH",
"98 42 OFFCURVE",
"137 -10 OFFCURVE",
"213 -10 CURVE SMOOTH"
);
},
{
closed = 1;
nodes = (
"68 418 OFFCURVE",
"56 435 OFFCURVE",
"56 469 CURVE SMOOTH",
"56 503 OFFCURVE",
"68 521 OFFCURVE",
"92 521 CURVE SMOOTH",
"117 521 OFFCURVE",
"129 503 OFFCURVE",
"129 469 CURVE SMOOTH",
"129 435 OFFCURVE",
"117 418 OFFCURVE",
"92 418 CURVE SMOOTH"
);
}
);
width = 608;
},
{
anchors = (
{
name = bottom;
position = "{640, 0}";
},
{
name = top;
position = "{368, 536}";
},
{
name = top2;
position = "{647, 536}";
}
);
layerId = "5B84B61E-AB9F-4F38-98DA-7F1AA4E54ED0";
paths = (
{
closed = 1;
nodes = (
"309 -12 OFFCURVE",
"349 16 OFFCURVE",
"365 73 CURVE",
"369 73 LINE",
"385 16 OFFCURVE",
"427 -12 OFFCURVE",
"505 -12 CURVE SMOOTH",
"623 -12 OFFCURVE",
"648 52 OFFCURVE",
"648 144 CURVE SMOOTH",
"648 552 LINE",
"542 552 LINE",
"490 481 LINE",
"490 100 LINE SMOOTH",
"490 68 OFFCURVE",
"474 49 OFFCURVE",
"454 49 CURVE SMOOTH",
"433 49 OFFCURVE",
"417 70 OFFCURVE",
"417 102 CURVE SMOOTH",
"417 538 LINE",
"317 538 LINE",
"317 102 LINE SMOOTH",
"317 70 OFFCURVE",
"301 49 OFFCURVE",
"280 49 CURVE SMOOTH",
"261 49 OFFCURVE",
"244 68 OFFCURVE",
"244 100 CURVE SMOOTH",
"244 428 LINE SMOOTH",
"244 514 OFFCURVE",
"210 562 OFFCURVE",
"126 562 CURVE SMOOTH",
"54 562 OFFCURVE",
"16 526 OFFCURVE",
"16 461 CURVE SMOOTH",
"16 400 OFFCURVE",
"48 366 OFFCURVE",
"90 366 CURVE SMOOTH",
"94 366 OFFCURVE",
"97 366 OFFCURVE",
"102 367 CURVE",
"86 386 LINE",
"86 144 LINE SMOOTH",
"86 52 OFFCURVE",
"113 -12 OFFCURVE",
"231 -12 CURVE SMOOTH"
);
},
{
closed = 1;
nodes = (
"73 411 OFFCURVE",
"61 429 OFFCURVE",
"61 460 CURVE SMOOTH",
"61 491 OFFCURVE",
"73 509 OFFCURVE",
"100 509 CURVE SMOOTH",
"127 509 OFFCURVE",
"139 491 OFFCURVE",
"139 460 CURVE SMOOTH",
"139 429 OFFCURVE",
"127 411 OFFCURVE",
"100 411 CURVE SMOOTH"
);
}
);
width = 701;
}
);
leftKerningGroup = boBae;
note = uni0E9E;
unicode = 0E9E;
},
{
glyphname = "foFai-lao";
lastChange = "2017-06-02 15:50:30 +0000";
layers = (
{
anchors = (
{
name = bottom;
position = "{604, 0}";
},
{
name = top;
position = "{391, 536}";
}
);
layerId = "169B4CCF-67AF-4042-AA6F-C8E438F95C30";
paths = (
{
closed = 1;
nodes = (
"332 -10 OFFCURVE",
"367 12 OFFCURVE",
"389 67 CURVE",
"391 67 LINE",
"413 12 OFFCURVE",
"448 -10 OFFCURVE",
"500 -10 CURVE SMOOTH",
"573 -10 OFFCURVE",
"614 33 OFFCURVE",
"614 128 CURVE SMOOTH",
"614 772 LINE",
"606 772 LINE",
"586 747 LINE",
"586 124 LINE SMOOTH",
"586 47 OFFCURVE",
"558 15 OFFCURVE",
"501 15 CURVE SMOOTH",
"430 15 OFFCURVE",
"404 66 OFFCURVE",
"404 140 CURVE SMOOTH",
"404 545 LINE",
"376 545 LINE",
"376 140 LINE SMOOTH",
"376 66 OFFCURVE",
"350 15 OFFCURVE",
"279 15 CURVE SMOOTH",
"222 15 OFFCURVE",
"194 47 OFFCURVE",
"194 124 CURVE SMOOTH",
"194 478 LINE SMOOTH",
"194 524 OFFCURVE",
"164 552 OFFCURVE",
"114 552 CURVE SMOOTH",
"66 552 OFFCURVE",
"35 526 OFFCURVE",
"35 479 CURVE SMOOTH",
"35 431 OFFCURVE",
"67 404 OFFCURVE",
"112 404 CURVE SMOOTH",
"133 404 OFFCURVE",
"151 410 OFFCURVE",
"163 424 CURVE",
"166 423 LINE",
"166 128 LINE SMOOTH",
"166 33 OFFCURVE",
"207 -10 OFFCURVE",
"280 -10 CURVE SMOOTH"
);
},
{
closed = 1;
nodes = (
"80 426 OFFCURVE",
"61 445 OFFCURVE",
"61 478 CURVE SMOOTH",
"61 511 OFFCURVE",
"81 530 OFFCURVE",
"114 530 CURVE SMOOTH",
"147 530 OFFCURVE",
"166 511 OFFCURVE",
"166 478 CURVE SMOOTH",
"166 445 OFFCURVE",
"147 426 OFFCURVE",
"113 426 CURVE SMOOTH"
);
}
);
width = 699;
},
{
anchors = (
{
name = bottom;
position = "{699, 0}";
},
{
name = top;
position = "{424, 536}";
}
);
layerId = "A12FF52C-901E-4F1C-B651-FD65F325A5D0";
paths = (
{
closed = 1;
nodes = (
"360 -10 OFFCURVE",
"406 29 OFFCURVE",
"422 80 CURVE",
"425 80 LINE",
"441 29 OFFCURVE",
"487 -10 OFFCURVE",
"565 -10 CURVE SMOOTH",
"653 -10 OFFCURVE",
"709 40 OFFCURVE",
"709 148 CURVE SMOOTH",
"709 772 LINE",
"670 772 LINE",
"617 714 LINE",
"617 142 LINE SMOOTH",
"617 70 OFFCURVE",
"593 39 OFFCURVE",
"544 39 CURVE SMOOTH",
"491 39 OFFCURVE",
"463 74 OFFCURVE",
"463 143 CURVE SMOOTH",
"463 554 LINE",
"384 554 LINE",
"384 143 LINE SMOOTH",
"384 74 OFFCURVE",
"356 39 OFFCURVE",
"303 39 CURVE SMOOTH",
"254 39 OFFCURVE",
"230 70 OFFCURVE",
"230 142 CURVE SMOOTH",
"230 456 LINE SMOOTH",
"230 524 OFFCURVE",
"185 560 OFFCURVE",
"122 560 CURVE SMOOTH",
"61 560 OFFCURVE",
"25 526 OFFCURVE",
"25 469 CURVE SMOOTH",
"25 408 OFFCURVE",
"65 376 OFFCURVE",
"113 376 CURVE SMOOTH",
"128 376 OFFCURVE",
"144 379 OFFCURVE",
"149 380 CURVE",
"138 392 LINE",
"138 148 LINE SMOOTH",
"138 40 OFFCURVE",
"194 -10 OFFCURVE",
"282 -10 CURVE SMOOTH"
);
},
{
closed = 1;
nodes = (
"89 418 OFFCURVE",
"73 435 OFFCURVE",
"73 469 CURVE SMOOTH",
"73 503 OFFCURVE",
"89 521 OFFCURVE",
"120 521 CURVE SMOOTH",
"152 521 OFFCURVE",
"168 503 OFFCURVE",
"168 469 CURVE SMOOTH",
"168 435 OFFCURVE",
"152 418 OFFCURVE",
"120 418 CURVE SMOOTH"
);
}
);
width = 784;
},
{
anchors = (
{
name = bottom;
position = "{780, 0}";
},
{
name = top;
position = "{422, 536}";
}
);
layerId = "528596C4-5B9B-4A0D-91B5-66A38EFFCD2C";
paths = (
{
closed = 1;
nodes = (
"378 -12 OFFCURVE",
"428 15 OFFCURVE",
"447 72 CURVE",
"452 72 LINE",
"471 15 OFFCURVE",
"524 -12 OFFCURVE",
"615 -12 CURVE SMOOTH",
"756 -12 OFFCURVE",
"790 52 OFFCURVE",
"790 144 CURVE SMOOTH",
"790 774 LINE",
"669 774 LINE",
"606 701 LINE",
"606 96 LINE SMOOTH",
"606 68 OFFCURVE",
"586 50 OFFCURVE",
"559 50 CURVE SMOOTH",
"530 50 OFFCURVE",
"509 70 OFFCURVE",
"509 98 CURVE SMOOTH",
"509 536 LINE",
"390 536 LINE",
"390 98 LINE SMOOTH",
"390 70 OFFCURVE",
"370 50 OFFCURVE",
"341 50 CURVE SMOOTH",
"314 50 OFFCURVE",
"293 68 OFFCURVE",
"293 96 CURVE SMOOTH",
"293 425 LINE SMOOTH",
"293 513 OFFCURVE",
"251 562 OFFCURVE",
"151 562 CURVE SMOOTH",
"66 562 OFFCURVE",
"20 526 OFFCURVE",
"20 460 CURVE SMOOTH",
"20 399 OFFCURVE",
"60 365 OFFCURVE",
"111 365 CURVE SMOOTH",
"117 365 OFFCURVE",
"122 365 OFFCURVE",
"128 366 CURVE",
"109 386 LINE",
"109 144 LINE SMOOTH",
"109 52 OFFCURVE",
"146 -12 OFFCURVE",
"287 -12 CURVE SMOOTH"
);
},
{
closed = 1;
nodes = (
"90 410 OFFCURVE",
"75 428 OFFCURVE",
"75 459 CURVE SMOOTH",
"75 490 OFFCURVE",
"90 508 OFFCURVE",
"123 508 CURVE SMOOTH",
"156 508 OFFCURVE",
"171 490 OFFCURVE",
"171 459 CURVE SMOOTH",
"171 428 OFFCURVE",
"156 410 OFFCURVE",
"123 410 CURVE SMOOTH"
);
}
);
width = 866;
},
{
anchors = (
{
name = bottom;
position = "{469, 0}";
},
{
name = top;
position = "{302, 536}";
}
);
layerId = "15894915-CD0E-4C5A-A33F-EBC469CF719E";
paths = (
{
closed = 1;
nodes = (
"258 -10 OFFCURVE",
"284 15 OFFCURVE",
"300 67 CURVE",
"301 67 LINE",
"317 12 OFFCURVE",
"345 -10 OFFCURVE",
"387 -10 CURVE SMOOTH",
"444 -10 OFFCURVE",
"477 33 OFFCURVE",
"477 128 CURVE SMOOTH",
"477 772 LINE",
"468 772 LINE",
"449 747 LINE",
"449 124 LINE SMOOTH",
"449 47 OFFCURVE",
"428 15 OFFCURVE",
"386 15 CURVE SMOOTH",
"334 15 OFFCURVE",
"314 66 OFFCURVE",
"314 140 CURVE SMOOTH",
"314 545 LINE",
"287 545 LINE",
"287 140 LINE SMOOTH",
"287 66 OFFCURVE",
"267 15 OFFCURVE",
"215 15 CURVE SMOOTH",
"173 15 OFFCURVE",
"152 47 OFFCURVE",
"152 124 CURVE SMOOTH",
"152 478 LINE SMOOTH",
"152 524 OFFCURVE",
"127 552 OFFCURVE",
"88 552 CURVE SMOOTH",
"50 552 OFFCURVE",
"26 526 OFFCURVE",
"26 479 CURVE SMOOTH",
"26 431 OFFCURVE",
"51 404 OFFCURVE",
"85 404 CURVE SMOOTH",
"101 404 OFFCURVE",
"114 410 OFFCURVE",
"123 424 CURVE",
"124 423 LINE",
"124 128 LINE SMOOTH",
"124 32 OFFCURVE",
"156 -10 OFFCURVE",
"214 -10 CURVE SMOOTH"
);
},
{
closed = 1;
nodes = (
"62 426 OFFCURVE",
"48 445 OFFCURVE",
"48 478 CURVE SMOOTH",
"48 511 OFFCURVE",
"63 530 OFFCURVE",
"88 530 CURVE SMOOTH",
"113 530 OFFCURVE",
"127 511 OFFCURVE",
"127 478 CURVE SMOOTH",
"127 445 OFFCURVE",
"113 426 OFFCURVE",
"87 426 CURVE SMOOTH"
);
}
);
width = 541;
},
{
anchors = (
{
name = bottom;
position = "{550, 0}";
},
{
name = top;
position = "{322, 536}";
}
);
layerId = "004437BA-C458-42A1-B8EC-F9F2993A06FB";
paths = (
{
closed = 1;
nodes = (
"278 -10 OFFCURVE",
"313 27 OFFCURVE",
"327 80 CURVE",
"329 80 LINE",
"343 27 OFFCURVE",
"379 -10 OFFCURVE",
"444 -10 CURVE SMOOTH",
"520 -10 OFFCURVE",
"558 42 OFFCURVE",
"558 148 CURVE SMOOTH",
"558 772 LINE",
"509 772 LINE",
"467 714 LINE",
"467 142 LINE SMOOTH",
"467 70 OFFCURVE",
"449 39 OFFCURVE",
"417 39 CURVE SMOOTH",
"382 39 OFFCURVE",
"362 74 OFFCURVE",
"362 143 CURVE SMOOTH",
"362 552 LINE",
"293 552 LINE",
"293 143 LINE SMOOTH",
"293 74 OFFCURVE",
"274 39 OFFCURVE",
"239 39 CURVE SMOOTH",
"207 39 OFFCURVE",
"189 70 OFFCURVE",
"189 142 CURVE SMOOTH",
"189 456 LINE SMOOTH",
"189 524 OFFCURVE",
"155 560 OFFCURVE",
"100 560 CURVE SMOOTH",
"47 560 OFFCURVE",
"18 526 OFFCURVE",
"18 468 CURVE SMOOTH",
"18 408 OFFCURVE",
"49 376 OFFCURVE",
"85 376 CURVE SMOOTH",
"96 376 OFFCURVE",
"105 379 OFFCURVE",
"109 380 CURVE",
"98 392 LINE",
"98 148 LINE SMOOTH",
"98 42 OFFCURVE",
"137 -10 OFFCURVE",
"213 -10 CURVE SMOOTH"
);
},
{
closed = 1;
nodes = (
"68 418 OFFCURVE",
"56 435 OFFCURVE",
"56 469 CURVE SMOOTH",
"56 503 OFFCURVE",
"68 521 OFFCURVE",
"92 521 CURVE SMOOTH",
"117 521 OFFCURVE",
"129 503 OFFCURVE",
"129 469 CURVE SMOOTH",
"129 435 OFFCURVE",
"117 418 OFFCURVE",
"92 418 CURVE SMOOTH"
);
}
);
width = 615;
},
{
anchors = (
{
name = bottom;
position = "{640, 0}";
},
{
name = top;
position = "{340, 536}";
}
);
layerId = "5B84B61E-AB9F-4F38-98DA-7F1AA4E54ED0";
paths = (
{
closed = 1;
nodes = (
"309 -12 OFFCURVE",
"349 16 OFFCURVE",
"365 73 CURVE",
"369 73 LINE",
"385 16 OFFCURVE",
"427 -12 OFFCURVE",
"505 -12 CURVE SMOOTH",
"623 -12 OFFCURVE",
"648 52 OFFCURVE",
"648 144 CURVE SMOOTH",
"648 774 LINE",
"542 774 LINE",
"490 702 LINE",
"490 100 LINE SMOOTH",
"490 68 OFFCURVE",
"474 49 OFFCURVE",
"454 49 CURVE SMOOTH",
"433 49 OFFCURVE",
"417 70 OFFCURVE",
"417 102 CURVE SMOOTH",
"417 538 LINE",
"317 538 LINE",
"317 102 LINE SMOOTH",
"317 70 OFFCURVE",
"301 49 OFFCURVE",
"280 49 CURVE SMOOTH",
"261 49 OFFCURVE",
"244 68 OFFCURVE",
"244 100 CURVE SMOOTH",
"244 428 LINE SMOOTH",
"244 514 OFFCURVE",
"210 562 OFFCURVE",
"126 562 CURVE SMOOTH",
"54 562 OFFCURVE",
"16 526 OFFCURVE",
"16 461 CURVE SMOOTH",
"16 400 OFFCURVE",
"48 366 OFFCURVE",
"90 366 CURVE SMOOTH",
"94 366 OFFCURVE",
"97 366 OFFCURVE",
"102 367 CURVE",
"86 386 LINE",
"86 144 LINE SMOOTH",
"86 52 OFFCURVE",
"113 -12 OFFCURVE",
"231 -12 CURVE SMOOTH"
);
},
{
closed = 1;
nodes = (
"73 411 OFFCURVE",
"61 429 OFFCURVE",
"61 460 CURVE SMOOTH",
"61 491 OFFCURVE",
"73 509 OFFCURVE",
"100 509 CURVE SMOOTH",
"127 509 OFFCURVE",
"139 491 OFFCURVE",
"139 460 CURVE SMOOTH",
"139 429 OFFCURVE",
"127 411 OFFCURVE",
"100 411 CURVE SMOOTH"
);
}
);
width = 710;
}
);
leftKerningGroup = boBae;
note = uni0E9F;
unicode = 0E9F;
},
{
glyphname = "moMa-lao";
lastChange = "2017-06-02 15:50:30 +0000";
layers = (
{
anchors = (
{
name = bottom;
position = "{501, 0}";
},
{
name = top;
position = "{354, 536}";
},
{
name = top2;
position = "{511, 536}";
}
);
layerId = "169B4CCF-67AF-4042-AA6F-C8E438F95C30";
paths = (
{
closed = 1;
nodes = (
"437 -10 OFFCURVE",
"511 22 OFFCURVE",
"511 111 CURVE SMOOTH",
"511 548 LINE",
"503 548 LINE",
"483 523 LINE",
"483 107 LINE SMOOTH",
"483 41 OFFCURVE",
"425 15 OFFCURVE",
"369 15 CURVE SMOOTH",
"306 15 OFFCURVE",
"241 47 OFFCURVE",
"192 87 CURVE",
"188 60 LINE",
"229 26 OFFCURVE",
"302 -10 OFFCURVE",
"372 -10 CURVE SMOOTH"
);
},
{
closed = 1;
nodes = (
"81 12 OFFCURVE",
"61 31 OFFCURVE",
"61 64 CURVE SMOOTH",
"61 97 OFFCURVE",
"80 116 OFFCURVE",
"113 116 CURVE SMOOTH",
"147 116 OFFCURVE",
"166 97 OFFCURVE",
"166 64 CURVE SMOOTH",
"166 31 OFFCURVE",
"147 12 OFFCURVE",
"114 12 CURVE SMOOTH"
);
},
{
closed = 1;
nodes = (
"164 -10 OFFCURVE",
"197 18 OFFCURVE",
"197 76 CURVE SMOOTH",
"197 545 LINE",
"169 545 LINE",
"169 118 LINE",
"166 117 LINE",
"154 130 OFFCURVE",
"134 138 OFFCURVE",
"110 138 CURVE SMOOTH",
"67 138 OFFCURVE",
"35 111 OFFCURVE",
"35 64 CURVE SMOOTH",
"35 19 OFFCURVE",
"65 -10 OFFCURVE",
"115 -10 CURVE SMOOTH"
);
}
);
width = 586;
},
{
anchors = (
{
name = bottom;
position = "{537, 0}";
},
{
name = top;
position = "{351, 536}";
},
{
name = top2;
position = "{547, 536}";
}
);
layerId = "A12FF52C-901E-4F1C-B651-FD65F325A5D0";
paths = (
{
closed = 1;
nodes = (
"505 -10 OFFCURVE",
"547 54 OFFCURVE",
"547 147 CURVE SMOOTH",
"547 554 LINE",
"509 554 LINE",
"455 497 LINE",
"455 157 LINE SMOOTH",
"455 84 OFFCURVE",
"439 39 OFFCURVE",
"366 39 CURVE SMOOTH",
"305 39 OFFCURVE",
"264 71 OFFCURVE",
"221 113 CURVE",
"216 64 LINE",
"255 22 OFFCURVE",
"306 -10 OFFCURVE",
"388 -10 CURVE SMOOTH"
);
},
{
closed = 1;
nodes = (
"89 29 OFFCURVE",
"73 47 OFFCURVE",
"73 81 CURVE SMOOTH",
"73 115 OFFCURVE",
"89 133 OFFCURVE",
"120 133 CURVE SMOOTH",
"152 133 OFFCURVE",
"168 115 OFFCURVE",
"168 81 CURVE SMOOTH",
"168 47 OFFCURVE",
"152 29 OFFCURVE",
"120 29 CURVE SMOOTH"
);
},
{
closed = 1;
nodes = (
"191 -10 OFFCURVE",
"230 20 OFFCURVE",
"230 92 CURVE SMOOTH",
"230 554 LINE",
"138 554 LINE",
"138 146 LINE",
"149 171 LINE",
"146 172 OFFCURVE",
"128 175 OFFCURVE",
"113 175 CURVE SMOOTH",
"65 175 OFFCURVE",
"25 142 OFFCURVE",
"25 81 CURVE SMOOTH",
"25 24 OFFCURVE",
"59 -10 OFFCURVE",
"127 -10 CURVE SMOOTH"
);
}
);
width = 612;
},
{
anchors = (
{
name = bottom;
position = "{633, 0}";
},
{
name = top;
position = "{397, 536}";
},
{
name = top2;
position = "{643, 536}";
}
);
layerId = "528596C4-5B9B-4A0D-91B5-66A38EFFCD2C";
paths = (
{
closed = 1;
nodes = (
"545 -12 OFFCURVE",
"643 49 OFFCURVE",
"643 167 CURVE SMOOTH",
"643 552 LINE",
"516 552 LINE",
"454 480 LINE",
"454 108 LINE SMOOTH",
"454 67 OFFCURVE",
"427 51 OFFCURVE",
"398 51 CURVE SMOOTH",
"352 51 OFFCURVE",
"309 90 OFFCURVE",
"286 132 CURVE",
"264 80 LINE",
"288 32 OFFCURVE",
"362 -12 OFFCURVE",
"446 -12 CURVE SMOOTH"
);
},
{
closed = 1;
nodes = (
"90 42 OFFCURVE",
"75 59 OFFCURVE",
"75 90 CURVE SMOOTH",
"75 121 OFFCURVE",
"90 140 OFFCURVE",
"123 140 CURVE SMOOTH",
"156 140 OFFCURVE",
"171 121 OFFCURVE",
"171 90 CURVE SMOOTH",
"171 59 OFFCURVE",
"156 42 OFFCURVE",
"123 42 CURVE SMOOTH"
);
},
{
closed = 1;
nodes = (
"251 -12 OFFCURVE",
"298 37 OFFCURVE",
"298 125 CURVE SMOOTH",
"298 552 LINE",
"109 552 LINE",
"109 157 LINE",
"128 183 LINE",
"123 184 OFFCURVE",
"118 184 OFFCURVE",
"113 184 CURVE SMOOTH",
"61 184 OFFCURVE",
"20 152 OFFCURVE",
"20 90 CURVE SMOOTH",
"20 24 OFFCURVE",
"66 -12 OFFCURVE",
"151 -12 CURVE SMOOTH"
);
}
);
width = 709;
},
{
anchors = (
{
name = bottom;
position = "{385, 0}";
},
{
name = top;
position = "{269, 536}";
},
{
name = top2;
position = "{393, 536}";
}
);
layerId = "15894915-CD0E-4C5A-A33F-EBC469CF719E";
paths = (
{
closed = 1;
nodes = (
"339 -10 OFFCURVE",
"393 22 OFFCURVE",
"393 111 CURVE SMOOTH",
"393 548 LINE",
"383 548 LINE",
"365 523 LINE",
"365 107 LINE SMOOTH",
"365 41 OFFCURVE",
"325 15 OFFCURVE",
"281 15 CURVE SMOOTH",
"234 15 OFFCURVE",
"188 45 OFFCURVE",
"149 87 CURVE",
"146 60 LINE",
"177 26 OFFCURVE",
"230 -10 OFFCURVE",
"286 -10 CURVE SMOOTH"
);
},
{
closed = 1;
nodes = (
"63 12 OFFCURVE",
"48 31 OFFCURVE",
"48 64 CURVE SMOOTH",
"48 97 OFFCURVE",
"62 116 OFFCURVE",
"87 116 CURVE SMOOTH",
"113 116 OFFCURVE",
"127 97 OFFCURVE",
"127 64 CURVE SMOOTH",
"127 31 OFFCURVE",
"113 12 OFFCURVE",
"88 12 CURVE SMOOTH"
);
},
{
closed = 1;
nodes = (
"128 -10 OFFCURVE",
"154 18 OFFCURVE",
"154 76 CURVE SMOOTH",
"154 548 LINE",
"126 548 LINE",
"126 118 LINE",
"125 117 LINE",
"117 130 OFFCURVE",
"102 138 OFFCURVE",
"84 138 CURVE SMOOTH",
"51 138 OFFCURVE",
"26 111 OFFCURVE",
"26 64 CURVE SMOOTH",
"26 19 OFFCURVE",
"49 -10 OFFCURVE",
"89 -10 CURVE SMOOTH"
);
}
);
width = 449;
},
{
anchors = (
{
name = bottom;
position = "{430, 0}";
},
{
name = top;
position = "{277, 536}";
},
{
name = top2;
position = "{438, 536}";
}
);
layerId = "004437BA-C458-42A1-B8EC-F9F2993A06FB";
paths = (
{
closed = 1;
nodes = (
"392 -10 OFFCURVE",
"438 52 OFFCURVE",
"438 147 CURVE SMOOTH",
"438 552 LINE",
"389 552 LINE",
"346 495 LINE",
"346 157 LINE SMOOTH",
"346 82 OFFCURVE",
"331 39 OFFCURVE",
"284 39 CURVE SMOOTH",
"243 39 OFFCURVE",
"210 72 OFFCURVE",
"183 113 CURVE",
"178 64 LINE",
"204 22 OFFCURVE",
"246 -10 OFFCURVE",
"307 -10 CURVE SMOOTH"
);
},
{
closed = 1;
nodes = (
"68 29 OFFCURVE",
"56 47 OFFCURVE",
"56 81 CURVE SMOOTH",
"56 115 OFFCURVE",
"68 133 OFFCURVE",
"92 133 CURVE SMOOTH",
"117 133 OFFCURVE",
"129 115 OFFCURVE",
"129 81 CURVE SMOOTH",
"129 47 OFFCURVE",
"117 29 OFFCURVE",
"92 29 CURVE SMOOTH"
);
},
{
closed = 1;
nodes = (
"159 -10 OFFCURVE",
"190 21 OFFCURVE",
"190 92 CURVE SMOOTH",
"190 552 LINE",
"98 552 LINE",
"98 146 LINE",
"109 171 LINE",
"106 172 OFFCURVE",
"96 175 OFFCURVE",
"85 175 CURVE SMOOTH",
"49 175 OFFCURVE",
"18 141 OFFCURVE",
"18 81 CURVE SMOOTH",
"18 24 OFFCURVE",
"46 -10 OFFCURVE",
"104 -10 CURVE SMOOTH"
);
}
);
width = 488;
},
{
anchors = (
{
name = bottom;
position = "{523, 0}";
},
{
name = top;
position = "{326, 536}";
},
{
name = top2;
position = "{531, 536}";
}
);
layerId = "5B84B61E-AB9F-4F38-98DA-7F1AA4E54ED0";
paths = (
{
closed = 1;
nodes = (
"470 -12 OFFCURVE",
"531 47 OFFCURVE",
"531 148 CURVE SMOOTH",
"531 552 LINE",
"419 552 LINE",
"369 482 LINE",
"369 111 LINE SMOOTH",
"369 73 OFFCURVE",
"352 50 OFFCURVE",
"323 50 CURVE SMOOTH",
"291 50 OFFCURVE",
"260 79 OFFCURVE",
"239 129 CURVE",
"221 78 LINE",
"242 21 OFFCURVE",
"297 -12 OFFCURVE",
"371 -12 CURVE SMOOTH"
);
},
{
closed = 1;
nodes = (
"73 41 OFFCURVE",
"61 58 OFFCURVE",
"61 89 CURVE SMOOTH",
"61 121 OFFCURVE",
"73 139 OFFCURVE",
"100 139 CURVE SMOOTH",
"127 139 OFFCURVE",
"139 121 OFFCURVE",
"139 89 CURVE SMOOTH",
"139 58 OFFCURVE",
"127 41 OFFCURVE",
"100 41 CURVE SMOOTH"
);
},
{
closed = 1;
nodes = (
"210 -12 OFFCURVE",
"248 36 OFFCURVE",
"248 122 CURVE SMOOTH",
"248 552 LINE",
"86 552 LINE",
"86 156 LINE",
"102 182 LINE",
"97 183 OFFCURVE",
"95 183 OFFCURVE",
"92 183 CURVE SMOOTH",
"49 183 OFFCURVE",
"16 151 OFFCURVE",
"16 89 CURVE SMOOTH",
"16 24 OFFCURVE",
"53 -12 OFFCURVE",
"126 -12 CURVE SMOOTH"
);
}
);
width = 584;
}
);
note = uni0EA1;
unicode = 0EA1;
},
{
glyphname = "yoYa-lao";
lastChange = "2017-06-02 15:50:30 +0000";
layers = (
{
anchors = (
{
name = bottom;
position = "{424, 0}";
},
{
name = top;
position = "{228, 536}";
}
);
layerId = "169B4CCF-67AF-4042-AA6F-C8E438F95C30";
paths = (
{
closed = 1;
nodes = (
"361 -10 OFFCURVE",
"434 39 OFFCURVE",
"434 176 CURVE SMOOTH",
"434 772 LINE",
"426 772 LINE",
"406 747 LINE",
"406 171 LINE SMOOTH",
"406 62 OFFCURVE",
"350 15 OFFCURVE",
"244 15 CURVE SMOOTH",
"121 15 OFFCURVE",
"89 78 OFFCURVE",
"89 154 CURVE SMOOTH",
"89 234 OFFCURVE",
"124 274 OFFCURVE",
"221 274 CURVE SMOOTH",
"263 274 LINE",
"263 297 LINE",
"221 297 LINE SMOOTH",
"141 297 OFFCURVE",
"87 371 OFFCURVE",
"84 426 CURVE",
"87 427 LINE",
"101 410 OFFCURVE",
"122 401 OFFCURVE",
"148 401 CURVE SMOOTH",
"196 401 OFFCURVE",
"226 432 OFFCURVE",
"226 477 CURVE SMOOTH",
"226 521 OFFCURVE",
"198 552 OFFCURVE",
"144 552 CURVE SMOOTH",
"88 552 OFFCURVE",
"55 518 OFFCURVE",
"55 457 CURVE SMOOTH",
"55 439 LINE SMOOTH",
"55 378 OFFCURVE",
"98 312 OFFCURVE",
"157 290 CURVE",
"157 287 LINE",
"96 280 OFFCURVE",
"58 235 OFFCURVE",
"58 153 CURVE SMOOTH",
"58 45 OFFCURVE",
"124 -10 OFFCURVE",
"246 -10 CURVE SMOOTH"
);
},
{
closed = 1;
nodes = (
"111 424 OFFCURVE",
"91 443 OFFCURVE",
"91 476 CURVE SMOOTH",
"91 510 OFFCURVE",
"111 528 OFFCURVE",
"144 528 CURVE SMOOTH",
"177 528 OFFCURVE",
"198 509 OFFCURVE",
"198 476 CURVE SMOOTH",
"198 443 OFFCURVE",
"178 424 OFFCURVE",
"145 424 CURVE SMOOTH"
);
}
);
width = 519;
},
{
anchors = (
{
name = bottom;
position = "{504, 0}";
},
{
name = top;
position = "{253, 536}";
}
);
layerId = "A12FF52C-901E-4F1C-B651-FD65F325A5D0";
paths = (
{
closed = 1;
nodes = (
"431 -10 OFFCURVE",
"514 49 OFFCURVE",
"514 166 CURVE SMOOTH",
"514 772 LINE",
"476 772 LINE",
"422 715 LINE",
"422 183 LINE SMOOTH",
"422 85 OFFCURVE",
"379 39 OFFCURVE",
"277 39 CURVE SMOOTH",
"194 39 OFFCURVE",
"137 70 OFFCURVE",
"137 152 CURVE SMOOTH",
"137 226 OFFCURVE",
"184 254 OFFCURVE",
"246 254 CURVE SMOOTH",
"267 254 LINE",
"267 303 LINE",
"246 303 LINE SMOOTH",
"164 303 OFFCURVE",
"129 341 OFFCURVE",
"139 393 CURVE",
"132 382 LINE",
"136 380 OFFCURVE",
"141 376 OFFCURVE",
"158 376 CURVE SMOOTH",
"209 376 OFFCURVE",
"246 411 OFFCURVE",
"246 468 CURVE SMOOTH",
"246 525 OFFCURVE",
"209 560 OFFCURVE",
"149 560 CURVE SMOOTH",
"84 560 OFFCURVE",
"45 518 OFFCURVE",
"45 451 CURVE SMOOTH",
"45 427 LINE SMOOTH",
"45 356 OFFCURVE",
"80 304 OFFCURVE",
"133 280 CURVE",
"133 277 LINE",
"87 258 OFFCURVE",
"45 216 OFFCURVE",
"45 146 CURVE SMOOTH",
"45 45 OFFCURVE",
"132 -10 OFFCURVE",
"279 -10 CURVE SMOOTH"
);
},
{
closed = 1;
nodes = (
"119 418 OFFCURVE",
"102 434 OFFCURVE",
"102 468 CURVE SMOOTH",
"102 502 OFFCURVE",
"120 519 OFFCURVE",
"152 519 CURVE SMOOTH",
"183 519 OFFCURVE",
"199 503 OFFCURVE",
"199 469 CURVE SMOOTH",
"199 435 OFFCURVE",
"182 418 OFFCURVE",
"150 418 CURVE SMOOTH"
);
}
);
width = 589;
},
{
anchors = (
{
name = bottom;
position = "{617, 0}";
},
{
name = top;
position = "{258, 536}";
}
);
layerId = "528596C4-5B9B-4A0D-91B5-66A38EFFCD2C";
paths = (
{
closed = 1;
nodes = (
"541 -12 OFFCURVE",
"627 41 OFFCURVE",
"627 176 CURVE SMOOTH",
"627 774 LINE",
"500 774 LINE",
"438 702 LINE",
"438 143 LINE SMOOTH",
"438 67 OFFCURVE",
"393 42 OFFCURVE",
"338 42 CURVE SMOOTH",
"286 42 OFFCURVE",
"239 65 OFFCURVE",
"239 157 CURVE SMOOTH",
"239 224 OFFCURVE",
"264 251 OFFCURVE",
"303 251 CURVE SMOOTH",
"346 251 LINE",
"346 312 LINE",
"321 312 LINE SMOOTH",
"242 312 OFFCURVE",
"234 353 OFFCURVE",
"233 386 CURVE",
"213 373 LINE",
"218 373 OFFCURVE",
"223 373 OFFCURVE",
"228 373 CURVE SMOOTH",
"290 373 OFFCURVE",
"338 398 OFFCURVE",
"338 464 CURVE SMOOTH",
"338 529 OFFCURVE",
"292 562 OFFCURVE",
"216 562 CURVE SMOOTH",
"118 562 OFFCURVE",
"46 508 OFFCURVE",
"46 436 CURVE SMOOTH",
"46 428 LINE SMOOTH",
"46 366 OFFCURVE",
"83 304 OFFCURVE",
"157 286 CURVE",
"157 282 LINE",
"81 262 OFFCURVE",
"49 214 OFFCURVE",
"49 151 CURVE SMOOTH",
"49 37 OFFCURVE",
"155 -12 OFFCURVE",
"344 -12 CURVE SMOOTH"
);
},
{
closed = 1;
nodes = (
"202 417 OFFCURVE",
"187 435 OFFCURVE",
"187 466 CURVE SMOOTH",
"187 497 OFFCURVE",
"202 515 OFFCURVE",
"235 515 CURVE SMOOTH",
"268 515 OFFCURVE",
"283 497 OFFCURVE",
"283 466 CURVE SMOOTH",
"283 435 OFFCURVE",
"268 417 OFFCURVE",
"235 417 CURVE SMOOTH"
);
}
);
width = 703;
},
{
anchors = (
{
name = bottom;
position = "{331, 0}";
},
{
name = top;
position = "{176, 536}";
}
);
layerId = "15894915-CD0E-4C5A-A33F-EBC469CF719E";
paths = (
{
closed = 1;
nodes = (
"282 -10 OFFCURVE",
"338 40 OFFCURVE",
"338 176 CURVE SMOOTH",
"338 772 LINE",
"329 772 LINE",
"310 747 LINE",
"310 171 LINE SMOOTH",
"310 63 OFFCURVE",
"269 15 OFFCURVE",
"190 15 CURVE SMOOTH",
"100 15 OFFCURVE",
"73 77 OFFCURVE",
"73 155 CURVE SMOOTH",
"73 234 OFFCURVE",
"101 274 OFFCURVE",
"171 274 CURVE SMOOTH",
"201 274 LINE",
"201 297 LINE",
"171 297 LINE SMOOTH",
"110 297 OFFCURVE",
"71 371 OFFCURVE",
"70 426 CURVE",
"71 427 LINE",
"81 410 OFFCURVE",
"95 401 OFFCURVE",
"114 401 CURVE SMOOTH",
"151 401 OFFCURVE",
"174 432 OFFCURVE",
"174 477 CURVE SMOOTH",
"174 521 OFFCURVE",
"152 552 OFFCURVE",
"110 552 CURVE SMOOTH",
"67 552 OFFCURVE",
"41 518 OFFCURVE",
"41 457 CURVE SMOOTH",
"41 439 LINE SMOOTH",
"41 378 OFFCURVE",
"73 312 OFFCURVE",
"117 290 CURVE",
"117 287 LINE",
"72 280 OFFCURVE",
"43 235 OFFCURVE",
"43 154 CURVE SMOOTH",
"43 45 OFFCURVE",
"95 -10 OFFCURVE",
"191 -10 CURVE SMOOTH"
);
},
{
closed = 1;
nodes = (
"85 424 OFFCURVE",
"71 443 OFFCURVE",
"71 476 CURVE SMOOTH",
"71 510 OFFCURVE",
"86 528 OFFCURVE",
"111 528 CURVE SMOOTH",
"135 528 OFFCURVE",
"151 510 OFFCURVE",
"151 476 CURVE SMOOTH",
"151 443 OFFCURVE",
"136 424 OFFCURVE",
"111 424 CURVE SMOOTH"
);
}
);
width = 402;
},
{
anchors = (
{
name = bottom;
position = "{408, 0}";
},
{
name = top;
position = "{193, 536}";
}
);
layerId = "004437BA-C458-42A1-B8EC-F9F2993A06FB";
paths = (
{
closed = 1;
nodes = (
"352 -10 OFFCURVE",
"416 49 OFFCURVE",
"416 166 CURVE SMOOTH",
"416 772 LINE",
"367 772 LINE",
"324 715 LINE",
"324 183 LINE SMOOTH",
"324 84 OFFCURVE",
"291 39 OFFCURVE",
"224 39 CURVE SMOOTH",
"168 39 OFFCURVE",
"127 70 OFFCURVE",
"127 154 CURVE SMOOTH",
"127 225 OFFCURVE",
"157 254 OFFCURVE",
"200 254 CURVE SMOOTH",
"220 254 LINE",
"220 303 LINE",
"204 303 LINE SMOOTH",
"142 303 OFFCURVE",
"122 341 OFFCURVE",
"127 393 CURVE",
"118 382 LINE",
"124 379 OFFCURVE",
"125 376 OFFCURVE",
"137 376 CURVE SMOOTH",
"176 376 OFFCURVE",
"207 411 OFFCURVE",
"207 469 CURVE SMOOTH",
"207 525 OFFCURVE",
"178 560 OFFCURVE",
"127 560 CURVE SMOOTH",
"72 560 OFFCURVE",
"34 519 OFFCURVE",
"34 451 CURVE SMOOTH",
"34 427 LINE SMOOTH",
"34 356 OFFCURVE",
"61 304 OFFCURVE",
"106 280 CURVE",
"106 277 LINE",
"60 256 OFFCURVE",
"35 209 OFFCURVE",
"35 147 CURVE SMOOTH",
"35 43 OFFCURVE",
"107 -10 OFFCURVE",
"226 -10 CURVE SMOOTH"
);
},
{
closed = 1;
nodes = (
"109 418 OFFCURVE",
"96 434 OFFCURVE",
"96 468 CURVE SMOOTH",
"96 502 OFFCURVE",
"109 519 OFFCURVE",
"134 519 CURVE SMOOTH",
"158 519 OFFCURVE",
"170 503 OFFCURVE",
"170 469 CURVE SMOOTH",
"170 435 OFFCURVE",
"157 418 OFFCURVE",
"133 418 CURVE SMOOTH"
);
}
);
width = 473;
},
{
anchors = (
{
name = bottom;
position = "{503, 0}";
},
{
name = top;
position = "{212, 536}";
}
);
layerId = "5B84B61E-AB9F-4F38-98DA-7F1AA4E54ED0";
paths = (
{
closed = 1;
nodes = (
"439 -12 OFFCURVE",
"520 50 OFFCURVE",
"520 155 CURVE SMOOTH",
"520 776 LINE",
"407 776 LINE",
"358 706 LINE",
"358 147 LINE SMOOTH",
"358 71 OFFCURVE",
"332 42 OFFCURVE",
"284 42 CURVE SMOOTH",
"241 42 OFFCURVE",
"202 65 OFFCURVE",
"202 158 CURVE SMOOTH",
"202 221 OFFCURVE",
"220 251 OFFCURVE",
"251 251 CURVE SMOOTH",
"288 251 LINE",
"288 311 LINE",
"267 311 LINE SMOOTH",
"204 311 OFFCURVE",
"200 352 OFFCURVE",
"198 387 CURVE",
"181 374 LINE",
"186 374 OFFCURVE",
"186 373 OFFCURVE",
"195 373 CURVE SMOOTH",
"241 373 OFFCURVE",
"283 399 OFFCURVE",
"283 464 CURVE SMOOTH",
"283 529 OFFCURVE",
"241 562 OFFCURVE",
"176 562 CURVE SMOOTH",
"94 562 OFFCURVE",
"37 509 OFFCURVE",
"37 438 CURVE SMOOTH",
"37 428 LINE SMOOTH",
"37 365 OFFCURVE",
"67 304 OFFCURVE",
"129 286 CURVE",
"129 281 LINE",
"63 261 OFFCURVE",
"40 210 OFFCURVE",
"40 152 CURVE SMOOTH",
"40 38 OFFCURVE",
"130 -12 OFFCURVE",
"276 -12 CURVE SMOOTH"
);
},
{
closed = 1;
nodes = (
"172 417 OFFCURVE",
"160 435 OFFCURVE",
"160 466 CURVE SMOOTH",
"160 498 OFFCURVE",
"172 515 OFFCURVE",
"199 515 CURVE SMOOTH",
"226 515 OFFCURVE",
"238 497 OFFCURVE",
"238 466 CURVE SMOOTH",
"238 435 OFFCURVE",
"226 417 OFFCURVE",
"199 417 CURVE SMOOTH"
);
}
);
width = 582;
}
);
note = uni0EA2;
unicode = 0EA2;
},
{
glyphname = "roRot-lao";
lastChange = "2017-06-02 15:50:30 +0000";
layers = (
{
anchors = (
{
name = bottom;
position = "{433, 0}";
},
{
name = top;
position = "{258, 536}";
},
{
name = top2;
position = "{433, 536}";
}
);
layerId = "169B4CCF-67AF-4042-AA6F-C8E438F95C30";
paths = (
{
closed = 1;
nodes = (
"381 -10 OFFCURVE",
"453 46 OFFCURVE",
"453 144 CURVE SMOOTH",
"453 246 OFFCURVE",
"376 273 OFFCURVE",
"244 323 CURVE SMOOTH",
"135 364 OFFCURVE",
"88 385 OFFCURVE",
"88 439 CURVE SMOOTH",
"88 505 OFFCURVE",
"157 527 OFFCURVE",
"238 527 CURVE SMOOTH",
"344 527 OFFCURVE",
"417 490 OFFCURVE",
"417 408 CURVE",
"440 405 OFFCURVE",
"446 414 OFFCURVE",
"446 432 CURVE SMOOTH",
"446 493 OFFCURVE",
"378 552 OFFCURVE",
"239 552 CURVE SMOOTH",
"128 552 OFFCURVE",
"60 514 OFFCURVE",
"60 438 CURVE SMOOTH",
"60 368 OFFCURVE",
"119 343 OFFCURVE",
"245 296 CURVE SMOOTH",
"365 251 OFFCURVE",
"425 229 OFFCURVE",
"425 144 CURVE SMOOTH",
"425 60 OFFCURVE",
"366 15 OFFCURVE",
"262 15 CURVE SMOOTH",
"175 15 OFFCURVE",
"122 47 OFFCURVE",
"97 88 CURVE",
"107 84 OFFCURVE",
"126 80 OFFCURVE",
"142 80 CURVE SMOOTH",
"184 80 OFFCURVE",
"216 108 OFFCURVE",
"216 156 CURVE SMOOTH",
"216 198 OFFCURVE",
"191 235 OFFCURVE",
"137 235 CURVE SMOOTH",
"89 235 OFFCURVE",
"55 206 OFFCURVE",
"55 152 CURVE SMOOTH",
"55 140 LINE SMOOTH",
"55 75 OFFCURVE",
"118 -10 OFFCURVE",
"263 -10 CURVE SMOOTH"
);
},
{
closed = 1;
nodes = (
"99 103 OFFCURVE",
"83 120 OFFCURVE",
"83 153 CURVE SMOOTH",
"83 186 OFFCURVE",
"99 211 OFFCURVE",
"137 211 CURVE SMOOTH",
"174 211 OFFCURVE",
"188 187 OFFCURVE",
"188 155 CURVE SMOOTH",
"188 120 OFFCURVE",
"171 103 OFFCURVE",
"135 103 CURVE SMOOTH"
);
}
);
width = 508;
},
{
anchors = (
{
name = bottom;
position = "{485, 0}";
},
{
name = top;
position = "{295, 536}";
},
{
name = top2;
position = "{486, 536}";
}
);
layerId = "A12FF52C-901E-4F1C-B651-FD65F325A5D0";
paths = (
{
closed = 1;
nodes = (
"421 -10 OFFCURVE",
"505 54 OFFCURVE",
"505 155 CURVE SMOOTH",
"505 272 OFFCURVE",
"394 307 OFFCURVE",
"296 337 CURVE SMOOTH",
"218 361 OFFCURVE",
"147 385 OFFCURVE",
"147 444 CURVE SMOOTH",
"147 504 OFFCURVE",
"219 511 OFFCURVE",
"265 511 CURVE SMOOTH",
"345 511 OFFCURVE",
"416 490 OFFCURVE",
"416 388 CURVE",
"473 388 OFFCURVE",
"496 403 OFFCURVE",
"496 441 CURVE SMOOTH",
"496 515 OFFCURVE",
"407 560 OFFCURVE",
"260 560 CURVE SMOOTH",
"181 560 OFFCURVE",
"55 547 OFFCURVE",
"55 443 CURVE SMOOTH",
"55 336 OFFCURVE",
"188 321 OFFCURVE",
"292 283 CURVE SMOOTH",
"361 258 OFFCURVE",
"414 224 OFFCURVE",
"414 150 CURVE SMOOTH",
"414 77 OFFCURVE",
"361 39 OFFCURVE",
"268 39 CURVE SMOOTH",
"197 39 OFFCURVE",
"138 61 OFFCURVE",
"128 76 CURVE",
"133 75 OFFCURVE",
"139 74 OFFCURVE",
"149 74 CURVE SMOOTH",
"209 74 OFFCURVE",
"242 110 OFFCURVE",
"242 166 CURVE SMOOTH",
"242 222 OFFCURVE",
"209 259 OFFCURVE",
"147 259 CURVE SMOOTH",
"86 259 OFFCURVE",
"45 224 OFFCURVE",
"45 155 CURVE SMOOTH",
"45 140 LINE SMOOTH",
"45 43 OFFCURVE",
"137 -10 OFFCURVE",
"272 -10 CURVE SMOOTH"
);
},
{
closed = 1;
nodes = (
"111 115 OFFCURVE",
"96 136 OFFCURVE",
"96 167 CURVE SMOOTH",
"96 197 OFFCURVE",
"111 217 OFFCURVE",
"146 217 CURVE SMOOTH",
"180 217 OFFCURVE",
"194 198 OFFCURVE",
"194 167 CURVE SMOOTH",
"194 135 OFFCURVE",
"179 115 OFFCURVE",
"145 115 CURVE SMOOTH"
);
}
);
width = 550;
},
{
anchors = (
{
name = bottom;
position = "{587, 0}";
},
{
name = top;
position = "{340, 536}";
},
{
name = top2;
position = "{587, 536}";
}
);
layerId = "528596C4-5B9B-4A0D-91B5-66A38EFFCD2C";
paths = (
{
closed = 1;
nodes = (
"514 -12 OFFCURVE",
"608 61 OFFCURVE",
"608 174 CURVE SMOOTH",
"608 311 OFFCURVE",
"469 330 OFFCURVE",
"358 354 CURVE SMOOTH",
"284 370 OFFCURVE",
"222 388 OFFCURVE",
"222 445 CURVE SMOOTH",
"222 489 OFFCURVE",
"260 506 OFFCURVE",
"310 506 CURVE SMOOTH",
"394 506 OFFCURVE",
"407 457 OFFCURVE",
"408 394 CURVE",
"504 378 OFFCURVE",
"597 382 OFFCURVE",
"597 453 CURVE SMOOTH",
"597 529 OFFCURVE",
"490 562 OFFCURVE",
"317 562 CURVE SMOOTH",
"142 562 OFFCURVE",
"43 528 OFFCURVE",
"43 423 CURVE SMOOTH",
"43 290 OFFCURVE",
"204 285 OFFCURVE",
"316 251 CURVE SMOOTH",
"376 233 OFFCURVE",
"422 205 OFFCURVE",
"422 145 CURVE SMOOTH",
"422 77 OFFCURVE",
"362 42 OFFCURVE",
"284 42 CURVE SMOOTH",
"254 42 OFFCURVE",
"224 47 OFFCURVE",
"191 63 CURVE",
"195 62 OFFCURVE",
"197 62 OFFCURVE",
"200 62 CURVE SMOOTH",
"246 62 OFFCURVE",
"280 102 OFFCURVE",
"280 158 CURVE SMOOTH",
"280 220 OFFCURVE",
"238 260 OFFCURVE",
"166 260 CURVE SMOOTH",
"104 260 OFFCURVE",
"39 231 OFFCURVE",
"39 143 CURVE SMOOTH",
"39 133 LINE SMOOTH",
"39 28 OFFCURVE",
"162 -12 OFFCURVE",
"312 -12 CURVE SMOOTH"
);
},
{
closed = 1;
nodes = (
"142 107 OFFCURVE",
"126 125 OFFCURVE",
"126 157 CURVE SMOOTH",
"126 187 OFFCURVE",
"141 205 OFFCURVE",
"175 205 CURVE SMOOTH",
"208 205 OFFCURVE",
"222 187 OFFCURVE",
"222 157 CURVE SMOOTH",
"222 125 OFFCURVE",
"207 107 OFFCURVE",
"175 107 CURVE SMOOTH"
);
}
);
width = 653;
},
{
anchors = (
{
name = bottom;
position = "{335, 0}";
},
{
name = top;
position = "{200, 536}";
},
{
name = top2;
position = "{335, 536}";
}
);
layerId = "15894915-CD0E-4C5A-A33F-EBC469CF719E";
paths = (
{
closed = 1;
nodes = (
"293 -10 OFFCURVE",
"350 46 OFFCURVE",
"350 144 CURVE SMOOTH",
"350 246 OFFCURVE",
"288 273 OFFCURVE",
"191 323 CURVE SMOOTH",
"115 362 OFFCURVE",
"73 384 OFFCURVE",
"73 441 CURVE SMOOTH",
"73 505 OFFCURVE",
"127 527 OFFCURVE",
"185 527 CURVE SMOOTH",
"261 527 OFFCURVE",
"317 490 OFFCURVE",
"317 408 CURVE",
"338 405 OFFCURVE",
"344 414 OFFCURVE",
"344 434 CURVE SMOOTH",
"344 493 OFFCURVE",
"289 552 OFFCURVE",
"186 552 CURVE SMOOTH",
"103 552 OFFCURVE",
"45 514 OFFCURVE",
"45 438 CURVE SMOOTH",
"45 371 OFFCURVE",
"91 347 OFFCURVE",
"191 296 CURVE SMOOTH",
"277 252 OFFCURVE",
"322 229 OFFCURVE",
"322 144 CURVE SMOOTH",
"322 60 OFFCURVE",
"278 15 OFFCURVE",
"201 15 CURVE SMOOTH",
"136 15 OFFCURVE",
"95 47 OFFCURVE",
"77 88 CURVE",
"84 84 OFFCURVE",
"97 80 OFFCURVE",
"109 80 CURVE SMOOTH",
"143 80 OFFCURVE",
"167 109 OFFCURVE",
"167 156 CURVE SMOOTH",
"167 198 OFFCURVE",
"147 235 OFFCURVE",
"105 235 CURVE SMOOTH",
"68 235 OFFCURVE",
"41 206 OFFCURVE",
"41 152 CURVE SMOOTH",
"41 140 LINE SMOOTH",
"41 75 OFFCURVE",
"91 -10 OFFCURVE",
"202 -10 CURVE SMOOTH"
);
},
{
closed = 1;
nodes = (
"77 103 OFFCURVE",
"65 120 OFFCURVE",
"65 153 CURVE SMOOTH",
"65 186 OFFCURVE",
"77 211 OFFCURVE",
"105 211 CURVE SMOOTH",
"133 211 OFFCURVE",
"144 187 OFFCURVE",
"144 155 CURVE SMOOTH",
"144 120 OFFCURVE",
"131 103 OFFCURVE",
"104 103 CURVE SMOOTH"
);
}
);
width = 391;
},
{
anchors = (
{
name = bottom;
position = "{392, 0}";
},
{
name = top;
position = "{235, 536}";
},
{
name = top2;
position = "{393, 536}";
}
);
layerId = "004437BA-C458-42A1-B8EC-F9F2993A06FB";
paths = (
{
closed = 1;
nodes = (
"340 -10 OFFCURVE",
"407 54 OFFCURVE",
"407 155 CURVE SMOOTH",
"407 272 OFFCURVE",
"316 308 OFFCURVE",
"239 338 CURVE SMOOTH",
"180 361 OFFCURVE",
"129 387 OFFCURVE",
"129 444 CURVE SMOOTH",
"129 497 OFFCURVE",
"173 511 OFFCURVE",
"217 511 CURVE SMOOTH",
"269 511 OFFCURVE",
"315 491 OFFCURVE",
"315 388 CURVE",
"371 388 OFFCURVE",
"400 403 OFFCURVE",
"400 446 CURVE SMOOTH",
"400 515 OFFCURVE",
"328 560 OFFCURVE",
"203 560 CURVE SMOOTH",
"128 560 OFFCURVE",
"39 544 OFFCURVE",
"39 445 CURVE SMOOTH",
"39 335 OFFCURVE",
"147 323 OFFCURVE",
"227 284 CURVE SMOOTH",
"277 260 OFFCURVE",
"317 224 OFFCURVE",
"317 152 CURVE SMOOTH",
"317 78 OFFCURVE",
"275 39 OFFCURVE",
"210 39 CURVE SMOOTH",
"161 39 OFFCURVE",
"125 61 OFFCURVE",
"112 76 CURVE",
"115 75 OFFCURVE",
"119 74 OFFCURVE",
"126 74 CURVE SMOOTH",
"167 74 OFFCURVE",
"193 110 OFFCURVE",
"193 166 CURVE SMOOTH",
"193 222 OFFCURVE",
"166 259 OFFCURVE",
"117 259 CURVE SMOOTH",
"70 259 OFFCURVE",
"33 225 OFFCURVE",
"33 155 CURVE SMOOTH",
"33 140 LINE SMOOTH",
"33 43 OFFCURVE",
"109 -10 OFFCURVE",
"219 -10 CURVE SMOOTH"
);
},
{
closed = 1;
nodes = (
"92 115 OFFCURVE",
"80 136 OFFCURVE",
"80 167 CURVE SMOOTH",
"80 197 OFFCURVE",
"91 217 OFFCURVE",
"118 217 CURVE SMOOTH",
"143 217 OFFCURVE",
"154 198 OFFCURVE",
"154 167 CURVE SMOOTH",
"154 135 OFFCURVE",
"143 115 OFFCURVE",
"118 115 CURVE SMOOTH"
);
}
);
width = 441;
},
{
anchors = (
{
name = bottom;
position = "{486, 0}";
},
{
name = top;
position = "{280, 536}";
},
{
name = top2;
position = "{486, 536}";
}
);
layerId = "5B84B61E-AB9F-4F38-98DA-7F1AA4E54ED0";
paths = (
{
closed = 1;
nodes = (
"425 -12 OFFCURVE",
"503 60 OFFCURVE",
"503 172 CURVE SMOOTH",
"503 308 OFFCURVE",
"386 328 OFFCURVE",
"296 352 CURVE SMOOTH",
"237 368 OFFCURVE",
"188 387 OFFCURVE",
"188 446 CURVE SMOOTH",
"188 490 OFFCURVE",
"216 507 OFFCURVE",
"256 507 CURVE SMOOTH",
"324 507 OFFCURVE",
"328 460 OFFCURVE",
"329 394 CURVE",
"408 380 OFFCURVE",
"494 381 OFFCURVE",
"494 454 CURVE SMOOTH",
"494 528 OFFCURVE",
"405 562 OFFCURVE",
"258 562 CURVE SMOOTH",
"111 562 OFFCURVE",
"34 528 OFFCURVE",
"34 426 CURVE SMOOTH",
"34 292 OFFCURVE",
"168 289 OFFCURVE",
"258 254 CURVE SMOOTH",
"307 235 OFFCURVE",
"342 206 OFFCURVE",
"342 147 CURVE SMOOTH",
"342 77 OFFCURVE",
"293 42 OFFCURVE",
"233 42 CURVE SMOOTH",
"211 42 OFFCURVE",
"182 47 OFFCURVE",
"161 64 CURVE",
"163 63 OFFCURVE",
"165 63 OFFCURVE",
"167 63 CURVE SMOOTH",
"203 63 OFFCURVE",
"231 103 OFFCURVE",
"231 158 CURVE SMOOTH",
"231 220 OFFCURVE",
"196 260 OFFCURVE",
"137 260 CURVE SMOOTH",
"86 260 OFFCURVE",
"31 230 OFFCURVE",
"31 144 CURVE SMOOTH",
"31 134 LINE SMOOTH",
"31 30 OFFCURVE",
"133 -12 OFFCURVE",
"259 -12 CURVE SMOOTH"
);
},
{
closed = 1;
nodes = (
"118 108 OFFCURVE",
"105 126 OFFCURVE",
"105 158 CURVE SMOOTH",
"105 188 OFFCURVE",
"117 206 OFFCURVE",
"144 206 CURVE SMOOTH",
"172 206 OFFCURVE",
"183 187 OFFCURVE",
"183 157 CURVE SMOOTH",
"183 126 OFFCURVE",
"171 108 OFFCURVE",
"145 108 CURVE SMOOTH"
);
}
);
width = 539;
}
);
note = uni0EA3;
unicode = 0EA3;
},
